<svg dispaly="none" xmlns="http://www.w3.org/2000/svg">
    <symbol id="search" viewBox="0 0 21 21">
        <path
            d="M15.7544 15.4925L20.5 20M17.8461 9.77628C17.8461 14.6233 13.9631 18.5526 9.17307 18.5526C4.38306 18.5526 0.5 14.6233 0.5 9.77628C0.5 4.92927 4.38306 1 9.17307 1C13.9631 1 17.8461 4.92927 17.8461 9.77628Z" />
    </symbol>
    <symbol id="autorization" viewBox="0 0 21 21">
        <path
            d="M9.5 13C12.8137 13 15.5 10.3137 15.5 7C15.5 3.68629 12.8137 1 9.5 1C6.18629 1 3.5 3.68629 3.5 7C3.5 10.3137 6.18629 13 9.5 13ZM9.5 13C4.52944 13 0.5 16.5817 0.5 21M9.5 13C14.4706 13 18.5 16.5817 18.5 21" />
    </symbol>
    <symbol id="favorit" viewBox="0 0 21 20">
        <path
            d="M10.4992 5.69565C10.4992 2.67009 8.26049 1 5.49886 1C2.16529 1 0.53581 3.34783 0.5 6.47826C0.5 10.7826 5.49887 14.3043 10.4992 19C15.5004 14.3043 20.5 10.7826 20.5 6.47826C20.4642 3.34783 18.8345 1 15.5004 1C12.7383 1 10.4992 2.67009 10.4992 5.69565Z" />
    </symbol>
    <symbol id="basket" viewBox="0 0 21 22">
        <path
            d="M13.7222 8.90278V4.11111C13.7222 2.39289 12.3293 1 10.6111 1C8.89289 1 7.5 2.39289 7.5 4.11111V9M1.5 5H19.5L20.5 21H0.5L1.5 5Z" />
    </symbol>
    <symbol id="facebook" viewBox="0 0 24 24">
        <path fill="" stroke="none"
            d="M9.5 14.5V23H12.5V14.5H16V11.5H12.5003C12.5133 9.95468 12.8829 9.69055 12.915 9.66757L12.9156 9.66718C12.9655 9.63135 13.0729 9.5766 13.3222 9.54085C13.5879 9.50276 13.8942 9.50003 14.3333 9.50003H16V6.50003H14.3333C14.2933 6.50003 14.2512 6.49986 14.207 6.49967C13.4761 6.49668 12.1966 6.49145 11.1678 7.22888C9.96399 8.09175 9.51299 9.58589 9.50028 11.5H7V14.5H9.5Z" />
        <path fill="none"
            d="M11.9956 1C9.00992 1 8.63452 1.0131 7.46032 1.06548C6.29048 1.11786 5.49167 1.30556 4.79325 1.57619C4.06865 1.85556 3.45754 2.23532 2.84643 2.84643C2.23532 3.45754 1.85992 4.07302 1.57619 4.79325C1.30556 5.49167 1.11786 6.29048 1.06548 7.46468C1.0131 8.63452 1 9.00992 1 11.9956C1 14.9813 1.0131 15.3567 1.06548 16.531C1.11786 17.7008 1.30556 18.4996 1.57619 19.2024C1.85556 19.927 2.23532 20.5381 2.84643 21.1492C3.45754 21.7603 4.07302 22.1357 4.79325 22.4194C5.49167 22.6901 6.29048 22.8778 7.46468 22.9302C8.63889 22.9825 9.00992 22.9956 12 22.9956C14.9901 22.9956 15.3611 22.9825 16.5353 22.9302C17.7052 22.8778 18.504 22.6901 19.2067 22.4194C19.9314 22.1401 20.5425 21.7603 21.1536 21.1492C21.7647 20.5381 22.1401 19.9226 22.4238 19.2024C22.6944 18.504 22.8821 17.7052 22.9345 16.531C22.9869 15.3567 23 14.9857 23 11.9956C23 9.00555 22.9869 8.63452 22.9345 7.46032C22.8821 6.29048 22.6944 5.49167 22.4238 4.78889C22.1444 4.06429 21.7647 3.45317 21.1536 2.84206C20.5425 2.23095 19.927 1.85556 19.2067 1.57183C18.5083 1.30119 17.7095 1.11349 16.5353 1.06111C15.3567 1.0131 14.9813 1 11.9956 1Z" />
    </symbol>
    <symbol id="instagram" viewBox="0 0 24 24">
        <path fill="none"
            d="M11.9956 1C9.00992 1 8.63452 1.0131 7.46032 1.06548C6.29048 1.11786 5.49167 1.30556 4.79325 1.57619C4.06865 1.85556 3.45754 2.23532 2.84643 2.84643C2.23532 3.45754 1.85992 4.07302 1.57619 4.79325C1.30556 5.49167 1.11786 6.29048 1.06548 7.46468C1.0131 8.63452 1 9.00992 1 11.9956C1 14.9813 1.0131 15.3567 1.06548 16.531C1.11786 17.7008 1.30556 18.4996 1.57619 19.2024C1.85556 19.927 2.23532 20.5381 2.84643 21.1492C3.45754 21.7603 4.07302 22.1357 4.79325 22.4194C5.49167 22.6901 6.29048 22.8778 7.46468 22.9302C8.63889 22.9825 9.00992 22.9956 12 22.9956C14.9901 22.9956 15.3611 22.9825 16.5353 22.9302C17.7052 22.8778 18.504 22.6901 19.2067 22.4194C19.9314 22.1401 20.5425 21.7603 21.1536 21.1492C21.7647 20.5381 22.1401 19.9226 22.4238 19.2024C22.6944 18.504 22.8821 17.7052 22.9345 16.531C22.9869 15.3567 23 14.9857 23 11.9956C23 9.00555 22.9869 8.63452 22.9345 7.46032C22.8821 6.29048 22.6944 5.49167 22.4238 4.78889C22.1444 4.06429 21.7647 3.45317 21.1536 2.84206C20.5425 2.23095 19.927 1.85556 19.2067 1.57183C18.5083 1.30119 17.7095 1.11349 16.5353 1.06111C15.3567 1.0131 14.9813 1 11.9956 1Z" />
        <path fill="none"
            d="M11.5 7C8.46522 7 6 9.46097 6 12.5C6 15.539 8.46522 18 11.5 18C14.5348 18 17 15.5348 17 12.5C17 9.46522 14.5348 7 11.5 7Z" />
        <path
            d="M17.5 7C18.3284 7 19 6.32843 19 5.5C19 4.67157 18.3284 4 17.5 4C16.6716 4 16 4.67157 16 5.5C16 6.32843 16.6716 7 17.5 7Z" />
    </symbol>
    <symbol id="vk" viewBox="0 0 24 24">
        <path stroke="none"
            d="M19.633 7.67714C19.7437 7.28714 19.633 7 19.103 7H17.3531C16.9077 7 16.7024 7.24786 16.5911 7.52143C16.5911 7.52143 15.7011 9.80429 14.4404 11.2871C14.0325 11.7171 13.8471 11.8536 13.6245 11.8536C13.5131 11.8536 13.3458 11.7171 13.3458 11.3264V7.67714C13.3458 7.20857 13.2231 7 12.8525 7H10.1005C9.82254 7 9.65521 7.21714 9.65521 7.42357C9.65521 7.86714 10.2859 7.97 10.3505 9.21857V11.9314C10.3505 12.5264 10.2485 12.6343 10.0259 12.6343C9.43255 12.6343 7.98925 10.3407 7.1326 7.71643C6.9666 7.20571 6.79861 7 6.35128 7H4.59999C4.1 7 4 7.24786 4 7.52143C4 8.00857 4.59332 10.4286 6.76328 13.6293C8.20991 15.815 10.2465 17 12.1018 17C13.2145 17 13.3518 16.7371 13.3518 16.2836V14.6314C13.3518 14.105 13.4571 14 13.8098 14C14.0698 14 14.5144 14.1371 15.5531 15.1907C16.7397 16.44 16.9351 17 17.603 17H19.353C19.853 17 20.1037 16.7371 19.9597 16.2171C19.801 15.7 19.2343 14.9493 18.483 14.0586C18.075 13.5514 17.4631 13.005 17.2771 12.7314C17.0177 12.3807 17.0917 12.2243 17.2771 11.9121C17.2771 11.9121 19.4103 8.75071 19.6323 7.67714H19.633Z" />
        <path fill="none"
            d="M11.9956 1C9.00992 1 8.63452 1.0131 7.46032 1.06548C6.29048 1.11786 5.49167 1.30556 4.79325 1.57619C4.06865 1.85556 3.45754 2.23532 2.84643 2.84643C2.23532 3.45754 1.85992 4.07302 1.57619 4.79325C1.30556 5.49167 1.11786 6.29048 1.06548 7.46468C1.0131 8.63452 1 9.00992 1 11.9956C1 14.9813 1.0131 15.3567 1.06548 16.531C1.11786 17.7008 1.30556 18.4996 1.57619 19.2024C1.85556 19.927 2.23532 20.5381 2.84643 21.1492C3.45754 21.7603 4.07302 22.1357 4.79325 22.4194C5.49167 22.6901 6.29048 22.8778 7.46468 22.9302C8.63889 22.9825 9.00992 22.9956 12 22.9956C14.9901 22.9956 15.3611 22.9825 16.5353 22.9302C17.7052 22.8778 18.504 22.6901 19.2067 22.4194C19.9314 22.1401 20.5425 21.7603 21.1536 21.1492C21.7647 20.5381 22.1401 19.9226 22.4238 19.2024C22.6944 18.504 22.8821 17.7052 22.9345 16.531C22.9869 15.3567 23 14.9857 23 11.9956C23 9.00555 22.9869 8.63452 22.9345 7.46032C22.8821 6.29048 22.6944 5.49167 22.4238 4.78889C22.1444 4.06429 21.7647 3.45317 21.1536 2.84206C20.5425 2.23095 19.927 1.85556 19.2067 1.57183C18.5083 1.30119 17.7095 1.11349 16.5353 1.06111C15.3567 1.0131 14.9813 1 11.9956 1Z" />
    </symbol>
    <symbol id="close" viewBox="0 0 24 24">
        <path d="M18 6L12 12M12 12L6 18M12 12L6 6M12 12L18 18" stroke-linecap="round" stroke-linejoin="round" />
    </symbol>
    <symbol id="arrow_r" viewBox="0 0 14 12">
        <path d="M7.66667 11L13 6M13 6L7.66667 1M13 6L1 6" stroke-linecap="round" stroke-linejoin="round" />
    </symbol>
    <symbol id="logo" viewBox="0 0 200 66">
        <path
            d="M0.280289 33.0315V32.8513C0.201314 28.5233 1.01954 24.2244 2.68564 20.2139C4.35174 16.2034 6.83121 12.5644 9.97454 9.51621C13.1179 6.468 16.86 4.07378 20.9752 2.47788C25.0905 0.881989 29.4936 0.117476 33.9192 0.230441C38.6218 0.0011865 43.3207 0.750105 47.7054 2.42773C52.0901 4.10535 56.061 6.67351 59.3556 9.96256L50.3236 20.1454C45.9921 15.7492 40.0678 13.1927 33.827 13.0265C22.952 13.0265 15.1183 21.8575 15.1183 32.6711V32.8512C15.1183 43.6648 22.7675 52.6762 33.827 52.6762C41.1999 52.6762 45.7158 49.7926 50.7845 45.287L59.8163 54.208C56.5688 57.9227 52.5002 60.8671 47.918 62.8185C43.3357 64.7699 38.3598 65.6774 33.3662 65.4723C28.9939 65.5416 24.6522 64.7492 20.5999 63.1423C16.5476 61.5354 12.8679 59.1469 9.78013 56.1193C6.69237 53.0918 4.25987 49.4872 2.62773 45.5205C0.995583 41.5538 0.19723 37.3064 0.280289 33.0315Z" />
        <path
            d="M69.9839 33.0315V32.8513C69.9049 28.5232 70.7231 24.2244 72.3892 20.2139C74.0553 16.2034 76.5348 12.5644 79.6781 9.51621C82.8215 6.46801 86.5636 4.07378 90.6788 2.47789C94.7941 0.88199 99.1972 0.117478 103.623 0.230443C108.325 0.00118338 113.024 0.7501 117.409 2.42772C121.794 4.10535 125.765 6.6735 129.059 9.96256L120.027 20.1454C115.696 15.7492 109.771 13.1927 103.531 13.0265C92.6556 13.0265 84.8219 21.8575 84.8219 32.6711V32.8512C84.8219 43.6648 92.4711 52.6762 103.531 52.6762C110.903 52.6762 115.419 49.7925 120.488 45.2869L129.52 54.208C126.272 57.9227 122.204 60.8671 117.622 62.8185C113.039 64.7699 108.063 65.6774 103.07 65.4723C98.6976 65.5416 94.3559 64.7492 90.3036 63.1423C86.2513 61.5354 82.5715 59.1469 79.4838 56.1194C76.396 53.0918 73.9635 49.4872 72.3313 45.5205C70.6992 41.5538 69.9008 37.3064 69.9839 33.0315Z" />
        <path
            d="M139.549 33.0315V32.8513C139.47 28.5233 140.289 24.2244 141.955 20.2139C143.621 16.2034 146.1 12.5644 149.244 9.51621C152.387 6.46801 156.129 4.07378 160.244 2.47789C164.359 0.88199 168.763 0.117477 173.188 0.230442C177.891 0.00118464 182.59 0.750102 186.974 2.42773C191.359 4.10535 195.33 6.67351 198.625 9.96256L189.593 20.1454C185.261 15.7493 179.337 13.1927 173.096 13.0265C162.221 13.0265 154.387 21.8575 154.387 32.6711V32.8512C154.387 43.6648 162.037 52.6762 173.096 52.6762C180.469 52.6762 184.985 49.7926 190.054 45.287L199.085 54.208C195.838 57.9227 191.769 60.8671 187.187 62.8185C182.605 64.7699 177.629 65.6774 172.635 65.4723C168.263 65.5416 163.921 64.7492 159.869 63.1423C155.817 61.5354 152.137 59.1469 149.049 56.1193C145.961 53.0918 143.529 49.4872 141.897 45.5205C140.265 41.5538 139.466 37.3064 139.549 33.0315Z" />
    </symbol>
    <symbol id="free_shipping" viewBox="0 0 79 56">
        <path fill-rule="evenodd" clip-rule="evenodd"
            d="M6.40541 0H7.11712H46.973H47.6847V0.717949V7.89744H64.7658H64.9929L65.178 8.03013L78.7005 17.7224L79 17.9371V18.3077V43.7949V44.5128H78.2883H71.8829C71.8829 50.857 66.7846 56 60.4955 56C54.2064 56 49.1081 50.857 49.1081 44.5128H47.6847H46.973H46.2613H35.5856C35.5856 50.857 30.4873 56 24.1982 56C17.9091 56 12.8108 50.857 12.8108 44.5128H7.11712H6.40541V43.7949V30.8718H0V29.4359H6.40541V22.9744H0V21.5385H6.40541V0.717949V0ZM50.5315 44.5128C50.5315 50.064 54.9925 54.5641 60.4955 54.5641C65.9984 54.5641 70.4595 50.064 70.4595 44.5128C70.4595 38.9617 65.9984 34.4615 60.4955 34.4615C54.9925 34.4615 50.5315 38.9617 50.5315 44.5128ZM49.1962 43.0769H47.6847V9.33333H64.5387L77.5766 18.6783V43.0769H71.7948C71.0943 37.4104 66.3025 33.0256 60.4955 33.0256C54.6885 33.0256 49.8967 37.4104 49.1962 43.0769ZM46.2613 43.0769H35.4975C34.797 37.4104 30.0052 33.0256 24.1982 33.0256C18.3912 33.0256 13.5994 37.4104 12.8989 43.0769H7.82883V30.8718H11.3874V29.4359H7.82883V22.9744H26.3333V21.5385H7.82883V1.4359H46.2613V7.89744V8.61539V43.0769ZM0 10.7692H3.55856V9.33333H0V10.7692ZM24.1982 54.5641C29.7011 54.5641 34.1622 50.064 34.1622 44.5128C34.1622 38.9617 29.7011 34.4615 24.1982 34.4615C18.6953 34.4615 14.2342 38.9617 14.2342 44.5128C14.2342 50.064 18.6953 54.5641 24.1982 54.5641Z" />
    </symbol>
    <symbol id="high_quality" viewBox="0 0 46 46">
        <path
            d="M12.851 18.7241C33.3097 -17.115 66.392 9.00258 26.9254 32.7986L25.9098 33.2339L12.4157 19.7398L12.851 18.7241ZM1.53333 39.328C0.517644 34.83 2.69411 29.4614 7.91763 24.2378L20.6862 37.0065C11.9804 48.6143 3.1294 46.1476 1.53333 39.328Z" />
    </symbol>
    <symbol id="100" viewBox="0 0 53 56">
        <path
            d="M47.3036 10.1658C42.4328 5.1017 35.5537 1.94521 27.9273 1.94521C13.1578 1.94521 1.1924 13.784 1.1924 28.3786C1.1924 42.9732 13.1578 54.812 27.9273 54.812C38.4639 54.812 47.5758 48.7858 51.9316 40.0301L53 40.5577C48.449 49.7056 38.9307 56 27.9273 56C12.5077 56 0 43.6377 0 28.3786C0 13.1195 12.5077 0.757195 27.9273 0.757195C35.2985 0.757195 42.0041 3.58242 46.9953 8.19748L44.7381 0.326373L45.8846 0L49.0401 11.0034L38.8806 13.2177L38.6258 12.0571L47.3036 10.1658Z" />
        <path d="M17.2541 34.0216H15.8948V22.4741L12.7468 24.3274L12.1387 23.2938L15.9305 21.0307H17.2541V34.0216Z" />
        <path
            d="M25.4354 34.1642C24.0642 34.1642 22.9135 33.7009 21.9834 32.7742C21.5542 32.299 21.1964 31.8001 20.9103 31.2773C20.326 30.1606 20.0338 28.925 20.0338 27.5707C20.0219 26.5965 20.1889 25.6402 20.5347 24.7016C20.8924 23.7512 21.3872 22.9553 22.0192 22.3137C22.9374 21.3752 24.094 20.9059 25.4891 20.9059C26.8842 20.9059 28.0349 21.3693 28.9411 22.2959C29.3465 22.7117 29.7042 23.2047 30.0143 23.775C30.5866 24.8799 30.8728 26.1213 30.8728 27.4994C30.8967 28.4855 30.7297 29.4478 30.372 30.3863C30.0262 31.3248 29.5373 32.1089 28.9053 32.7386C27.9872 33.689 26.8306 34.1642 25.4354 34.1642ZM26.9379 22.4919C26.4967 22.2662 26.0018 22.1534 25.4533 22.1534C24.9048 22.1534 24.41 22.2662 23.9688 22.4919C23.5037 22.7058 23.1222 22.9968 22.8241 23.3651C22.1921 24.1017 21.7807 24.9987 21.5899 26.056C21.2799 27.5885 21.4349 29.0379 22.055 30.4041C22.5081 31.4377 23.146 32.1565 23.9688 32.5604C24.4219 32.7861 24.9227 32.899 25.4712 32.899C26.0078 32.899 26.5026 32.792 26.9558 32.5782C27.4327 32.3287 27.8143 32.0377 28.1005 31.705C28.7086 30.9803 29.12 30.0893 29.3346 29.032C29.6446 27.4875 29.4896 26.0322 28.8696 24.666C28.4165 23.6324 27.7726 22.9077 26.9379 22.4919Z" />
        <path
            d="M38.2212 34.1642C36.8499 34.1642 35.6992 33.7009 34.7692 32.7742C34.3399 32.299 33.9822 31.8001 33.696 31.2773C33.1117 30.1606 32.8196 28.925 32.8196 27.5707C32.8077 26.5965 32.9746 25.6402 33.3204 24.7016C33.6781 23.7512 34.173 22.9553 34.8049 22.3137C35.7231 21.3752 36.8797 20.9059 38.2748 20.9059C39.67 20.9059 40.8206 21.3693 41.7269 22.2959C42.1323 22.7117 42.49 23.2047 42.8 23.775C43.3724 24.8799 43.6586 26.1213 43.6586 27.4994C43.6824 28.4855 43.5155 29.4478 43.1577 30.3863C42.8119 31.3248 42.3231 32.1089 41.6911 32.7386C40.7729 33.689 39.6163 34.1642 38.2212 34.1642ZM39.7236 22.4919C39.2824 22.2662 38.7876 22.1534 38.2391 22.1534C37.6906 22.1534 37.1957 22.2662 36.7545 22.4919C36.2895 22.7058 35.9079 22.9968 35.6098 23.3651C34.9778 24.1017 34.5665 24.9987 34.3757 26.056C34.0657 27.5885 34.2207 29.0379 34.8407 30.4041C35.2938 31.4377 35.9318 32.1565 36.7545 32.5604C37.2076 32.7861 37.7085 32.899 38.257 32.899C38.7935 32.899 39.2884 32.792 39.7415 32.5782C40.2185 32.3287 40.6 32.0377 40.8862 31.705C41.4943 30.9803 41.9057 30.0893 42.1204 29.032C42.4304 27.4875 42.2754 26.0322 41.6553 24.666C41.2022 23.6324 40.5583 22.9077 39.7236 22.4919Z" />
    </symbol>
    <symbol id="return" viewBox="0 0 42 56">
        <path fill-rule="evenodd" clip-rule="evenodd"
            d="M27.4773 18.24C27.4773 21.9514 24.4629 24.96 20.7444 24.96C17.0259 24.96 14.0115 21.9514 14.0115 18.24C14.0115 14.5286 17.0259 11.52 20.7444 11.52C24.4629 11.52 27.4773 14.5286 27.4773 18.24ZM26.1948 18.24C26.1948 21.2444 23.7546 23.68 20.7444 23.68C17.7342 23.68 15.294 21.2444 15.294 18.24C15.294 15.2356 17.7342 12.8 20.7444 12.8C23.7546 12.8 26.1948 15.2356 26.1948 18.24Z" />
        <path fill-rule="evenodd" clip-rule="evenodd"
            d="M41.905 22.08C41.0621 31.8942 25.6947 50.5538 21.9046 55.0213C21.3694 55.6521 21.0651 56 21.0651 56C21.0651 56 20.7493 55.6634 20.1951 55.0476C16.4605 50.8972 1.90025 34.0621 0.225148 22.08C-1.90204 6.86407 11.5033 0 21.0651 0C30.6269 0 43.2193 6.77612 41.905 22.08ZM40.6272 21.9707C40.4103 24.497 39.0959 27.8242 37.1138 31.4982C35.1511 35.1362 32.6106 38.9769 30.0823 42.4938C27.5568 46.0069 25.0589 49.1757 23.1912 51.4673C22.31 52.5485 21.5701 53.4332 21.0351 54.0653C20.5327 53.5051 19.8555 52.7386 19.054 51.8031C17.2651 49.7151 14.8615 46.7906 12.4005 43.4428C9.9373 40.0922 7.42998 36.3357 5.4245 32.5826C3.41082 28.8142 1.94612 25.1278 1.4953 21.9031C0.495974 14.7549 3.1256 9.66198 7.09051 6.31084C11.1123 2.91163 16.5499 1.28 21.0651 1.28C25.5754 1.28 30.8056 2.88656 34.7247 6.26923C38.5973 9.61175 41.2488 14.733 40.6272 21.9707Z" />
    </symbol>
    <symbol id="face-sign" viewBox="0 0 10 20">
        <path fill-rule="evenodd" clip-rule="evenodd"
            d="M2.77778 9.69745V20H6.11111V9.69745H10V6.06125H6.11145C6.12589 4.18819 6.53656 3.86805 6.57222 3.84019L6.57289 3.83972C6.62833 3.79629 6.74767 3.72993 7.02467 3.6866C7.31989 3.64043 7.66022 3.63712 8.14811 3.63712H10V0.000929867H8.14811C8.10367 0.000929867 8.05689 0.000723802 8.00778 0.000493509C7.19567 -0.00313056 5.774 -0.00946976 4.63089 0.884343C3.29332 1.9302 2.79221 3.74119 2.77809 6.06125H0V9.69745H2.77778Z" />
    </symbol>
    <symbol id="vk-sign" viewBox="0 0 23 13">
        <path
            d="M11.2539 12.9451H12.6283C12.6283 12.9451 13.0436 12.8998 13.2551 12.6733C13.4508 12.4655 13.4433 12.075 13.4433 12.075C13.4433 12.075 13.4162 10.248 14.273 9.97871C15.1169 9.71385 16.2007 11.745 17.3494 12.5266C18.2177 13.1174 18.8777 12.988 18.8777 12.988L21.9498 12.9452C21.9498 12.9452 23.5569 12.847 22.795 11.5952C22.7333 11.4929 22.3508 10.6696 20.5107 8.97765C18.5843 7.20601 18.8428 7.49363 21.1632 4.43036C22.5764 2.56486 23.1416 1.42551 22.9646 0.938456C22.7964 0.474212 21.7572 0.596785 21.7572 0.596785L18.301 0.616832C18.301 0.616832 18.045 0.582498 17.854 0.695071C17.6683 0.806025 17.549 1.0625 17.549 1.0625C17.549 1.0625 17.0014 2.50638 16.2711 3.73435C14.7313 6.32457 14.1148 6.46138 13.863 6.30028C13.2778 5.9259 13.4247 4.7935 13.4247 3.99035C13.4247 1.47956 13.8086 0.432973 12.6757 0.162446C12.2989 0.0726827 12.023 0.0128248 11.0614 0.00301517C9.82772 -0.00993737 8.78259 0.00720571 8.19194 0.293352C7.79794 0.484259 7.49447 0.910169 7.67995 0.934264C7.90856 0.964217 8.42605 1.07236 8.70074 1.44279C9.05593 1.9198 9.04287 2.99372 9.04287 2.99372C9.04287 2.99372 9.24686 5.94842 8.56689 6.31614C8.09958 6.56814 7.4601 6.0538 6.08705 3.70263C5.38414 2.49943 4.85225 1.1677 4.85225 1.1677C4.85225 1.1677 4.75021 0.920217 4.56762 0.787692C4.34619 0.62669 4.03553 0.575641 4.03553 0.575641L0.749444 0.595308C0.749444 0.595308 0.256157 0.609832 0.0750184 0.821692C-0.0858758 1.01141 0.0621006 1.40151 0.0621006 1.40151C0.0621006 1.40151 2.6354 7.36415 5.54827 10.3703C8.22066 13.126 11.2539 12.9451 11.2539 12.9451Z" />
    </symbol>
    <symbol id="phone-icon" viewBox="0 0 16 16">
        <path
            d="M4.90321 11.0968C7.32459 13.518 10.6146 15.9998 12.7942 15.9995C13.1523 16.0074 13.5066 15.9247 13.8241 15.7589C14.7162 15.2723 15.4024 14.3388 15.8638 12.9841C16.0328 12.4882 16.1738 11.7682 15.4509 11.2435L12.9691 9.44251C12.2206 8.89986 11.5545 9.64108 11.0678 10.1822C10.5088 10.8042 10.3011 10.9479 10.1426 10.8212C8.82701 9.77088 6.22885 7.17296 5.17862 5.85723C5.0522 5.69878 5.19547 5.49127 5.81748 4.93213C6.35875 4.44549 7.10023 3.77903 6.55723 3.03088L4.75613 0.549298C4.2317 -0.173845 3.5114 -0.0327583 3.01547 0.136107C1.66065 0.597659 0.727111 1.284 0.240534 2.17594C-0.868565 4.20986 2.05917 8.25268 4.90321 11.0968ZM1.02109 2.60154C1.39757 1.91147 2.16492 1.36509 3.30216 0.977691C3.43738 0.925273 3.58002 0.894507 3.72483 0.886527C3.78896 0.884652 3.8523 0.90103 3.90748 0.933754C3.96266 0.966479 4.00741 1.0142 4.03652 1.07137L5.83762 3.55303C5.84596 3.5645 5.84926 3.5711 5.84926 3.5711C5.84683 3.71019 5.44118 4.07485 5.22308 4.27098C4.65542 4.78124 3.79758 5.55232 4.48367 6.41187C5.56378 7.76475 8.23504 10.436 9.58794 11.516C10.4477 12.2019 11.2187 11.3442 11.729 10.7766C11.9254 10.5581 12.2912 10.1513 12.4263 10.15C12.4336 10.153 12.4405 10.1571 12.4467 10.1621L14.9285 11.9631C15.0826 12.0748 15.2043 12.1631 15.0223 12.6974C14.6351 13.8345 14.0886 14.6019 13.3984 14.9784C12.139 15.6643 8.83169 13.7676 5.53183 10.4681C2.23196 7.16827 0.335005 3.85996 1.02109 2.60154Z" />
    </symbol>
    <symbol id="email-icon" viewBox="0 0 16 12">
        <path d="M3.33333 3.77778L8.1052 7.11111L12.6667 3.77778M1 1L15 1L15 11L1 11L1 1Z" stroke-linecap="round"
            stroke-linejoin="round" />
    </symbol>
    <symbol id="arrow-slid" viewBox="0 0 20 18">
        <path d="M11 17L19 9M19 9L11 1M19 9L1 9" stroke-linecap="round" stroke-linejoin="round" />
    </symbol>
    <symbol id="arrow-select" viewBox="0 0 16 9">
        <path d="M1 1L8 8L15 1" stroke-linecap="round" stroke-linejoin="round" />
    </symbol>
    <symbol id="burger-menu" viewBox="0 0 22 13">
        <path d="M1 0.5H21M1 6.5H21M1 12.5H21" stroke-linecap="round" stroke-linejoin="round"/>
    </symbol>
    <symbol id="safety_family_icon" viewBox="0 0 70 70">
        <path fill-rule="evenodd" clip-rule="evenodd" d="M67.1465 45.4656L59.1133 42.2523C59.0698 42.2349 59.0296 42.2127 58.9889 42.1914C64.5374 40.9289 67.1651 38.8177 67.2817 38.7222C67.5591 38.4948 67.6976 38.1391 67.6469 37.784C67.6353 37.7028 66.4856 29.5624 66.4856 21.5275C66.4856 13.8562 60.2445 7.61505 52.5732 7.61505C44.9018 7.61505 38.6609 13.856 38.6609 21.5275C38.6609 23.6294 38.5654 26.2003 38.4101 28.634L36.1716 29.7534L29.6009 26.4681C29.582 26.4587 29.5622 26.4519 29.5429 26.4437C29.8554 25.5327 30.0598 24.5721 30.1349 23.5753C31.5093 23.1506 32.5108 21.8681 32.5108 20.3559C32.5108 19.3375 32.0558 18.424 31.3393 17.8057V10.9834C31.3393 9.09873 30.387 7.33532 28.8254 6.27574C28.2963 4.30972 26.5299 2.92871 24.4561 2.92871H15.0837C9.99639 2.92871 5.85748 7.06762 5.85748 12.155V17.8056C5.14093 18.4237 4.68593 19.3374 4.68593 20.3558C4.68593 21.8679 5.6874 23.1505 7.06184 23.5751C7.32079 27.0176 9.09486 30.0422 11.7152 31.9889V34.8231L3.23533 37.367C1.3002 37.9476 0 39.6951 0 41.7155V53.1591C0 53.7253 0.459104 54.1845 1.0254 54.1845H1.17155V66.0461C1.17155 66.6124 1.63065 67.0715 2.19695 67.0715C2.76324 67.0715 3.22234 66.6124 3.22234 66.0461V54.1845H7.0293V66.0461C7.0293 66.6124 7.4884 67.0715 8.0547 67.0715C8.62099 67.0715 9.08009 66.6124 9.08009 66.0461V48.3655C9.08009 47.4662 8.81636 46.5953 8.31761 45.8472L6.56486 43.218C6.25068 42.7468 5.61398 42.6196 5.14298 42.9335C4.67171 43.2476 4.54442 43.8843 4.8586 44.3555L6.61135 46.9848C6.88479 47.395 7.02944 47.8724 7.02944 48.3655V52.1337H2.19695H2.05079V41.7155C2.05079 40.6077 2.76365 39.6497 3.82487 39.3312L7.34498 38.2752L9.31388 37.6846L11.8472 36.9246C12.4721 40.0812 15.2613 42.469 18.5986 42.469C21.2487 42.469 23.5521 40.9627 24.7019 38.7622C24.6362 39.2602 24.6024 39.7644 24.6024 40.272V41.2459C23.8682 41.8798 23.4309 42.8076 23.4309 43.7865C23.4309 43.7865 23.3598 44.2831 23.4868 44.6711C23.6139 45.0591 24.0816 45.7736 24.0816 45.7736C24.6951 46.6105 25.6845 47.1552 26.7994 47.1552H26.9455V47.3013C26.9455 50.7388 28.8366 53.7412 31.6317 55.3284V57.0009C31.6317 57.0638 31.5915 57.1196 31.5318 57.1395L27.7068 58.4146C25.85 59.0335 24.6024 60.7644 24.6024 62.7216V66.0461C24.6024 66.6124 25.0615 67.0715 25.6278 67.0715C26.1941 67.0715 26.6532 66.6124 26.6532 66.0461V62.7216C26.6532 61.6485 27.3372 60.6994 28.3552 60.3602L29.48 59.9852C30.9681 62.2044 33.4707 63.557 36.1716 63.557C38.8754 63.557 41.3757 62.2052 42.8635 59.9853L43.988 60.3602C45.006 60.6996 45.69 61.6485 45.69 62.7216V66.0461C45.69 66.6124 46.1491 67.0715 46.7154 67.0715C47.2817 67.0715 47.7408 66.6124 47.7408 66.0461V62.7216C47.7408 60.7644 46.4933 59.0335 44.6365 58.4147L40.8115 57.1397C40.7517 57.1197 40.7115 57.064 40.7115 57.001V55.3285C42.8043 54.1402 44.3883 52.1583 45.0528 49.794C46.9905 51.8215 49.6969 53.0132 52.573 53.0132C57.1138 53.0132 61.0979 50.0779 62.4703 45.8042L66.3845 47.3698C67.3351 47.75 67.9492 48.6573 67.9492 49.6809V54.4769H67.8031H64.1423V53.1592C64.1423 52.5929 63.6831 52.1338 63.1169 52.1338C62.5506 52.1338 62.0915 52.5929 62.0915 53.1592V66.0462C62.0915 66.6125 62.5506 67.0716 63.1169 67.0716C63.6831 67.0716 64.1423 66.6125 64.1423 66.0462V56.5277H66.7777V66.0462C66.7777 66.6125 67.2368 67.0716 67.8031 67.0716C68.3693 67.0716 68.8284 66.6125 68.8284 66.0462V56.5277H68.9746C69.2465 56.5277 69.5073 56.4197 69.6996 56.2275C69.892 56.0351 70 55.7744 70 55.5023V49.6809C70.0004 47.8136 68.8803 46.159 67.1465 45.4656ZM52.5735 9.6657C46.0329 9.6657 40.7118 14.9868 40.7118 21.5274C40.7118 23.4094 40.65 25.4397 40.5286 27.5751L42.7425 26.4683C43.0605 26.3093 43.4379 26.3263 43.7401 26.5131C44.0424 26.6999 44.2264 27.0299 44.2264 27.3854V31.9689C45.4855 33.1912 46.4397 34.6746 47.0337 36.2959C48.6552 37.4596 50.5659 38.0753 52.5735 38.0753C54.7757 38.0753 56.8432 37.3453 58.5522 35.9638C60.2132 34.6213 61.3864 32.7425 61.856 30.6733C62.0126 29.9835 62.092 29.2714 62.092 28.5569C62.092 24.6279 59.8311 23.9961 55.4986 23.136L55.4976 23.1358C53.2562 22.6908 50.7657 22.1964 48.5424 20.8789C48.0043 22.2423 46.6847 24.0569 43.4499 24.8656C42.9005 25.0028 42.3437 24.669 42.2064 24.1196C42.069 23.5701 42.403 23.0134 42.9525 22.876C46.8173 21.9098 46.862 19.2117 46.862 19.1845C46.862 18.7902 47.0878 18.4311 47.4432 18.2603C47.7985 18.0895 48.2202 18.1375 48.5279 18.3838C50.6517 20.0828 53.3187 20.6123 55.8979 21.1243C59.9514 21.929 64.1428 22.7611 64.1428 28.5568C64.1428 29.4237 64.0463 30.2885 63.856 31.127C63.285 33.6434 61.8592 35.9276 59.8415 37.5585C59.3512 37.9548 58.8297 38.3071 58.285 38.6158V40.2475C62.2621 39.3775 64.6148 38.0535 65.5336 37.4523C65.2642 35.3735 64.435 28.413 64.435 21.5274C64.435 14.9868 59.114 9.6657 52.5735 9.6657ZM42.1757 32.7552V29.0442L38.4645 30.8998L42.1757 32.7552ZM33.8788 30.8998L30.1679 29.0442V32.7552L33.8788 30.8998ZM13.7663 33.2089V35.5842L13.7666 35.5988C13.7738 38.2573 15.9385 40.418 18.5986 40.418C21.2633 40.418 23.431 38.2502 23.431 35.5857V33.2091C21.9596 33.8883 20.3227 34.2681 18.5986 34.2681C16.8745 34.2681 15.2377 33.8884 13.7663 33.2089ZM9.08009 22.6989C9.08009 27.9474 13.35 32.2173 18.5986 32.2173C23.8473 32.2173 28.1172 27.9473 28.1172 22.6988C28.1172 22.1325 28.5763 21.6734 29.1426 21.6734C29.8693 21.6734 30.4603 21.0823 30.4603 20.3557C30.4603 19.629 29.8691 19.038 29.1426 19.038H27.971C27.4048 19.038 26.9456 18.5789 26.9456 18.0126C26.9456 17.4463 27.4048 16.9872 27.971 16.9872H29.1426C29.1917 16.9872 29.2402 16.9887 29.2887 16.9909V10.9833C29.2887 9.67883 28.5695 8.46298 27.4117 7.81001C27.1392 7.65634 26.9518 7.38672 26.9027 7.07774C26.7095 5.86203 25.6809 4.9795 24.4564 4.9795H15.084C11.1275 4.9795 7.90854 8.19843 7.90854 12.155V16.9911C7.95708 16.9891 8.00575 16.9874 8.0547 16.9874H9.65869L10.5964 14.174C10.7359 13.7553 11.1277 13.4729 11.5691 13.4728C11.6604 13.4728 20.7558 13.4446 25.1692 11.238C25.6759 10.9846 26.2917 11.19 26.5449 11.6965C26.7983 12.2031 26.5929 12.8189 26.0864 13.0722C21.9729 15.129 14.6681 15.4603 12.3117 15.5135L11.3706 18.337C11.231 18.7558 10.8391 19.0381 10.3978 19.0381H8.0547C7.32803 19.0381 6.73699 19.6293 6.73699 20.3558C6.73699 21.0823 7.32817 21.6735 8.0547 21.6735C8.62099 21.6735 9.08009 22.1326 9.08009 22.6989ZM25.4817 31.9889V35.586C25.4817 35.6815 25.4784 35.7764 25.4744 35.8711C26.0736 34.4154 26.9688 33.0836 28.1171 31.9688V29.2643C27.3933 30.3105 26.5017 31.231 25.4817 31.9889ZM36.1718 61.5061C37.9926 61.5061 39.6885 60.6822 40.8173 59.3031L40.1633 59.085C39.2646 58.7856 38.661 57.9479 38.6611 57.001V56.1837C37.8687 56.4062 37.0345 56.5277 36.1719 56.5277C35.3093 56.5277 34.4751 56.4062 33.6826 56.1837V57.001C33.6826 57.9481 33.0789 58.7858 32.1804 59.0852L31.5268 59.303C32.6561 60.6816 34.3531 61.5061 36.1718 61.5061ZM43.3473 46.1298C43.3473 45.5635 43.8064 45.1044 44.3727 45.1044H45.5443C46.2708 45.1044 46.862 44.5132 46.862 43.7867C46.862 43.3191 46.6145 42.8961 46.2 42.6548C45.8843 42.4711 45.6903 42.1336 45.6903 41.7685V40.272C45.6903 38.3649 45.1128 36.518 44.0664 34.9609C43.9845 35.0905 43.8749 35.2033 43.7403 35.2865C43.5757 35.3883 43.3888 35.4397 43.2012 35.4397C43.0445 35.4397 42.8874 35.4037 42.7426 35.3314L36.1719 32.046L29.6011 35.3314C29.4564 35.4037 29.2993 35.4397 29.1426 35.4397C28.9552 35.4397 28.7683 35.3883 28.6035 35.2865C28.4687 35.2033 28.3592 35.0906 28.2773 34.9609C27.2308 36.518 26.6533 38.3649 26.6533 40.272V40.3912C29.3563 40.2831 36.79 39.7418 41.5208 37.0386C42.0123 36.7576 42.6389 36.9284 42.9198 37.4202C43.2008 37.912 43.0299 38.5383 42.5382 38.8192C37.138 41.9051 28.9212 42.3821 26.3865 42.4556C26.3167 42.5327 26.2362 42.6009 26.1436 42.6548C25.7292 42.8959 25.4818 43.3191 25.4818 43.7867C25.4818 44.5133 26.073 45.1044 26.7995 45.1044H27.971C28.5373 45.1044 28.9964 45.5635 28.9964 46.1298V47.3013C28.9964 51.2578 32.2152 54.4768 36.1718 54.4768C40.1283 54.4768 43.3472 51.2578 43.3473 47.3013V47.1759C43.3472 47.1671 43.3473 47.1582 43.3473 47.1493V46.1298ZM45.5677 47.1546C47.1008 49.5168 49.7346 50.9621 52.5735 50.9621C56.2669 50.9621 59.5031 48.5446 60.5628 45.0408L58.3516 44.1563C57.0654 43.6419 56.2343 42.4141 56.2343 41.0288V39.5272C55.0602 39.9187 53.8237 40.1259 52.5735 40.1259C50.8557 40.1259 49.1957 39.7552 47.6752 39.0424C47.7188 39.449 47.7411 39.8594 47.7411 40.2721V41.246C48.4753 41.88 48.9126 42.8079 48.9126 43.7868C48.9126 45.6362 47.4142 47.1419 45.5677 47.1546Z"/>
    </symbol>
    <symbol id="safety_insurence_icon" viewBox="0 0 70 70">
        <path fill-rule="evenodd" clip-rule="evenodd" d="M35 5C28.3726 5 23 10.3726 23 17C23 17.3697 23.0167 17.7353 23.0493 18.096C23.0586 18.0969 23.068 18.0978 23.0774 18.0987C23.5744 18.1458 24.2649 18.1962 25.0382 18.2098C26.6281 18.2376 28.4035 18.1043 29.6009 17.5831C30.7335 17.0901 31.9917 15.9704 33.0206 14.8794C33.5211 14.3487 33.9428 13.8516 34.2392 13.4873C34.3871 13.3055 34.503 13.1576 34.5812 13.0563C34.6203 13.0057 34.6498 12.9668 34.6692 12.9412L34.6904 12.9129L34.6951 12.9066L34.6957 12.9057L35.5083 11.806L36.3098 12.9133L36.3106 12.9145L36.3153 12.9208L36.3362 12.9493C36.3554 12.9751 36.3846 13.0144 36.4234 13.0655C36.5008 13.1678 36.6158 13.317 36.7627 13.5004C37.057 13.8679 37.476 14.3688 37.9742 14.9014C39.0002 15.9983 40.2518 17.1091 41.3817 17.5757C42.4263 18.0071 43.968 18.1367 45.3507 18.1338C45.972 18.1325 46.5312 18.1049 46.9525 18.0756C46.9839 17.7215 47 17.3627 47 17C47 10.3726 41.6274 5 35 5ZM46.5959 20.1005C46.2298 20.1191 45.8082 20.1328 45.3549 20.1338C43.9336 20.1367 42.0517 20.0163 40.6183 19.4243C39.0652 18.7829 37.5668 17.3936 36.5136 16.2676C36.121 15.8479 35.7751 15.448 35.4934 15.1085C35.2116 15.4432 34.8664 15.8373 34.4756 16.2516C33.4199 17.371 31.928 18.7513 30.3991 19.4169C28.781 20.1213 26.6329 20.238 25.0031 20.2095C24.4133 20.1991 23.8698 20.169 23.4132 20.1345C24.7912 25.2416 29.4575 29 35 29C40.4788 29 45.1025 25.3274 46.5386 20.3078C46.5583 20.239 46.5774 20.1699 46.5959 20.1005ZM21.3126 19.9548C21.2557 19.6901 21.2063 19.4226 21.1646 19.1526C21.0562 18.4503 21 17.7314 21 17C21 9.26801 27.268 3 35 3C42.732 3 49 9.26801 49 17C49 17.7314 48.9438 18.4503 48.8354 19.1526C48.7937 19.4226 48.7443 19.69 48.6874 19.9547C48.6221 20.3429 48.5447 20.8539 48.4796 21.4255C48.3323 22.7209 48.2629 24.2153 48.4806 25.3039C48.6377 26.0893 49.169 27.0785 49.7343 27.9412C50.0064 28.3565 50.2678 28.7148 50.461 28.969C50.5573 29.0958 50.6361 29.1958 50.6899 29.2631C50.7167 29.2967 50.7374 29.3221 50.7508 29.3386L50.7654 29.3564L50.7684 29.36C50.7683 29.3599 50.7684 29.3601 50 30C49.2316 30.6399 49.2315 30.6398 49.2313 30.6397L49.2304 30.6386L49.2286 30.6363L49.2225 30.629L49.2017 30.6037C49.1841 30.5821 49.1591 30.5512 49.1276 30.5119C49.0647 30.4332 48.9759 30.3203 48.8686 30.1792C48.6547 29.8976 48.365 29.5006 48.0614 29.0373C47.4753 28.1428 46.7566 26.882 46.5194 25.6961C46.4805 25.5015 46.4489 25.3003 46.4238 25.0946C43.8875 28.6679 39.7168 31 35 31C30.2836 31 26.1127 28.6683 23.5762 25.0947C23.5511 25.3003 23.5195 25.5015 23.4806 25.6961C23.2434 26.882 22.5247 28.1428 21.9386 29.0373C21.635 29.5006 21.3453 29.8976 21.1314 30.1792C21.0241 30.3203 20.9353 30.4332 20.8724 30.5119C20.8409 30.5512 20.8159 30.5821 20.7983 30.6037L20.7775 30.629L20.7714 30.6363L20.7689 30.6394C20.7688 30.6395 20.7684 30.6399 20 30C19.2316 29.3601 19.2315 29.3602 19.2314 29.3603L19.2346 29.3564L19.2492 29.3386C19.2626 29.3221 19.2833 29.2967 19.3101 29.2631C19.3639 29.1958 19.4427 29.0958 19.539 28.969C19.7322 28.7148 19.9936 28.3565 20.2657 27.9412C20.831 27.0785 21.3623 26.0893 21.5194 25.3039C21.7371 24.2153 21.6677 22.7209 21.5204 21.4255C21.4553 20.854 21.3779 20.343 21.3126 19.9548ZM35 35C24.8256 35 17 41.4754 17 49H15C15 39.956 24.1875 33 35 33C45.8125 33 55 39.956 55 49H53C53 41.4754 45.1744 35 35 35ZM2 58C2 54.6863 4.68629 52 8 52H62C65.3137 52 68 54.6863 68 58V68H66V58C66 55.7909 64.2091 54 62 54H8C5.79086 54 4 55.7909 4 58V68H2V58Z"/>
    </symbol>
    <symbol id="safety-play-btn_1" viewBox="0 0 100 100">
       <circle cx="50" cy="50" r="48" stroke-width="4"/>
    </symbol>
    <symbol id="safety-play-btn_2" viewBox="0 0 38 44">
       <path d="M38 22L0.500002 43.6506L0.500004 0.349364L38 22Z"/>
    </symbol>
    <symbol id="safety-save-money" viewBox="0 0 50 50">
       <path d="M25.6526 27.288C25.5601 27.268 25.4652 27.2644 25.3715 27.2784C24.4324 27.1691 23.724 26.3745 23.7224 25.4294C23.7224 24.9765 23.3552 24.6093 22.9023 24.6093C22.4493 24.6093 22.0821 24.9765 22.0821 25.4294C22.0845 27.0077 23.1401 28.3901 24.6619 28.8077V29.6279C24.6619 30.0808 25.0291 30.448 25.482 30.448C25.935 30.448 26.3022 30.0808 26.3022 29.6279V28.8574C28.0586 28.4898 29.2524 26.8539 29.0678 25.069C28.8827 23.2842 27.379 21.9278 25.5845 21.9274C24.5562 21.9274 23.7224 21.0937 23.7224 20.0653C23.7224 19.0369 24.5562 18.2031 25.5845 18.2031C26.6129 18.2031 27.4467 19.0369 27.4467 20.0653C27.4467 20.5182 27.8139 20.8854 28.2668 20.8854C28.7198 20.8854 29.087 20.5182 29.087 20.0653C29.0846 18.4082 27.9236 16.9789 26.3022 16.6369V15.8905C26.3022 15.4375 25.935 15.0703 25.482 15.0703C25.0291 15.0703 24.6619 15.4375 24.6619 15.8905V16.687C22.9695 17.1491 21.8803 18.7922 22.1134 20.531C22.3464 22.2698 23.8301 23.5677 25.5845 23.5673C26.5993 23.5673 27.4271 24.3798 27.4455 25.3942C27.4643 26.4086 26.6666 27.2511 25.6526 27.288Z"/>
       <path d="M13.6914 22.8104C13.6914 29.3787 19.0159 34.7033 25.5843 34.7033C32.1527 34.7033 37.4772 29.3787 37.4772 22.8104C37.4772 16.242 32.1527 10.9175 25.5843 10.9175C19.0191 10.9247 13.699 16.2452 13.6914 22.8104ZM25.5843 12.5578C31.2468 12.5578 35.8369 17.1479 35.8369 22.8104C35.8369 28.4729 31.2468 33.063 25.5843 33.063C19.9218 33.063 15.3317 28.4729 15.3317 22.8104C15.3381 17.1507 19.9246 12.5642 25.5843 12.5578Z"/>
       <path d="M41.5207 36.7252L35.0961 39.7607C34.2091 38.1108 32.5075 37.0608 30.6349 37.0079L24.7041 36.8449C23.765 36.8181 22.8436 36.5802 22.0086 36.1489L21.4051 35.8362C18.3152 34.2255 14.6321 34.2295 11.5454 35.8466L11.583 34.4794C11.5954 34.0265 11.2386 33.6493 10.7857 33.6368L4.28221 33.4578C3.82929 33.4454 3.45246 33.8022 3.44004 34.2552L3.04719 48.5268C3.03478 48.9797 3.39159 49.3569 3.84451 49.3694L10.348 49.5484H10.3704C10.8149 49.5484 11.1786 49.1948 11.1906 48.7506L11.2094 48.0679L12.8989 47.1632C13.5621 46.8064 14.3374 46.7215 15.0618 46.9265L25.151 49.7582C25.1687 49.7634 25.1863 49.7674 25.2043 49.7714C25.9335 49.924 26.6768 50.0005 27.4216 50.0001C28.9995 50.0009 30.5589 49.6609 31.9929 49.0025C32.0282 48.9865 32.0622 48.9677 32.0946 48.9465L46.7231 39.4844C47.0875 39.2485 47.2052 38.7699 46.9918 38.3919C45.9057 36.4649 43.497 35.7309 41.5207 36.7252ZM4.7095 47.7523L5.0571 35.1201L9.9207 35.2539L9.5731 47.8864L4.7095 47.7523ZM31.2541 47.5376C29.4724 48.3418 27.4825 48.5636 25.5675 48.1724L15.5055 45.3479C14.373 45.028 13.1608 45.1605 12.1248 45.7175L11.2614 46.1801L11.4925 37.7812C14.2285 35.9615 17.7373 35.7745 20.6511 37.2926L21.2546 37.6054C22.3094 38.15 23.4727 38.4504 24.6593 38.4848L30.5905 38.6478C32.2564 38.6959 33.6712 39.882 34.0092 41.5143L25.1747 41.2704C24.7217 41.258 24.3449 41.6152 24.3321 42.0677C24.3197 42.5207 24.6769 42.8979 25.1294 42.9103L34.879 43.1786H34.9019C35.346 43.1782 35.7092 42.8246 35.7212 42.3809C35.7312 42.0245 35.7048 41.6677 35.6419 41.3169L42.2315 38.2033C42.2379 38.2005 42.2443 38.1973 42.2507 38.1941C43.1854 37.7211 44.3155 37.8793 45.0844 38.5909L31.2541 47.5376Z"/>
       <path d="M26.404 8.61152V0.820144C26.404 0.367223 26.0367 0 25.5838 0C25.1309 0 24.7637 0.367223 24.7637 0.820144V8.61152C24.7637 9.06444 25.1309 9.43166 25.5838 9.43166C26.0367 9.43166 26.404 9.06444 26.404 8.61152Z"/>
       <path d="M32.5563 8.61138V4.92073C32.5563 4.46781 32.1891 4.10059 31.7362 4.10059C31.2832 4.10059 30.916 4.46781 30.916 4.92073V8.61138C30.916 9.0643 31.2832 9.43152 31.7362 9.43152C32.1891 9.43152 32.5563 9.0643 32.5563 8.61138Z"/>
       <path d="M20.2536 8.61138V4.92073C20.2536 4.46781 19.8863 4.10059 19.4334 4.10059C18.9805 4.10059 18.6133 4.46781 18.6133 4.92073V8.61138C18.6133 9.0643 18.9805 9.43152 19.4334 9.43152C19.8863 9.43152 20.2536 9.0643 20.2536 8.61138Z"/>
       <defs>
       <clipPath>
       <rect width="50" height="50" fill="white"/>
       </clipPath>
       </defs>
    </symbol>
    <symbol id="safety-shopping-cart" viewBox="0 0 50 50">
        <path d="M21.4261 37.6997C19.2785 37.6997 17.5312 39.4469 17.5312 41.5945C17.5312 43.7421 19.2785 45.4893 21.4261 45.4893C23.5737 45.4893 25.3209 43.7421 25.3209 41.5945C25.3208 39.4469 23.5736 37.6997 21.4261 37.6997ZM21.4261 43.3145C20.4775 43.3145 19.7059 42.5428 19.7059 41.5943C19.7059 40.6458 20.4776 39.8742 21.4261 39.8742C22.3745 39.8742 23.1462 40.6459 23.1462 41.5943C23.1462 42.5429 22.3745 43.3145 21.4261 43.3145Z"/>
        <path d="M35.0882 37.6997C32.9406 37.6997 31.1934 39.4469 31.1934 41.5945C31.1934 43.7421 32.9406 45.4893 35.0882 45.4893C37.2358 45.4893 38.983 43.7421 38.983 41.5945C38.9829 39.4469 37.2357 37.6997 35.0882 37.6997ZM35.0882 43.3145C34.1397 43.3145 33.368 42.5428 33.368 41.5943C33.368 40.6458 34.1397 39.8742 35.0882 39.8742C36.0367 39.8742 36.8083 40.6459 36.8083 41.5943C36.8083 42.5429 36.0366 43.3145 35.0882 43.3145Z"/>
        <path d="M36.0464 17.1943H20.4643C19.8638 17.1943 19.377 17.6811 19.377 18.2817C19.377 18.8822 19.8638 19.369 20.4643 19.369H36.0464C36.6469 19.369 37.1337 18.8822 37.1337 18.2817C37.1337 17.681 36.6469 17.1943 36.0464 17.1943Z"/>
        <path d="M35.1978 22.8408H21.3119C20.7114 22.8408 20.2246 23.3276 20.2246 23.9282C20.2246 24.5287 20.7114 25.0155 21.3119 25.0155H35.1977C35.7982 25.0155 36.285 24.5287 36.285 23.9282C36.285 23.3277 35.7982 22.8408 35.1978 22.8408Z"/>
        <path d="M46.6537 12.3498C46.239 11.8409 45.6246 11.5491 44.968 11.5491H11.0986L10.4146 8.22858C10.2718 7.53593 9.79933 6.95433 9.15053 6.67262L4.37797 4.60105C3.82699 4.36171 3.18666 4.61454 2.94768 5.16534C2.70843 5.71632 2.96126 6.35673 3.51197 6.59572L8.28462 8.66738L13.5458 34.2062C13.753 35.2119 14.6488 35.9419 15.6758 35.9419H41.7253C42.3258 35.9419 42.8126 35.4551 42.8126 34.8546C42.8126 34.2541 42.3258 33.7673 41.7253 33.7673H15.6758L15.0359 30.6607H41.9266C42.9535 30.6607 43.8493 29.9307 44.0565 28.9249L47.0979 14.1623C47.2304 13.5194 47.0684 12.8587 46.6537 12.3498ZM41.9266 28.4862H14.5879L11.5466 13.7236L44.9679 13.7237L41.9266 28.4862Z"/>
    </symbol>
    <symbol id="safety-truck" viewBox="0 0 50 50">
       <path d="M11.666 32.917C8.9085 32.917 6.66602 35.1595 6.66602 37.917C6.66602 40.6745 8.9085 42.917 11.666 42.917C14.4235 42.917 16.666 40.6745 16.666 37.917C16.666 35.1595 14.4234 32.917 11.666 32.917ZM11.666 41.2503C9.82764 41.2503 8.33271 39.7553 8.33271 37.917C8.33271 36.0786 9.82773 34.5837 11.666 34.5837C13.5043 34.5837 14.9993 36.0787 14.9993 37.917C14.9993 39.7553 13.5043 41.2503 11.666 41.2503Z" />
       <path d="M40 32.917C37.2425 32.917 35 35.1595 35 37.917C35 40.6745 37.2425 42.917 40 42.917C42.7575 42.917 45 40.6745 45 37.917C45 35.1595 42.7575 32.917 40 32.917ZM40 41.2503C38.1616 41.2503 36.6667 39.7553 36.6667 37.917C36.6667 36.0786 38.1617 34.5837 40 34.5837C41.8384 34.5837 43.3333 36.0787 43.3333 37.917C43.3333 39.7553 41.8384 41.2503 40 41.2503Z" />
       <path d="M49.8668 28.2992L42.3668 16.6325C42.2135 16.3941 41.9493 16.25 41.6659 16.25H32.4993C32.0385 16.25 31.666 16.6233 31.666 17.0833V37.9166C31.666 38.3774 32.0385 38.7499 32.4993 38.7499H35.8326V37.0832H33.3326V17.9167H41.2109L48.3326 28.995V37.0834H44.1659V38.75H49.1659C49.6268 38.75 49.9992 38.3775 49.9992 37.9167V28.75C49.9993 28.5908 49.9535 28.4333 49.8668 28.2992Z" />
       <path d="M36.6666 27.0835V21.2502H43.3333V19.5835H35.8333C35.3725 19.5835 35 19.9568 35 20.4168V27.9168C35 28.3776 35.3725 28.7501 35.8333 28.7501H48.3333V27.0834H36.6666V27.0835Z" />
       <path d="M32.5 10.417H0.833301C0.37334 10.417 0 10.7903 0 11.2503V37.917C0 38.3778 0.37334 38.7503 0.833301 38.7503H7.5V37.0836H1.6667V12.0836H31.6667V37.0836H15.8333V38.7503H32.5C32.9608 38.7503 33.3333 38.3778 33.3333 37.917V11.2503C33.3333 10.7903 32.9608 10.417 32.5 10.417Z" />
       <path d="M5.83398 33.75H0.833984V35.4167H5.83398V33.75Z" />
       <path d="M31.6667 33.75H17.5V35.4167H31.6667V33.75Z" />
       <path d="M49.1673 33.75H45.834V35.4167H49.1673V33.75Z" />
       <path d="M32.5007 13.75H3.33398V15.4167H32.5007V13.75Z" />
       <path d="M12.5007 37.0835H10.834V38.7502H12.5007V37.0835Z" />
       <path d="M40.8327 37.0835H39.166V38.7502H40.8327V37.0835Z" />
       <path d="M15.0007 7.08301H3.33398V8.74971H15.0007V7.08301Z" />
       <path d="M1.6667 7.08301H0V8.74971H1.6667V7.08301Z" />
    </symbol>
    <symbol id="career_growing" viewBox="0 0 70 70">
       <path fill-rule="evenodd" clip-rule="evenodd" d="M41.3867 45.1554C41.3867 39.5467 36.8245 35 31.1968 35H30.145L21.6932 39.9815L13.2413 35H12.1896C6.56183 35 1.99963 39.5467 1.99963 45.1554V62.6774H23.2899V61.3093H3.37237V45.1554C3.37237 40.3023 7.31997 36.3681 12.1896 36.3681H12.8658L21.6932 41.5709L30.5206 36.3681H31.1968C36.0664 36.3681 40.014 40.3023 40.014 45.1554H41.3867Z"/>
       <path fill-rule="evenodd" clip-rule="evenodd" d="M21.6936 30.4223C15.6113 30.4223 10.7779 25.506 10.7779 19.5642C10.7779 13.6224 15.6113 8.70614 21.6936 8.70614C27.776 8.70614 32.6093 13.6224 32.6093 19.5642C32.6093 25.506 27.776 30.4223 21.6936 30.4223ZM21.6936 31.8061C14.9326 31.8061 9.45168 26.3252 9.45168 19.5642C9.45168 12.8032 14.9326 7.32227 21.6936 7.32227C28.4546 7.32227 33.9355 12.8032 33.9355 19.5642C33.9355 26.3252 28.4546 31.8061 21.6936 31.8061Z" />
       <path fill-rule="evenodd" clip-rule="evenodd" d="M55.2642 40.3223H68.0006V41.2732H56.2128V47.6787H40.7584V54.0842H25.304V62.6771H24.3555V53.1333H39.8098V46.7278H55.2642V40.3223Z" />
    </symbol>
    <symbol id="company_sale" viewBox="0 0 70 70">
       <path fill-rule="evenodd" clip-rule="evenodd" d="M27.6484 44.7403C27.6484 38.6889 32.5541 33.7832 38.6055 33.7832H39.7364L48.8246 39.1579L57.9127 33.7832H59.0436C65.095 33.7832 70.0007 38.6889 70.0007 44.7403V63.6455H38.0378V62.1694H68.5246V44.7403C68.5246 39.5041 64.2798 35.2593 59.0436 35.2593H58.3165L48.8246 40.8728L39.3326 35.2593H38.6055C33.3693 35.2593 29.1245 39.5041 29.1245 44.7403H27.6484Z" />
       <path fill-rule="evenodd" clip-rule="evenodd" d="M48.8246 29.6392C55.5943 29.6392 60.9739 24.3954 60.9739 18.0577C60.9739 11.7199 55.5943 6.47608 48.8246 6.47608C42.0549 6.47608 36.6753 11.7199 36.6753 18.0577C36.6753 24.3954 42.0549 29.6392 48.8246 29.6392ZM48.8246 31.1153C56.3497 31.1153 62.45 25.2692 62.45 18.0577C62.45 10.8461 56.3497 5 48.8246 5C41.2995 5 35.1992 10.8461 35.1992 18.0577C35.1992 25.2692 41.2995 31.1153 48.8246 31.1153Z" />
       <path d="M14.372 41.1098C12.7295 42.777 10.7448 43.6106 8.41788 43.6106C6.09098 43.6106 4.10628 42.777 2.46377 41.1098C0.821256 39.4426 0 37.4282 0 35.0663C0 32.7393 0.821256 30.7248 2.46377 29.0229C4.1405 27.3904 6.1252 26.5742 8.41788 26.5742C10.7106 26.5742 12.6953 27.3904 14.372 29.0229C16.0145 30.7248 16.8358 32.7393 16.8358 35.0663C16.8358 37.4282 16.0145 39.4426 14.372 41.1098ZM31.875 26.9389L7.59662 64.919H5.49215L29.8219 26.9389H31.875ZM8.41788 28.1893C6.57005 28.1893 4.97887 28.8666 3.64433 30.2211C2.30978 31.5757 1.64251 33.1908 1.64251 35.0663C1.64251 36.9766 2.30978 38.6091 3.64433 39.9636C4.97887 41.3182 6.57005 41.9955 8.41788 41.9955C10.2999 41.9955 11.9082 41.3182 13.2428 39.9636C14.5431 38.5743 15.1932 36.9419 15.1932 35.0663C15.1932 33.2255 14.5431 31.6104 13.2428 30.2211C11.9082 28.8666 10.2999 28.1893 8.41788 28.1893ZM37.4698 56.6353C37.4698 58.9971 36.6486 61.0116 35.0061 62.6787C33.3635 64.3459 31.3788 65.1795 29.0519 65.1795C26.7593 65.1795 24.7746 64.3459 23.0978 62.6787C21.4553 61.0116 20.6341 58.9971 20.6341 56.6353C20.6341 54.3082 21.4553 52.2937 23.0978 50.5918C24.8088 48.9594 26.7935 48.1432 29.0519 48.1432C31.3446 48.1432 33.3293 48.9594 35.0061 50.5918C36.6486 52.2937 37.4698 54.3082 37.4698 56.6353ZM33.8255 51.7901C32.5252 50.4702 30.934 49.8103 29.0519 49.8103C27.1699 49.8103 25.5787 50.4702 24.2784 51.7901C22.9438 53.1446 22.2766 54.7597 22.2766 56.6353C22.2766 58.5456 22.9438 60.178 24.2784 61.5326C25.6472 62.8524 27.2383 63.5123 29.0519 63.5123C30.8656 63.5123 32.4567 62.8524 33.8255 61.5326C35.16 60.178 35.8273 58.5456 35.8273 56.6353C35.8273 54.7597 35.16 53.1446 33.8255 51.7901Z"/>
    </symbol>
    <symbol id="free_work" viewBox="0 0 70 70">
       <path fill-rule="evenodd" clip-rule="evenodd" d="M34.9271 32.2757C33.546 32.524 32.498 33.7318 32.498 35.1844C32.498 36.8166 33.8212 38.1398 35.4534 38.1398C36.906 38.1398 38.1139 37.0918 38.3621 35.7107H51.6474V34.6581H38.3621C38.1446 33.4478 37.1901 32.4933 35.9797 32.2757V23.8486H34.9271V32.2757ZM35.4534 33.2816C34.4026 33.2816 33.5507 34.1335 33.5507 35.1844C33.5507 36.2353 34.4026 37.0872 35.4534 37.0872C36.5043 37.0872 37.3562 36.2353 37.3562 35.1844C37.3562 34.1335 36.5043 33.2816 35.4534 33.2816Z" />
       <path fill-rule="evenodd" clip-rule="evenodd" d="M35.4536 55.9914C46.9462 55.9914 56.2629 46.6748 56.2629 35.1821C56.2629 23.6895 46.9462 14.3729 35.4536 14.3729C23.961 14.3729 14.6444 23.6895 14.6444 35.1821C14.6444 46.6748 23.961 55.9914 35.4536 55.9914ZM35.4536 57.044C47.5276 57.044 57.3155 47.2561 57.3155 35.1821C57.3155 23.1082 47.5276 13.3203 35.4536 13.3203C23.3797 13.3203 13.5918 23.1082 13.5918 35.1821C13.5918 47.2561 23.3797 57.044 35.4536 57.044Z" />
       <path fill-rule="evenodd" clip-rule="evenodd" d="M29.102 6.57482C29.349 6.72803 29.4251 7.05247 29.2718 7.29949L26.7752 11.3248C26.622 11.5718 26.2975 11.6479 26.0505 11.4947C25.8035 11.3414 25.7274 11.017 25.8806 10.77L27.6854 7.86025C23.1763 9.13766 18.9212 11.5509 15.371 15.1011C4.27981 26.1923 4.27981 44.1747 15.371 55.2659C19.3269 59.2217 24.158 61.766 29.2405 62.9001L29.0113 63.9275C23.7394 62.7511 18.728 60.1115 14.6267 56.0102C3.12444 44.5079 3.12444 25.8591 14.6267 14.3568C18.3338 10.6497 22.7845 8.13677 27.499 6.81922L24.5219 4.97266C24.2748 4.81945 24.1988 4.495 24.352 4.24799C24.5052 4.00098 24.8297 3.92493 25.0767 4.07814L29.102 6.57482ZM55.5357 15.1011C51.5034 11.0688 46.5616 8.50308 41.371 7.40259L41.5893 6.37287C46.9731 7.51432 52.0994 10.1761 56.28 14.3568C67.7823 25.8591 67.7823 44.5079 56.28 56.0102C52.4142 59.876 47.74 62.4431 42.8012 63.7103L45.7383 65.6198C45.982 65.7783 46.0511 66.1043 45.8926 66.348C45.7342 66.5917 45.4082 66.6608 45.1645 66.5023L41.1933 63.9205C40.9496 63.762 40.8805 63.436 41.0389 63.1923L43.6208 59.2211C43.7792 58.9774 44.1052 58.9083 44.3489 59.0668C44.5926 59.2252 44.6617 59.5512 44.5033 59.7949L42.6369 62.6655C47.3624 61.4352 51.8326 58.969 55.5357 55.2659C66.6269 44.1747 66.6269 26.1923 55.5357 15.1011Z" />
    </symbol>
    <symbol id="good_salery" viewBox="0 0 70 70">
       <path fill-rule="evenodd" clip-rule="evenodd" d="M10.9802 35.2513H1.22002V65.6578H10.9802V35.2513ZM0 34.0312V66.8779H12.2002V34.0312H0Z" />
       <path fill-rule="evenodd" clip-rule="evenodd" d="M66.1952 37.3881C67.1443 37.4159 68.0462 37.8675 68.9402 38.7615C69.9603 39.7816 70.159 41.2484 69.8944 42.8098C69.6289 44.3762 68.8825 46.155 67.8447 47.9696C65.766 51.6045 62.4341 55.5284 59.0516 58.4249C56.5493 60.5677 52.6946 62.1223 49.5304 63.1363C47.9366 63.647 46.4957 64.0274 45.4531 64.2802C44.9315 64.4067 44.509 64.5014 44.216 64.5646C44.0694 64.5963 43.9553 64.62 43.8773 64.636L43.7879 64.6541L43.7644 64.6587L43.7564 64.6603C43.7562 64.6603 43.7556 64.6604 43.6392 64.0616L43.7564 64.6603L43.6979 64.6716H20.5526L11.1211 61.694V43.7446L13.4785 43.7437L21.9249 39.9898H22.0543V40.5998C22.0543 39.9898 22.0542 39.9898 22.0543 39.9898L22.1939 39.99C22.2848 39.9902 22.4185 39.9907 22.5901 39.9916C22.9331 39.9934 23.4276 39.9971 24.034 40.0045C25.2466 40.0192 26.908 40.0486 28.7023 40.1074C32.2664 40.2242 36.4323 40.4588 38.61 40.9428C38.9804 41.0251 39.2766 41.2425 39.4397 41.5793C39.5862 41.8819 39.593 42.2152 39.5591 42.4985C39.4914 43.0646 39.2234 43.7178 38.9389 44.2925C38.7021 44.7707 38.4321 45.237 38.1962 45.6206H52.4506C52.4513 45.6204 52.452 45.6201 52.4527 45.6198C52.5172 45.5963 52.6162 45.5591 52.748 45.5062C53.0116 45.4004 53.4066 45.2318 53.9199 44.985C54.9465 44.4913 56.4468 43.6841 58.3166 42.4383C59.3386 41.7573 60.2522 40.9876 61.1176 40.247C61.1771 40.1962 61.2364 40.1454 61.2956 40.0946C62.0851 39.4182 62.8526 38.7605 63.5999 38.2719C64.4053 37.7453 65.2653 37.3608 66.1952 37.3881ZM52.5548 46.2306L52.7454 46.8101L52.6525 46.8406H28.6236V45.6206H36.7475C36.8186 45.514 36.9074 45.3787 37.0066 45.2222C37.2615 44.8204 37.5797 44.2882 37.8456 43.7512C38.1191 43.1985 38.3061 42.7016 38.3478 42.3536C38.3575 42.2723 38.3575 42.2115 38.3532 42.1686C38.3518 42.1543 38.35 42.143 38.3482 42.1344C38.3473 42.1342 38.3463 42.1339 38.3453 42.1337C36.2998 41.6792 32.2541 41.4445 28.6623 41.3268C26.8787 41.2683 25.2261 41.239 24.0192 41.2244C23.4159 41.2171 22.9242 41.2134 22.5835 41.2116C22.4132 41.2107 22.2807 41.2102 22.1908 41.21L22.1833 41.21L13.7376 44.9636L12.3411 44.9641V60.7998L20.7406 63.4516H43.5789L43.6328 63.4407C43.7067 63.4256 43.8166 63.4027 43.9586 63.3721C44.2426 63.3108 44.6551 63.2184 45.1656 63.0946C46.1872 62.8469 47.5988 62.4742 49.158 61.9745C52.2997 60.9677 55.9528 59.4722 58.2581 57.4982C61.5465 54.6822 64.7839 50.8641 66.7856 47.3639C67.7881 45.611 68.4597 43.974 68.6915 42.6059C68.9242 41.2327 68.6997 40.2463 68.0775 39.6242C67.3291 38.8758 66.706 38.6236 66.1594 38.6076C65.5936 38.591 64.9873 38.8224 64.2676 39.293C63.5895 39.7364 62.8803 40.3438 62.0688 41.0388C62.0166 41.0835 61.9639 41.1286 61.9109 41.174C61.046 41.9141 60.0827 42.7276 58.9931 43.4536C57.0749 44.7316 55.5251 45.5668 54.4487 46.0845C53.9105 46.3433 53.4907 46.5227 53.2024 46.6384C53.0583 46.6963 52.9471 46.7382 52.8703 46.7661C52.832 46.7801 52.8023 46.7906 52.7814 46.7978L52.7567 46.8063L52.7494 46.8087L52.747 46.8095L52.7454 46.8101C52.7453 46.8101 52.7454 46.8101 52.5548 46.2306Z" />
       <path fill-rule="evenodd" clip-rule="evenodd" d="M53.4931 23.4264C58.5207 23.4264 62.5963 19.3508 62.5963 14.3232C62.5963 9.29566 58.5207 5.22002 53.4931 5.22002C48.4656 5.22002 44.3899 9.29566 44.3899 14.3232C44.3899 19.3508 48.4656 23.4264 53.4931 23.4264ZM53.4931 24.6464C59.1945 24.6464 63.8164 20.0246 63.8164 14.3232C63.8164 8.62186 59.1945 4 53.4931 4C47.7918 4 43.1699 8.62186 43.1699 14.3232C43.1699 20.0246 47.7918 24.6464 53.4931 24.6464Z" />
       <path fill-rule="evenodd" clip-rule="evenodd" d="M26.2783 34.6881C32.3425 34.6881 37.2584 29.7722 37.2584 23.708C37.2584 17.6438 32.3425 12.7278 26.2783 12.7278C20.2141 12.7278 15.2981 17.6438 15.2981 23.708C15.2981 29.7722 20.2141 34.6881 26.2783 34.6881ZM26.2783 35.9081C33.0163 35.9081 38.4785 30.4459 38.4785 23.708C38.4785 16.97 33.0163 11.5078 26.2783 11.5078C19.5403 11.5078 14.0781 16.97 14.0781 23.708C14.0781 30.4459 19.5403 35.9081 26.2783 35.9081Z" />
       <path d="M56.2841 15.7197C56.2841 16.3729 56.0664 16.9134 55.6309 17.3414C55.1955 17.7693 54.6324 18.0171 53.9417 18.0846V19.1095H53.2209V18.0846C52.7629 18.0396 52.3463 17.8969 51.9709 17.6567C51.588 17.439 51.2877 17.1574 51.0699 16.8121C50.8522 16.4967 50.7208 16.1551 50.6758 15.7873L51.4754 15.562C51.5504 15.9749 51.7532 16.3466 52.0835 16.6769C52.4213 16.9998 52.8005 17.195 53.2209 17.2625V14.2106L52.8718 14.143C52.3012 14.0304 51.832 13.7977 51.4641 13.4448C51.0887 13.092 50.901 12.6227 50.901 12.0371C50.901 11.3914 51.13 10.8621 51.588 10.4492C52.0384 10.0588 52.5828 9.83357 53.2209 9.77351V8.69238H53.9417V9.79603C54.6324 9.87862 55.173 10.1189 55.5634 10.5168C55.9012 10.8772 56.1114 11.2788 56.194 11.7218L55.417 11.9583C55.3494 11.673 55.2067 11.4027 54.989 11.1474C54.7413 10.8621 54.3884 10.6782 53.9304 10.5956V13.4786L53.9867 13.4899C54.7075 13.64 55.2368 13.8803 55.5746 14.2106C55.8299 14.4434 56.0138 14.6986 56.1264 14.9764C56.2316 15.2542 56.2841 15.502 56.2841 15.7197ZM52.9506 13.2872L53.2209 13.3435V10.5618C52.8155 10.6144 52.4701 10.7683 52.1848 11.0236C51.8996 11.2863 51.7569 11.6092 51.7569 11.9921C51.7569 12.3224 51.8583 12.6039 52.061 12.8367C52.2637 13.0619 52.5602 13.2121 52.9506 13.2872ZM53.9529 14.357L53.9304 14.3458V17.2738C54.3508 17.2212 54.7037 17.0673 54.989 16.8121C55.2668 16.5643 55.4057 16.2265 55.4057 15.7985C55.4057 15.258 55.1504 14.8563 54.6399 14.5935C54.5198 14.5335 54.3471 14.4659 54.1219 14.3908C54.1068 14.3908 54.0806 14.387 54.043 14.3795C54.013 14.372 53.9905 14.3645 53.9755 14.357H53.9529Z" />
       <path d="M30.0312 25.3688C30.0312 26.1338 29.7398 26.7669 29.1568 27.2681C28.5739 27.7693 27.8201 28.0595 26.8954 28.1386V29.3388H25.9306V28.1386C25.3175 28.0859 24.7597 27.9188 24.2572 27.6374C23.7446 27.3824 23.3426 27.0527 23.0511 26.6482C22.7596 26.2789 22.5837 25.8788 22.5234 25.448L23.5938 25.1842C23.6943 25.6678 23.9657 26.1031 24.4079 26.4899C24.8602 26.868 25.3678 27.0966 25.9306 27.1758V23.6015L25.4632 23.5223C24.6994 23.3904 24.0712 23.1179 23.5788 22.7046C23.0762 22.2913 22.825 21.7418 22.825 21.0559C22.825 20.2997 23.1315 19.6798 23.7446 19.1962C24.3476 18.739 25.0763 18.4752 25.9306 18.4049V17.1387H26.8954V18.4312C27.8201 18.528 28.5437 18.8093 29.0664 19.2754C29.5187 19.6974 29.8001 20.1678 29.9106 20.6866L28.8704 20.9636C28.7799 20.6295 28.589 20.3129 28.2975 20.014C27.9658 19.6798 27.4935 19.4644 26.8804 19.3677V22.7442L26.9557 22.7573C27.9206 22.9332 28.6292 23.2146 29.0815 23.6015C29.4232 23.874 29.6694 24.173 29.8202 24.4983C29.9609 24.8237 30.0312 25.1138 30.0312 25.3688ZM25.5688 22.5199L25.9306 22.5859V19.3281C25.3879 19.3897 24.9255 19.5699 24.5436 19.8689C24.1617 20.1766 23.9707 20.5547 23.9707 21.0032C23.9707 21.39 24.1064 21.7198 24.3778 21.9924C24.6491 22.2561 25.0461 22.432 25.5688 22.5199ZM26.9105 23.7729L26.8804 23.7597V27.189C27.4432 27.1274 27.9156 26.9472 28.2975 26.6482C28.6694 26.358 28.8553 25.9624 28.8553 25.4612C28.8553 24.8281 28.5136 24.3577 27.8302 24.0499C27.6693 23.9796 27.4382 23.9004 27.1367 23.8125C27.1166 23.8125 27.0814 23.8081 27.0311 23.7993C26.9909 23.7905 26.9608 23.7817 26.9407 23.7729H26.9105Z" />
    </symbol>
    <symbol id="shop-icon" viewBox="0 0 70 70">
       <path d="M63.1641 52.7734C63.9191 52.7734 64.5312 52.1613 64.5312 51.4062C64.5312 50.6512 63.9191 50.0391 63.1641 50.0391C62.409 50.0391 61.7969 50.6512 61.7969 51.4062C61.7969 52.1613 62.409 52.7734 63.1641 52.7734Z" />
       <path d="M68.6328 13.6719H59.0625C59.0625 10.0459 57.6221 6.56837 55.0581 4.0044C52.4941 1.44043 49.0166 0 45.3906 0C41.7646 0 38.2871 1.44043 35.7232 4.0044C33.1592 6.56837 31.7188 10.0459 31.7188 13.6719H21.3281C20.9655 13.6719 20.6178 13.8159 20.3614 14.0723C20.105 14.3287 19.9609 14.6765 19.9609 15.0391V30.8984H1.36719C1.00459 30.8984 0.656837 31.0425 0.40044 31.2989C0.144043 31.5553 0 31.903 0 32.2656L0 65.8984C0 66.9862 0.432128 68.0295 1.20132 68.7987C1.97051 69.5679 3.01376 70 4.10156 70H65.8984C66.9862 70 68.0295 69.5679 68.7987 68.7987C69.5679 68.0295 70 66.9862 70 65.8984V15.0391C70 14.6765 69.856 14.3287 69.5996 14.0723C69.3432 13.8159 68.9954 13.6719 68.6328 13.6719ZM45.3906 2.73438C48.2914 2.73438 51.0734 3.88672 53.1246 5.93789C55.1758 7.98907 56.3281 10.7711 56.3281 13.6719H34.4531C34.4531 10.7711 35.6055 7.98907 37.6566 5.93789C39.7078 3.88672 42.4898 2.73438 45.3906 2.73438ZM34.4531 65.8984C34.4531 66.261 34.3091 66.6088 34.0527 66.8652C33.7963 67.1216 33.4485 67.2656 33.0859 67.2656H4.10156C3.73896 67.2656 3.39121 67.1216 3.13481 66.8652C2.87842 66.6088 2.73438 66.261 2.73438 65.8984V60.9766H34.4531V65.8984ZM34.4531 58.2422H2.73438V33.6328H34.4531V58.2422ZM67.2656 65.8984C67.2656 66.261 67.1216 66.6088 66.8652 66.8652C66.6088 67.1216 66.261 67.2656 65.8984 67.2656H36.9551C37.1096 66.8264 37.1882 66.3641 37.1875 65.8984V60.9766H67.2656V65.8984ZM67.2656 58.2422H37.1875V32.2656C37.1875 31.903 37.0435 31.5553 36.7871 31.2989C36.5307 31.0425 36.1829 30.8984 35.8203 30.8984H22.6953V16.4062H31.7188V22.6953H30.3516C29.989 22.6953 29.6412 22.8394 29.3848 23.0958C29.1284 23.3521 28.9844 23.6999 28.9844 24.0625C28.9844 24.4251 29.1284 24.7729 29.3848 25.0292C29.6412 25.2856 29.989 25.4297 30.3516 25.4297H35.8203C36.1829 25.4297 36.5307 25.2856 36.7871 25.0292C37.0435 24.7729 37.1875 24.4251 37.1875 24.0625C37.1875 23.6999 37.0435 23.3521 36.7871 23.0958C36.5307 22.8394 36.1829 22.6953 35.8203 22.6953H34.4531V16.4062H56.3281V22.6953H54.9609C54.5983 22.6953 54.2506 22.8394 53.9942 23.0958C53.7378 23.3521 53.5938 23.6999 53.5938 24.0625C53.5938 24.4251 53.7378 24.7729 53.9942 25.0292C54.2506 25.2856 54.5983 25.4297 54.9609 25.4297H60.4297C60.7923 25.4297 61.14 25.2856 61.3964 25.0292C61.6528 24.7729 61.7969 24.4251 61.7969 24.0625C61.7969 23.6999 61.6528 23.3521 61.3964 23.0958C61.14 22.8394 60.7923 22.6953 60.4297 22.6953H59.0625V16.4062H67.2656V58.2422Z" />
       <path d="M10.3906 41.8359V44.5703C10.3906 46.7459 11.2549 48.8324 12.7933 50.3708C14.3316 51.9092 16.4181 52.7734 18.5938 52.7734C20.7694 52.7734 22.8558 51.9092 24.3942 50.3708C25.9326 48.8324 26.7969 46.7459 26.7969 44.5703V41.8359C27.1595 41.8359 27.5072 41.6919 27.7636 41.4355C28.02 41.1791 28.1641 40.8314 28.1641 40.4688C28.1641 40.1061 28.02 39.7584 27.7636 39.502C27.5072 39.2456 27.1595 39.1016 26.7969 39.1016H24.0625C23.6999 39.1016 23.3521 39.2456 23.0958 39.502C22.8394 39.7584 22.6953 40.1061 22.6953 40.4688C22.6953 40.8314 22.8394 41.1791 23.0958 41.4355C23.3521 41.6919 23.6999 41.8359 24.0625 41.8359V44.5703C24.0625 46.0207 23.4863 47.4117 22.4607 48.4373C21.4351 49.4629 20.0442 50.0391 18.5938 50.0391C17.1433 50.0391 15.7523 49.4629 14.7268 48.4373C13.7012 47.4117 13.125 46.0207 13.125 44.5703V41.8359C13.4876 41.8359 13.8354 41.6919 14.0917 41.4355C14.3481 41.1791 14.4922 40.8314 14.4922 40.4688C14.4922 40.1061 14.3481 39.7584 14.0917 39.502C13.8354 39.2456 13.4876 39.1016 13.125 39.1016H10.3906C10.028 39.1016 9.68028 39.2456 9.42388 39.502C9.16748 39.7584 9.02344 40.1061 9.02344 40.4688C9.02344 40.8314 9.16748 41.1791 9.42388 41.4355C9.68028 41.6919 10.028 41.8359 10.3906 41.8359Z" />
       <path d="M61.7969 45.9375C61.7969 46.3001 61.9409 46.6479 62.1973 46.9042C62.4537 47.1606 62.8015 47.3047 63.1641 47.3047C63.5267 47.3047 63.8744 47.1606 64.1308 46.9042C64.3872 46.6479 64.5312 46.3001 64.5312 45.9375V35C64.5312 34.6374 64.3872 34.2896 64.1308 34.0333C63.8744 33.7769 63.5267 33.6328 63.1641 33.6328C62.8015 33.6328 62.4537 33.7769 62.1973 34.0333C61.9409 34.2896 61.7969 34.6374 61.7969 35V45.9375Z" />
    </symbol>
    <symbol id="staff_education" viewBox="0 0 70 70">
       <path fill-rule="evenodd" clip-rule="evenodd" d="M15.0473 12H70V48.9567H28.0782V48.173H69.2175V12.7837H15.8298V18.4207H15.0473V12ZM48.5426 19.114H25.6707V18.3303H48.5426V19.114ZM13.9338 20.0183C9.32983 20.0183 5.59759 23.7567 5.59759 28.3683C5.59759 32.9798 9.32983 36.7182 13.9338 36.7182C18.5377 36.7182 22.27 32.9798 22.27 28.3683C22.27 23.7567 18.5377 20.0183 13.9338 20.0183ZM4.81513 28.3683C4.81513 23.3239 8.8977 19.2346 13.9338 19.2346C18.9699 19.2346 23.0525 23.3239 23.0525 28.3683C23.0525 33.4127 18.9699 37.502 13.9338 37.502C8.8977 37.502 4.81513 33.4127 4.81513 28.3683ZM57.5709 25.1429H25.6707V24.3591H57.5709V25.1429ZM57.5709 31.1717H25.6707V30.3879H57.5709V31.1717ZM7.70709 38.5177L13.6328 42.079L19.5586 38.5177L22.4917 38.7626C25.1901 38.9878 27.2657 41.2473 27.2657 43.9595V58H0V43.9595C0 41.2473 2.07558 38.9878 4.774 38.7626L7.70709 38.5177ZM7.52077 39.3198L4.83898 39.5436C2.5461 39.735 0.782459 41.6549 0.782459 43.9595V57.2163H26.4832V43.9595C26.4832 41.6549 24.7196 39.735 22.4267 39.5436L19.7449 39.3198L13.6328 42.993L7.52077 39.3198Z" />
    </symbol>
    <symbol id="staff_group" viewBox="0 0 70 70">
       <path fill-rule="evenodd" clip-rule="evenodd" d="M35.0007 41.2664L27.7332 36.9058L24.7394 37.1553C22.2915 37.3593 20.4086 39.4057 20.4086 41.8621V56.9046H49.5929V41.8621C49.5929 39.4056 47.71 37.3593 45.2621 37.1553L42.2683 36.9058L35.0007 41.2664ZM42.0501 35.9681L45.3382 36.2421C48.2611 36.4856 50.5093 38.929 50.5093 41.8621V57.821H19.4922V41.8621C19.4922 38.929 21.7404 36.4856 24.6633 36.2421L27.9514 35.9681L35.0007 40.1977L42.0501 35.9681ZM35.3532 32.9368C40.4923 32.9368 44.6584 28.7708 44.6584 23.6317C44.6584 18.4926 40.4923 14.3266 35.3532 14.3266C30.2141 14.3266 26.0481 18.4926 26.0481 23.6317C26.0481 28.7708 30.2141 32.9368 35.3532 32.9368ZM35.3532 33.8533C40.9984 33.8533 45.5748 29.2769 45.5748 23.6317C45.5748 17.9865 40.9984 13.4102 35.3532 13.4102C29.708 13.4102 25.1317 17.9865 25.1317 23.6317C25.1317 29.2769 29.708 33.8533 35.3532 33.8533Z" />
       <path fill-rule="evenodd" clip-rule="evenodd" d="M43.707 35.2619C43.707 32.2836 46.1214 29.8691 49.0998 29.8691H51.2118L56.8541 33.206L62.4963 29.8691H63.1985C66.9554 29.8691 70.0011 32.9148 70.0011 36.6718V48.4089H51.567V47.4925H69.0847V36.6718C69.0847 33.4209 66.4493 30.7856 63.1985 30.7856H62.7471L56.8541 34.2707L50.9611 30.7856H49.0998C46.6276 30.7856 44.6234 32.7897 44.6234 35.2619H43.707Z" />
       <path fill-rule="evenodd" clip-rule="evenodd" d="M26.2949 35.2619C26.2949 32.2836 23.8805 29.8691 20.9022 29.8691H18.7902L13.1479 33.206L7.5056 29.8691H6.80348C3.0465 29.8691 0.000862122 32.9148 0.000862122 36.6718V48.4089H18.4349V47.4925H0.917278V36.6718C0.917278 33.4209 3.55262 30.7856 6.80348 30.7856H7.2549L13.1479 34.2707L19.0409 30.7856H20.9022C23.3744 30.7856 25.3785 32.7897 25.3785 35.2619H26.2949Z" />
       <path fill-rule="evenodd" clip-rule="evenodd" d="M56.8537 27.2971C61.0567 27.2971 64.3966 24.0415 64.3966 20.1067C64.3966 16.172 61.0567 12.9164 56.8537 12.9164C52.6508 12.9164 49.3109 16.172 49.3109 20.1067C49.3109 24.0415 52.6508 27.2971 56.8537 27.2971ZM56.8537 28.2135C61.5256 28.2135 65.313 24.584 65.313 20.1067C65.313 15.6295 61.5256 12 56.8537 12C52.1819 12 48.3945 15.6295 48.3945 20.1067C48.3945 24.584 52.1819 28.2135 56.8537 28.2135Z" />
       <path fill-rule="evenodd" clip-rule="evenodd" d="M13.1482 27.2971C8.94529 27.2971 5.60541 24.0415 5.60541 20.1067C5.60541 16.172 8.94529 12.9164 13.1482 12.9164C17.3511 12.9164 20.691 16.172 20.691 20.1067C20.691 24.0415 17.3511 27.2971 13.1482 27.2971ZM13.1482 28.2135C8.47631 28.2135 4.68899 24.584 4.68899 20.1067C4.68899 15.6295 8.47631 12 13.1482 12C17.8201 12 21.6074 15.6295 21.6074 20.1067C21.6074 24.584 17.8201 28.2135 13.1482 28.2135Z" />
    </symbol>
    <symbol id="stuff_icon" viewBox="0 0 70 70">
       <path d="M61.1693 49.3329C61.9478 49.3329 62.5789 48.6984 62.5789 47.9157C62.5789 47.133 61.9478 46.4985 61.1693 46.4985C60.3909 46.4985 59.7598 47.133 59.7598 47.9157C59.7598 48.6984 60.3909 49.3329 61.1693 49.3329Z" />
       <path d="M7.50529 49.3329C8.28378 49.3329 8.91487 48.6984 8.91487 47.9157C8.91487 47.133 8.28378 46.4985 7.50529 46.4985C6.7268 46.4985 6.0957 47.133 6.0957 47.9157C6.0957 48.6984 6.7268 49.3329 7.50529 49.3329Z" />
       <path d="M68.5904 69.7266H56.4821L56.3834 34.8917C56.3834 34.5158 56.2349 34.1554 55.9706 33.8896C55.7062 33.6238 55.3477 33.4745 54.9738 33.4745C54.6 33.4745 54.2414 33.6238 53.9771 33.8896C53.7127 34.1554 53.5642 34.5158 53.5642 34.8917L53.6347 69.7196H49.5681V54.2224C49.5681 53.8465 49.4196 53.4861 49.1552 53.2203C48.8909 52.9545 48.5323 52.8052 48.1585 52.8052C47.7846 52.8052 47.4261 52.9545 47.1618 53.2203C46.8974 53.4861 46.7489 53.8465 46.7489 54.2224V69.7125H43.3307V50.9699C45.2533 50.8132 47.0488 49.9415 48.3664 48.525C49.684 47.1086 50.4291 45.2491 50.4561 43.3099V29.5772C50.4562 27.4037 49.9999 25.2546 49.117 23.2706C51.8791 23.4493 54.4887 24.6068 56.4821 26.5373C57.5571 27.557 58.4151 28.7856 59.0038 30.1486C59.5926 31.5116 59.9 32.9806 59.9074 34.4665V42.5163C59.9074 42.8921 60.0559 43.2526 60.3202 43.5184C60.5846 43.7842 60.9431 43.9335 61.317 43.9335C61.6908 43.9335 62.0493 43.7842 62.3137 43.5184C62.578 43.2526 62.7265 42.8921 62.7265 42.5163V34.4524C62.7247 32.5911 62.3492 30.7493 61.6225 29.0374C60.8959 27.3255 59.8331 25.7786 58.4978 24.4894C56.953 22.9879 55.0941 21.8525 53.0568 21.1661C54.1389 20.1344 54.8882 18.7999 55.2076 17.3354C55.5271 15.8708 55.4019 14.3436 54.8485 12.9513C54.295 11.5591 53.3387 10.3659 52.1033 9.5261C50.8678 8.68635 49.4101 8.23872 47.9188 8.24114C46.6939 8.22842 45.4851 8.52312 44.4019 9.09855C44.2277 9.17844 44.0716 9.29318 43.9429 9.43576C43.8143 9.57834 43.7159 9.74578 43.6537 9.92785C43.5916 10.1099 43.5669 10.3028 43.5814 10.4948C43.5958 10.6867 43.649 10.8737 43.7377 11.0443C43.8264 11.2149 43.9487 11.3656 44.0972 11.4871C44.2457 11.6086 44.4173 11.6984 44.6014 11.7511C44.7856 11.8038 44.9785 11.8181 45.1684 11.7934C45.3582 11.7686 45.5411 11.7052 45.7058 11.607C46.3281 11.2823 47.0155 11.1036 47.7164 11.0845C48.4172 11.0653 49.1133 11.2062 49.7522 11.4965C50.3911 11.7869 50.9562 12.219 51.405 12.7606C51.8538 13.3021 52.1747 13.9389 52.3434 14.6231C52.5122 15.3073 52.5244 16.021 52.3793 16.7107C52.2341 17.4003 51.9354 18.0479 51.5054 18.6047C51.0755 19.1615 50.5255 19.613 49.897 19.9253C49.2685 20.2377 48.5777 20.4026 47.8766 20.4079H47.6933H47.4678C45.4424 17.627 42.5848 15.5709 39.3133 14.5406C40.5891 13.417 41.4902 11.926 41.8946 10.2699C42.2989 8.61382 42.1868 6.87278 41.5735 5.28293C40.9602 3.69307 39.8754 2.33134 38.4662 1.38241C37.057 0.433485 35.3916 -0.0567074 33.6959 -0.0216833C32.0002 0.0133407 30.3562 0.571886 28.9869 1.5782C27.6177 2.58451 26.5894 3.98989 26.0416 5.60373C25.4938 7.21757 25.4529 8.96176 25.9245 10.5997C26.3961 12.2377 27.3574 13.6903 28.678 14.7603C25.6667 15.853 23.0499 17.8275 21.1649 20.4291H20.4601H20.0725C19.3638 20.4318 18.6638 20.2715 18.0262 19.9603C17.3886 19.6491 16.8303 19.1953 16.3941 18.6337C15.9579 18.0721 15.6553 17.4175 15.5094 16.7202C15.3636 16.0228 15.3785 15.3012 15.5529 14.6105C15.7272 13.9199 16.0565 13.2785 16.5155 12.7355C16.9744 12.1925 17.5509 11.7623 18.2008 11.4779C18.8506 11.1935 19.5566 11.0623 20.2646 11.0945C20.9726 11.1267 21.6639 11.3214 22.2855 11.6637C22.4484 11.7526 22.6271 11.8083 22.8115 11.8277C22.9958 11.8472 23.1821 11.8299 23.3598 11.7769C23.5375 11.724 23.7031 11.6363 23.8471 11.519C23.9911 11.4017 24.1107 11.257 24.1991 11.0933C24.2874 10.9295 24.3429 10.7498 24.3622 10.5645C24.3815 10.3792 24.3644 10.1918 24.3117 10.0132C24.259 9.83455 24.1718 9.66809 24.0552 9.52331C23.9385 9.37853 23.7946 9.25827 23.6317 9.16941C22.4948 8.54925 21.217 8.23681 19.9238 8.26272C18.6306 8.28863 17.3662 8.652 16.2548 9.3172C15.1433 9.9824 14.2228 10.9266 13.5837 12.0572C12.9445 13.1878 12.6085 14.466 12.6087 15.7665C12.605 16.8414 12.8323 17.9045 13.2751 18.8829C13.7178 19.8613 14.3657 20.732 15.1742 21.4353C12.5301 22.4395 10.2491 24.2226 8.62942 26.5514C7.00977 28.8802 6.12695 31.6463 6.09646 34.4878V42.5163C6.09646 42.8921 6.24497 43.2526 6.50931 43.5184C6.77366 43.7842 7.1322 43.9335 7.50604 43.9335C7.87989 43.9335 8.23842 43.7842 8.50277 43.5184C8.76712 43.2526 8.91563 42.8921 8.91563 42.5163V34.4878C8.96508 31.6295 10.0781 28.8936 12.0351 26.8197C13.9921 24.7459 16.6511 23.4846 19.4875 23.2848C18.6096 25.2652 18.1558 27.409 18.1555 29.5772V43.3099C18.1748 45.3002 18.9508 47.2076 20.3241 48.6411C21.6975 50.0745 23.5643 50.9255 25.5417 51.0195V69.7266H21.7006V54.2295C21.7006 53.8536 21.5521 53.4932 21.2877 53.2274C21.0234 52.9616 20.6648 52.8123 20.291 52.8123C19.9171 52.8123 19.5586 52.9616 19.2943 53.2274C19.0299 53.4932 18.8814 53.8536 18.8814 54.2295V69.7266H15.4138V34.913C15.4138 34.5371 15.2653 34.1766 15.001 33.9108C14.7366 33.6451 14.3781 33.4958 14.0042 33.4958C13.6304 33.4958 13.2718 33.6451 13.0075 33.9108C12.7432 34.1766 12.5946 34.5371 12.5946 34.913V69.7266H1.40959C1.03574 69.7266 0.677206 69.876 0.412858 70.1417C0.148509 70.4075 0 70.768 0 71.1439C0 71.5197 0.148509 71.8802 0.412858 72.146C0.677206 72.4118 1.03574 72.5611 1.40959 72.5611H68.5904C68.9643 72.5611 69.3228 72.4118 69.5871 72.146C69.8515 71.8802 70 71.5197 70 71.1439C70 70.768 69.8515 70.4075 69.5871 70.1417C69.3228 69.876 68.9643 69.7266 68.5904 69.7266ZM28.4172 8.312C28.4172 7.22725 28.7372 6.16686 29.3366 5.26492C29.936 4.36299 30.788 3.66001 31.7848 3.2449C32.7815 2.82978 33.8784 2.72117 34.9366 2.93279C35.9948 3.14442 36.9668 3.66677 37.7297 4.43381C38.4926 5.20084 39.0121 6.1781 39.2226 7.24201C39.4331 8.30591 39.3251 9.40868 38.9122 10.4109C38.4993 11.413 37.8001 12.2696 36.903 12.8723C36.0059 13.4749 34.9513 13.7966 33.8723 13.7966C32.4256 13.7966 31.038 13.2187 30.015 12.1902C28.992 11.1616 28.4172 9.7666 28.4172 8.312ZM41.9211 28.6347C41.5472 28.6347 41.1887 28.7841 40.9243 29.0498C40.66 29.3156 40.5115 29.6761 40.5115 30.0519V69.7337H35.4863V50.0062C35.4863 49.6303 35.3378 49.2699 35.0735 49.0041C34.8091 48.7383 34.4506 48.589 34.0767 48.589C33.7029 48.589 33.3443 48.7383 33.08 49.0041C32.8156 49.2699 32.6671 49.6303 32.6671 50.0062V69.7266H28.3609V30.0449C28.3609 29.669 28.2123 29.3085 27.948 29.0427C27.6836 28.777 27.3251 28.6277 26.9513 28.6277C26.5774 28.6277 26.2189 28.777 25.9545 29.0427C25.6902 29.3085 25.5417 29.669 25.5417 30.0449V48.1426C24.3231 48.0463 23.1835 47.4987 22.3436 46.6059C21.5038 45.713 21.0234 44.5385 20.9958 43.3099V29.5772C20.996 27.1248 21.7088 24.7259 23.0467 22.6754C24.2877 20.8134 25.9657 19.2874 27.9324 18.2321C29.8991 17.1769 32.0941 16.6249 34.3234 16.6249C36.5527 16.6249 38.7477 17.1769 40.7144 18.2321C42.6811 19.2874 44.3591 20.8134 45.6001 22.6754C46.9347 24.7218 47.6452 27.1159 47.644 29.563V43.3099C47.6164 44.4962 47.1668 45.6332 46.3767 46.5147C45.5866 47.3962 44.5084 47.9637 43.3377 48.1142V30.0519C43.3377 29.8652 43.301 29.6804 43.2297 29.508C43.1585 29.3356 43.054 29.179 42.9224 29.0473C42.7907 28.9156 42.6345 28.8114 42.4627 28.7406C42.2908 28.6698 42.1068 28.6338 41.9211 28.6347Z" />
    </symbol>
    <symbol id="minus" viewBox="0 0 16 16">
       <path d="M2 8H14" stroke="#666666" stroke-linecap="round" stroke-linejoin="round"/>
    </symbol>
    <symbol id="plus" viewBox="0 0 16 16">
       <path d="M2 8H14M8 2L8 14" stroke="#666666" stroke-linecap="round" stroke-linejoin="round"/>
    </symbol>
    <symbol id="contactsPoint" viewBox="0 0 20 26">
        <path fill-rule="evenodd" clip-rule="evenodd" d="M12.776 8.81714C12.776 10.4077 11.4841 11.6971 9.89046 11.6971C8.29683 11.6971 7.00494 10.4077 7.00494 8.81714C7.00494 7.22656 8.29683 5.93714 9.89046 5.93714C11.4841 5.93714 12.776 7.22656 12.776 8.81714ZM12.2264 8.81714C12.2264 10.1048 11.1805 11.1486 9.89046 11.1486C8.60038 11.1486 7.55456 10.1048 7.55456 8.81714C7.55456 7.52953 8.60038 6.48571 9.89046 6.48571C11.1805 6.48571 12.2264 7.52953 12.2264 8.81714Z" fill="#E9500E"/>
        <path fill-rule="evenodd" clip-rule="evenodd" d="M18.9593 10.4629C18.5981 14.6689 12.012 22.6659 10.3877 24.5806C10.1583 24.8509 10.0279 25 10.0279 25C10.0279 25 9.89254 24.8558 9.65505 24.5918C8.05449 22.8131 1.81439 15.598 1.09649 10.4629C0.18484 3.94175 5.92997 1 10.0279 1C14.1258 1 19.5225 3.90405 18.9593 10.4629ZM18.4117 10.416C18.3187 11.4987 17.7554 12.9246 16.9059 14.4992C16.0648 16.0584 14.976 17.7044 13.8924 19.2116C12.8101 20.7172 11.7395 22.0753 10.9391 23.0574C10.5614 23.5208 10.2443 23.8999 10.015 24.1708C9.79971 23.9308 9.50951 23.6023 9.16601 23.2013C8.39934 22.3065 7.36923 21.0531 6.31448 19.6183C5.25884 18.1824 4.18428 16.5724 3.32479 14.964C2.46178 13.349 1.83405 11.7691 1.64084 10.387C1.21256 7.32351 2.33954 5.14085 4.03879 3.70465C5.76241 2.24784 8.09282 1.54857 10.0279 1.54857C11.9609 1.54857 14.2024 2.2371 15.882 3.68681C17.5417 5.11932 18.678 7.31416 18.4117 10.416Z" fill="#E9500E"/>
        <path fill-rule="evenodd" clip-rule="evenodd" d="M12.776 8.81714C12.776 10.4077 11.4841 11.6971 9.89046 11.6971C8.29683 11.6971 7.00494 10.4077 7.00494 8.81714C7.00494 7.22656 8.29683 5.93714 9.89046 5.93714C11.4841 5.93714 12.776 7.22656 12.776 8.81714ZM12.2264 8.81714C12.2264 10.1048 11.1805 11.1486 9.89046 11.1486C8.60038 11.1486 7.55456 10.1048 7.55456 8.81714C7.55456 7.52953 8.60038 6.48571 9.89046 6.48571C11.1805 6.48571 12.2264 7.52953 12.2264 8.81714Z" stroke="#E9500E" stroke-width="0.7"/>
        <path fill-rule="evenodd" clip-rule="evenodd" d="M18.9593 10.4629C18.5981 14.6689 12.012 22.6659 10.3877 24.5806C10.1583 24.8509 10.0279 25 10.0279 25C10.0279 25 9.89254 24.8558 9.65505 24.5918C8.05449 22.8131 1.81439 15.598 1.09649 10.4629C0.18484 3.94175 5.92997 1 10.0279 1C14.1258 1 19.5225 3.90405 18.9593 10.4629ZM18.4117 10.416C18.3187 11.4987 17.7554 12.9246 16.9059 14.4992C16.0648 16.0584 14.976 17.7044 13.8924 19.2116C12.8101 20.7172 11.7395 22.0753 10.9391 23.0574C10.5614 23.5208 10.2443 23.8999 10.015 24.1708C9.79971 23.9308 9.50951 23.6023 9.16601 23.2013C8.39934 22.3065 7.36923 21.0531 6.31448 19.6183C5.25884 18.1824 4.18428 16.5724 3.32479 14.964C2.46178 13.349 1.83405 11.7691 1.64084 10.387C1.21256 7.32351 2.33954 5.14085 4.03879 3.70465C5.76241 2.24784 8.09282 1.54857 10.0279 1.54857C11.9609 1.54857 14.2024 2.2371 15.882 3.68681C17.5417 5.11932 18.678 7.31416 18.4117 10.416Z" stroke="#E9500E" stroke-width="0.7"/>
    </symbol>
    <symbol id="contactsMail" viewBox="0 0 26 18">
        <path d="M5 5.44444L13.1803 10.7778L21 5.44444M1 1L25 1L25 17L1 17L1 1Z" stroke="#E9500E" stroke-linecap="round" stroke-linejoin="round"/>
    </symbol>
    <symbol id="contactsPhone" viewBox="0 0 24 24">
        <path d="M7.35482 16.6451C10.9869 20.277 15.9218 23.9997 19.1913 23.9992C19.7285 24.0111 20.2599 23.887 20.7362 23.6383C22.0743 22.9085 23.1037 21.5082 23.7958 19.4762C24.0492 18.7323 24.2607 17.6524 23.1763 16.8652L19.4536 14.1638C18.331 13.3498 17.3318 14.4616 16.6017 15.2734C15.7632 16.2062 15.4517 16.4219 15.2139 16.2318C13.2405 14.6563 9.34328 10.7594 7.76794 8.78585C7.5783 8.54818 7.7932 8.23691 8.72622 7.3982C9.53812 6.66824 10.6503 5.66855 9.83584 4.54632L7.13419 0.823946C6.34756 -0.260768 5.26711 -0.0491375 4.5232 0.204161C2.49097 0.896488 1.09067 1.926 0.360801 3.26391C-1.30285 6.31478 3.08875 12.379 7.35482 16.6451ZM1.53164 3.90231C2.09636 2.86721 3.24737 2.04764 4.95324 1.46654C5.15607 1.38791 5.37003 1.34176 5.58724 1.32979C5.68343 1.32698 5.77845 1.35154 5.86122 1.40063C5.94399 1.44972 6.01112 1.52131 6.05478 1.60706L8.75643 5.32955C8.76894 5.34675 8.77389 5.35664 8.77389 5.35664C8.77025 5.56528 8.16177 6.11227 7.83462 6.40648C6.98312 7.17186 5.69637 8.32849 6.7255 9.6178C8.34567 11.6471 12.3526 15.6541 14.3819 17.274C15.6715 18.3029 16.8281 17.0163 17.5936 16.165C17.8882 15.8372 18.4367 15.227 18.6394 15.2249C18.6504 15.2295 18.6608 15.2357 18.6701 15.2432L22.3928 17.9446C22.6239 18.1122 22.8065 18.2447 22.5335 19.0461C21.9526 20.7518 21.1329 21.9028 20.0975 22.4675C18.2086 23.4965 13.2475 20.6514 8.29774 15.7021C3.34793 10.7524 0.502507 5.78994 1.53164 3.90231Z" fill="#E9500E"/>
    </symbol>
    <symbol id="contactsYtb" viewBox="0 0 22 18">
        <path d="M20.8941 5.51927C20.9497 6.22221 20.9815 6.80404 20.9888 7.26421C20.9963 7.72443 21 8.36357 21 9.18182C21 9.99998 20.9962 10.6393 20.9888 11.0994C20.9813 11.5596 20.9497 12.1415 20.8941 12.8443C20.8381 13.5476 20.7544 14.1762 20.6428 14.7301C20.5238 15.3521 20.2672 15.8765 19.8728 16.3025C19.4784 16.7286 19.0172 16.9758 18.4888 17.044C16.8369 17.2571 14.341 17.3636 11 17.3636C7.65916 17.3636 5.16304 17.2571 3.51125 17.044C2.98305 16.9757 2.51978 16.7286 2.12164 16.3025C1.72358 15.8765 1.46507 15.3524 1.34599 14.7301C1.24182 14.1762 1.1618 13.5476 1.10601 12.8443C1.05031 12.1414 1.01865 11.5599 1.01126 11.0994C1.00367 10.6393 1 9.99998 1 9.18182C1 8.36357 1.00367 7.72443 1.01122 7.26421C1.01861 6.80382 1.05027 6.22221 1.10598 5.51927C1.16176 4.81605 1.24557 4.18752 1.35706 3.6335C1.47613 3.01128 1.73284 2.48708 2.12723 2.06107C2.52146 1.63484 2.98285 1.38772 3.51121 1.31948C5.163 1.10657 7.65928 1 11 1C14.3406 1 16.8368 1.10657 18.4888 1.31948C19.0172 1.38777 19.4804 1.63484 19.8784 2.06107C20.2764 2.48721 20.535 3.01141 20.654 3.6335C20.7581 4.18734 20.8381 4.81591 20.8941 5.51927Z" stroke="#222222" stroke-linecap="round" stroke-linejoin="round"/>
        <path d="M15.2053 9.69533L9.38701 12.7235C9.2809 12.7866 9.15197 12.8181 9.00052 12.8181C8.88696 12.8181 8.76954 12.7928 8.64834 12.7424C8.39838 12.6289 8.27344 12.4522 8.27344 12.2125V6.15608C8.27344 5.91646 8.39842 5.73973 8.64834 5.6262C8.90599 5.51248 9.15213 5.51884 9.38701 5.64513L15.2054 8.67337C15.4326 8.78043 15.5462 8.95087 15.5462 9.18432C15.5462 9.41767 15.4325 9.58817 15.2053 9.69533Z" fill="#222222"/>
    </symbol>
    <symbol id="contactsFb" viewBox="0 0 10 20">
        <path fill-rule="evenodd" clip-rule="evenodd" d="M2.77778 9.69745V20H6.11111V9.69745H10V6.06125H6.11145C6.12589 4.18819 6.53656 3.86805 6.57222 3.84019L6.57289 3.83972C6.62833 3.79629 6.74767 3.72993 7.02467 3.6866C7.31989 3.64043 7.66022 3.63712 8.14811 3.63712H10V0.000929867H8.14811C8.10367 0.000929867 8.05689 0.000723802 8.00778 0.000493509C7.19567 -0.00313056 5.774 -0.00946976 4.63089 0.884343C3.29332 1.9302 2.79221 3.74119 2.77809 6.06125H0V9.69745H2.77778Z" fill="#222222"/>
    </symbol>
    <symbol id="contactsInst" viewBox="0 0 20 20">
        <path d="M9.99643 1C7.55357 1 7.24643 1.01071 6.28571 1.05357C5.32857 1.09643 4.675 1.25 4.10357 1.47143C3.51071 1.7 3.01071 2.01071 2.51071 2.51071C2.01071 3.01071 1.70357 3.51429 1.47143 4.10357C1.25 4.675 1.09643 5.32857 1.05357 6.28928C1.01071 7.24643 1 7.55357 1 9.99643C1 12.4393 1.01071 12.7464 1.05357 13.7071C1.09643 14.6643 1.25 15.3179 1.47143 15.8929C1.7 16.4857 2.01071 16.9857 2.51071 17.4857C3.01071 17.9857 3.51429 18.2929 4.10357 18.525C4.675 18.7464 5.32857 18.9 6.28929 18.9429C7.25 18.9857 7.55357 18.9964 10 18.9964C12.4464 18.9964 12.75 18.9857 13.7107 18.9429C14.6679 18.9 15.3214 18.7464 15.8964 18.525C16.4893 18.2964 16.9893 17.9857 17.4893 17.4857C17.9893 16.9857 18.2964 16.4821 18.5286 15.8929C18.75 15.3214 18.9036 14.6679 18.9464 13.7071C18.9893 12.7464 19 12.4429 19 9.99643C19 7.55 18.9893 7.24643 18.9464 6.28571C18.9036 5.32857 18.75 4.675 18.5286 4.1C18.3 3.50714 17.9893 3.00714 17.4893 2.50714C16.9893 2.00714 16.4857 1.7 15.8964 1.46786C15.325 1.24643 14.6714 1.09286 13.7107 1.05C12.7464 1.01071 12.4393 1 9.99643 1Z" stroke="#222222" stroke-linecap="round" stroke-linejoin="round"/>
        <path d="M9.58984 5.90869C7.10685 5.90869 5.08984 7.92222 5.08984 10.4087C5.08984 12.8952 7.10685 14.9087 9.58984 14.9087C12.0728 14.9087 14.0898 12.8917 14.0898 10.4087C14.0898 7.92569 12.0728 5.90869 9.58984 5.90869Z" stroke="#222222" stroke-linecap="round" stroke-linejoin="round"/>
        <path d="M14.5007 5.90914C15.1785 5.90914 15.728 5.35967 15.728 4.68186C15.728 4.00406 15.1785 3.45459 14.5007 3.45459C13.8229 3.45459 13.2734 4.00406 13.2734 4.68186C13.2734 5.35967 13.8229 5.90914 14.5007 5.90914Z" fill="#222222"/>
    </symbol>
</svg>