<svg width="41" height="51" viewBox="0 0 41 51" fill="none" xmlns="http://www.w3.org/2000/svg">
<path fill-rule="evenodd" clip-rule="evenodd" d="M20.5003 50.9159C19.9717 50.9159 19.4563 50.7508 19.0261 50.4436C18.2535 49.8971 0.0932635 36.7847 0.166972 20.4036C0.166972 9.20505 9.28901 0.0830078 20.5003 0.0830078C31.7116 0.0830078 40.8336 9.20505 40.8336 20.4163C40.9073 36.7847 22.7471 49.8971 21.9745 50.4436C21.5443 50.7508 21.0289 50.9159 20.5003 50.9159ZM30.6667 20.4163C30.6667 26.0233 26.107 30.583 20.5001 30.583C14.8932 30.583 10.3334 26.0233 10.3334 20.4163C10.3334 14.8094 14.8932 10.2497 20.5001 10.2497C26.107 10.2497 30.6667 14.8094 30.6667 20.4163Z" fill="#FF5F00"/>
</svg>
