<svg width="50" height="50" viewBox="0 0 50 50" fill="none" xmlns="http://www.w3.org/2000/svg">
<path d="M11.666 32.917C8.9085 32.917 6.66602 35.1595 6.66602 37.917C6.66602 40.6745 8.9085 42.917 11.666 42.917C14.4235 42.917 16.666 40.6745 16.666 37.917C16.666 35.1595 14.4234 32.917 11.666 32.917ZM11.666 41.2503C9.82764 41.2503 8.33271 39.7553 8.33271 37.917C8.33271 36.0786 9.82773 34.5837 11.666 34.5837C13.5043 34.5837 14.9993 36.0787 14.9993 37.917C14.9993 39.7553 13.5043 41.2503 11.666 41.2503Z" fill="#E9500E"/>
<path d="M40 32.917C37.2425 32.917 35 35.1595 35 37.917C35 40.6745 37.2425 42.917 40 42.917C42.7575 42.917 45 40.6745 45 37.917C45 35.1595 42.7575 32.917 40 32.917ZM40 41.2503C38.1616 41.2503 36.6667 39.7553 36.6667 37.917C36.6667 36.0786 38.1617 34.5837 40 34.5837C41.8384 34.5837 43.3333 36.0787 43.3333 37.917C43.3333 39.7553 41.8384 41.2503 40 41.2503Z" fill="#E9500E"/>
<path d="M49.8668 28.2992L42.3668 16.6325C42.2135 16.3941 41.9493 16.25 41.6659 16.25H32.4993C32.0385 16.25 31.666 16.6233 31.666 17.0833V37.9166C31.666 38.3774 32.0385 38.7499 32.4993 38.7499H35.8326V37.0832H33.3326V17.9167H41.2109L48.3326 28.995V37.0834H44.1659V38.75H49.1659C49.6268 38.75 49.9992 38.3775 49.9992 37.9167V28.75C49.9993 28.5908 49.9535 28.4333 49.8668 28.2992Z" fill="#E9500E"/>
<path d="M36.6666 27.0835V21.2502H43.3333V19.5835H35.8333C35.3725 19.5835 35 19.9568 35 20.4168V27.9168C35 28.3776 35.3725 28.7501 35.8333 28.7501H48.3333V27.0834H36.6666V27.0835Z" fill="#E9500E"/>
<path d="M32.5 10.417H0.833301C0.37334 10.417 0 10.7903 0 11.2503V37.917C0 38.3778 0.37334 38.7503 0.833301 38.7503H7.5V37.0836H1.6667V12.0836H31.6667V37.0836H15.8333V38.7503H32.5C32.9608 38.7503 33.3333 38.3778 33.3333 37.917V11.2503C33.3333 10.7903 32.9608 10.417 32.5 10.417Z" fill="#E9500E"/>
<path d="M5.83398 33.75H0.833984V35.4167H5.83398V33.75Z" fill="#E9500E"/>
<path d="M31.6667 33.75H17.5V35.4167H31.6667V33.75Z" fill="#E9500E"/>
<path d="M49.1673 33.75H45.834V35.4167H49.1673V33.75Z" fill="#E9500E"/>
<path d="M32.5007 13.75H3.33398V15.4167H32.5007V13.75Z" fill="#E9500E"/>
<path d="M12.5007 37.0835H10.834V38.7502H12.5007V37.0835Z" fill="#E9500E"/>
<path d="M40.8327 37.0835H39.166V38.7502H40.8327V37.0835Z" fill="#E9500E"/>
<path d="M15.0007 7.08301H3.33398V8.74971H15.0007V7.08301Z" fill="#E9500E"/>
<path d="M1.6667 7.08301H0V8.74971H1.6667V7.08301Z" fill="#E9500E"/>
</svg>
