<svg width="50" height="50" viewBox="0 0 50 50" fill="none" xmlns="http://www.w3.org/2000/svg">
<g clip-path="url(#clip0)">
<path d="M25.6526 27.288C25.5601 27.268 25.4652 27.2644 25.3715 27.2784C24.4324 27.1691 23.724 26.3745 23.7224 25.4294C23.7224 24.9765 23.3552 24.6093 22.9023 24.6093C22.4493 24.6093 22.0821 24.9765 22.0821 25.4294C22.0845 27.0077 23.1401 28.3901 24.6619 28.8077V29.6279C24.6619 30.0808 25.0291 30.448 25.482 30.448C25.935 30.448 26.3022 30.0808 26.3022 29.6279V28.8574C28.0586 28.4898 29.2524 26.8539 29.0678 25.069C28.8827 23.2842 27.379 21.9278 25.5845 21.9274C24.5562 21.9274 23.7224 21.0937 23.7224 20.0653C23.7224 19.0369 24.5562 18.2031 25.5845 18.2031C26.6129 18.2031 27.4467 19.0369 27.4467 20.0653C27.4467 20.5182 27.8139 20.8854 28.2668 20.8854C28.7198 20.8854 29.087 20.5182 29.087 20.0653C29.0846 18.4082 27.9236 16.9789 26.3022 16.6369V15.8905C26.3022 15.4375 25.935 15.0703 25.482 15.0703C25.0291 15.0703 24.6619 15.4375 24.6619 15.8905V16.687C22.9695 17.1491 21.8803 18.7922 22.1134 20.531C22.3464 22.2698 23.8301 23.5677 25.5845 23.5673C26.5993 23.5673 27.4271 24.3798 27.4455 25.3942C27.4643 26.4086 26.6666 27.2511 25.6526 27.288Z" fill="#E9500E"/>
<path d="M13.6914 22.8104C13.6914 29.3787 19.0159 34.7033 25.5843 34.7033C32.1527 34.7033 37.4772 29.3787 37.4772 22.8104C37.4772 16.242 32.1527 10.9175 25.5843 10.9175C19.0191 10.9247 13.699 16.2452 13.6914 22.8104ZM25.5843 12.5578C31.2468 12.5578 35.8369 17.1479 35.8369 22.8104C35.8369 28.4729 31.2468 33.063 25.5843 33.063C19.9218 33.063 15.3317 28.4729 15.3317 22.8104C15.3381 17.1507 19.9246 12.5642 25.5843 12.5578Z" fill="#E9500E"/>
<path d="M41.5207 36.7252L35.0961 39.7607C34.2091 38.1108 32.5075 37.0608 30.6349 37.0079L24.7041 36.8449C23.765 36.8181 22.8436 36.5802 22.0086 36.1489L21.4051 35.8362C18.3152 34.2255 14.6321 34.2295 11.5454 35.8466L11.583 34.4794C11.5954 34.0265 11.2386 33.6493 10.7857 33.6368L4.28221 33.4578C3.82929 33.4454 3.45246 33.8022 3.44004 34.2552L3.04719 48.5268C3.03478 48.9797 3.39159 49.3569 3.84451 49.3694L10.348 49.5484H10.3704C10.8149 49.5484 11.1786 49.1948 11.1906 48.7506L11.2094 48.0679L12.8989 47.1632C13.5621 46.8064 14.3374 46.7215 15.0618 46.9265L25.151 49.7582C25.1687 49.7634 25.1863 49.7674 25.2043 49.7714C25.9335 49.924 26.6768 50.0005 27.4216 50.0001C28.9995 50.0009 30.5589 49.6609 31.9929 49.0025C32.0282 48.9865 32.0622 48.9677 32.0946 48.9465L46.7231 39.4844C47.0875 39.2485 47.2052 38.7699 46.9918 38.3919C45.9057 36.4649 43.497 35.7309 41.5207 36.7252ZM4.7095 47.7523L5.0571 35.1201L9.9207 35.2539L9.5731 47.8864L4.7095 47.7523ZM31.2541 47.5376C29.4724 48.3418 27.4825 48.5636 25.5675 48.1724L15.5055 45.3479C14.373 45.028 13.1608 45.1605 12.1248 45.7175L11.2614 46.1801L11.4925 37.7812C14.2285 35.9615 17.7373 35.7745 20.6511 37.2926L21.2546 37.6054C22.3094 38.15 23.4727 38.4504 24.6593 38.4848L30.5905 38.6478C32.2564 38.6959 33.6712 39.882 34.0092 41.5143L25.1747 41.2704C24.7217 41.258 24.3449 41.6152 24.3321 42.0677C24.3197 42.5207 24.6769 42.8979 25.1294 42.9103L34.879 43.1786H34.9019C35.346 43.1782 35.7092 42.8246 35.7212 42.3809C35.7312 42.0245 35.7048 41.6677 35.6419 41.3169L42.2315 38.2033C42.2379 38.2005 42.2443 38.1973 42.2507 38.1941C43.1854 37.7211 44.3155 37.8793 45.0844 38.5909L31.2541 47.5376Z" fill="#E9500E"/>
<path d="M26.404 8.61152V0.820144C26.404 0.367223 26.0367 0 25.5838 0C25.1309 0 24.7637 0.367223 24.7637 0.820144V8.61152C24.7637 9.06444 25.1309 9.43166 25.5838 9.43166C26.0367 9.43166 26.404 9.06444 26.404 8.61152Z" fill="#E9500E"/>
<path d="M32.5563 8.61138V4.92073C32.5563 4.46781 32.1891 4.10059 31.7362 4.10059C31.2832 4.10059 30.916 4.46781 30.916 4.92073V8.61138C30.916 9.0643 31.2832 9.43152 31.7362 9.43152C32.1891 9.43152 32.5563 9.0643 32.5563 8.61138Z" fill="#E9500E"/>
<path d="M20.2536 8.61138V4.92073C20.2536 4.46781 19.8863 4.10059 19.4334 4.10059C18.9805 4.10059 18.6133 4.46781 18.6133 4.92073V8.61138C18.6133 9.0643 18.9805 9.43152 19.4334 9.43152C19.8863 9.43152 20.2536 9.0643 20.2536 8.61138Z" fill="#E9500E"/>
</g>
<defs>
<clipPath id="clip0">
<rect width="50" height="50" fill="white"/>
</clipPath>
</defs>
</svg>
