<svg width="70" height="70" viewBox="0 0 70 70" fill="none" xmlns="http://www.w3.org/2000/svg">
<path fill-rule="evenodd" clip-rule="evenodd" d="M35 5C28.3726 5 23 10.3726 23 17C23 17.3697 23.0167 17.7353 23.0493 18.096C23.0586 18.0969 23.068 18.0978 23.0774 18.0987C23.5744 18.1458 24.2649 18.1962 25.0382 18.2098C26.6281 18.2376 28.4035 18.1043 29.6009 17.5831C30.7335 17.0901 31.9917 15.9704 33.0206 14.8794C33.5211 14.3487 33.9428 13.8516 34.2392 13.4873C34.3871 13.3055 34.503 13.1576 34.5812 13.0563C34.6203 13.0057 34.6498 12.9668 34.6692 12.9412L34.6904 12.9129L34.6951 12.9066L34.6957 12.9057L35.5083 11.806L36.3098 12.9133L36.3106 12.9145L36.3153 12.9208L36.3362 12.9493C36.3554 12.9751 36.3846 13.0144 36.4234 13.0655C36.5008 13.1678 36.6158 13.317 36.7627 13.5004C37.057 13.8679 37.476 14.3688 37.9742 14.9014C39.0002 15.9983 40.2518 17.1091 41.3817 17.5757C42.4263 18.0071 43.968 18.1367 45.3507 18.1338C45.972 18.1325 46.5312 18.1049 46.9525 18.0756C46.9839 17.7215 47 17.3627 47 17C47 10.3726 41.6274 5 35 5ZM46.5959 20.1005C46.2298 20.1191 45.8082 20.1328 45.3549 20.1338C43.9336 20.1367 42.0517 20.0163 40.6183 19.4243C39.0652 18.7829 37.5668 17.3936 36.5136 16.2676C36.121 15.8479 35.7751 15.448 35.4934 15.1085C35.2116 15.4432 34.8664 15.8373 34.4756 16.2516C33.4199 17.371 31.928 18.7513 30.3991 19.4169C28.781 20.1213 26.6329 20.238 25.0031 20.2095C24.4133 20.1991 23.8698 20.169 23.4132 20.1345C24.7912 25.2416 29.4575 29 35 29C40.4788 29 45.1025 25.3274 46.5386 20.3078C46.5583 20.239 46.5774 20.1699 46.5959 20.1005ZM21.3126 19.9548C21.2557 19.6901 21.2063 19.4226 21.1646 19.1526C21.0562 18.4503 21 17.7314 21 17C21 9.26801 27.268 3 35 3C42.732 3 49 9.26801 49 17C49 17.7314 48.9438 18.4503 48.8354 19.1526C48.7937 19.4226 48.7443 19.69 48.6874 19.9547C48.6221 20.3429 48.5447 20.8539 48.4796 21.4255C48.3323 22.7209 48.2629 24.2153 48.4806 25.3039C48.6377 26.0893 49.169 27.0785 49.7343 27.9412C50.0064 28.3565 50.2678 28.7148 50.461 28.969C50.5573 29.0958 50.6361 29.1958 50.6899 29.2631C50.7167 29.2967 50.7374 29.3221 50.7508 29.3386L50.7654 29.3564L50.7684 29.36C50.7683 29.3599 50.7684 29.3601 50 30C49.2316 30.6399 49.2315 30.6398 49.2313 30.6397L49.2304 30.6386L49.2286 30.6363L49.2225 30.629L49.2017 30.6037C49.1841 30.5821 49.1591 30.5512 49.1276 30.5119C49.0647 30.4332 48.9759 30.3203 48.8686 30.1792C48.6547 29.8976 48.365 29.5006 48.0614 29.0373C47.4753 28.1428 46.7566 26.882 46.5194 25.6961C46.4805 25.5015 46.4489 25.3003 46.4238 25.0946C43.8875 28.6679 39.7168 31 35 31C30.2836 31 26.1127 28.6683 23.5762 25.0947C23.5511 25.3003 23.5195 25.5015 23.4806 25.6961C23.2434 26.882 22.5247 28.1428 21.9386 29.0373C21.635 29.5006 21.3453 29.8976 21.1314 30.1792C21.0241 30.3203 20.9353 30.4332 20.8724 30.5119C20.8409 30.5512 20.8159 30.5821 20.7983 30.6037L20.7775 30.629L20.7714 30.6363L20.7689 30.6394C20.7688 30.6395 20.7684 30.6399 20 30C19.2316 29.3601 19.2315 29.3602 19.2314 29.3603L19.2346 29.3564L19.2492 29.3386C19.2626 29.3221 19.2833 29.2967 19.3101 29.2631C19.3639 29.1958 19.4427 29.0958 19.539 28.969C19.7322 28.7148 19.9936 28.3565 20.2657 27.9412C20.831 27.0785 21.3623 26.0893 21.5194 25.3039C21.7371 24.2153 21.6677 22.7209 21.5204 21.4255C21.4553 20.854 21.3779 20.343 21.3126 19.9548ZM35 35C24.8256 35 17 41.4754 17 49H15C15 39.956 24.1875 33 35 33C45.8125 33 55 39.956 55 49H53C53 41.4754 45.1744 35 35 35ZM2 58C2 54.6863 4.68629 52 8 52H62C65.3137 52 68 54.6863 68 58V68H66V58C66 55.7909 64.2091 54 62 54H8C5.79086 54 4 55.7909 4 58V68H2V58Z" fill="#E9500E"/>
</svg>
