<svg width="50" height="50" viewBox="0 0 50 50" fill="none" xmlns="http://www.w3.org/2000/svg">
<path d="M21.4261 37.6997C19.2785 37.6997 17.5312 39.4469 17.5312 41.5945C17.5312 43.7421 19.2785 45.4893 21.4261 45.4893C23.5737 45.4893 25.3209 43.7421 25.3209 41.5945C25.3208 39.4469 23.5736 37.6997 21.4261 37.6997ZM21.4261 43.3145C20.4775 43.3145 19.7059 42.5428 19.7059 41.5943C19.7059 40.6458 20.4776 39.8742 21.4261 39.8742C22.3745 39.8742 23.1462 40.6459 23.1462 41.5943C23.1462 42.5429 22.3745 43.3145 21.4261 43.3145Z" fill="#E9500E"/>
<path d="M35.0882 37.6997C32.9406 37.6997 31.1934 39.4469 31.1934 41.5945C31.1934 43.7421 32.9406 45.4893 35.0882 45.4893C37.2358 45.4893 38.983 43.7421 38.983 41.5945C38.9829 39.4469 37.2357 37.6997 35.0882 37.6997ZM35.0882 43.3145C34.1397 43.3145 33.368 42.5428 33.368 41.5943C33.368 40.6458 34.1397 39.8742 35.0882 39.8742C36.0367 39.8742 36.8083 40.6459 36.8083 41.5943C36.8083 42.5429 36.0366 43.3145 35.0882 43.3145Z" fill="#E9500E"/>
<path d="M36.0464 17.1943H20.4643C19.8638 17.1943 19.377 17.6811 19.377 18.2817C19.377 18.8822 19.8638 19.369 20.4643 19.369H36.0464C36.6469 19.369 37.1337 18.8822 37.1337 18.2817C37.1337 17.681 36.6469 17.1943 36.0464 17.1943Z" fill="#E9500E"/>
<path d="M35.1978 22.8408H21.3119C20.7114 22.8408 20.2246 23.3276 20.2246 23.9282C20.2246 24.5287 20.7114 25.0155 21.3119 25.0155H35.1977C35.7982 25.0155 36.285 24.5287 36.285 23.9282C36.285 23.3277 35.7982 22.8408 35.1978 22.8408Z" fill="#E9500E"/>
<path d="M46.6537 12.3498C46.239 11.8409 45.6246 11.5491 44.968 11.5491H11.0986L10.4146 8.22858C10.2718 7.53593 9.79933 6.95433 9.15053 6.67262L4.37797 4.60105C3.82699 4.36171 3.18666 4.61454 2.94768 5.16534C2.70843 5.71632 2.96126 6.35673 3.51197 6.59572L8.28462 8.66738L13.5458 34.2062C13.753 35.2119 14.6488 35.9419 15.6758 35.9419H41.7253C42.3258 35.9419 42.8126 35.4551 42.8126 34.8546C42.8126 34.2541 42.3258 33.7673 41.7253 33.7673H15.6758L15.0359 30.6607H41.9266C42.9535 30.6607 43.8493 29.9307 44.0565 28.9249L47.0979 14.1623C47.2304 13.5194 47.0684 12.8587 46.6537 12.3498ZM41.9266 28.4862H14.5879L11.5466 13.7236L44.9679 13.7237L41.9266 28.4862Z" fill="#E9500E"/>
</svg>
