<svg width="70" height="70" viewBox="0 0 70 70" fill="none" xmlns="http://www.w3.org/2000/svg">
<path fill-rule="evenodd" clip-rule="evenodd" d="M67.1465 45.4656L59.1133 42.2523C59.0698 42.2349 59.0296 42.2127 58.9889 42.1914C64.5374 40.9289 67.1651 38.8177 67.2817 38.7222C67.5591 38.4948 67.6976 38.1391 67.6469 37.784C67.6353 37.7028 66.4856 29.5624 66.4856 21.5275C66.4856 13.8562 60.2445 7.61505 52.5732 7.61505C44.9018 7.61505 38.6609 13.856 38.6609 21.5275C38.6609 23.6294 38.5654 26.2003 38.4101 28.634L36.1716 29.7534L29.6009 26.4681C29.582 26.4587 29.5622 26.4519 29.5429 26.4437C29.8554 25.5327 30.0598 24.5721 30.1349 23.5753C31.5093 23.1506 32.5108 21.8681 32.5108 20.3559C32.5108 19.3375 32.0558 18.424 31.3393 17.8057V10.9834C31.3393 9.09873 30.387 7.33532 28.8254 6.27574C28.2963 4.30972 26.5299 2.92871 24.4561 2.92871H15.0837C9.99639 2.92871 5.85748 7.06762 5.85748 12.155V17.8056C5.14093 18.4237 4.68593 19.3374 4.68593 20.3558C4.68593 21.8679 5.6874 23.1505 7.06184 23.5751C7.32079 27.0176 9.09486 30.0422 11.7152 31.9889V34.8231L3.23533 37.367C1.3002 37.9476 0 39.6951 0 41.7155V53.1591C0 53.7253 0.459104 54.1845 1.0254 54.1845H1.17155V66.0461C1.17155 66.6124 1.63065 67.0715 2.19695 67.0715C2.76324 67.0715 3.22234 66.6124 3.22234 66.0461V54.1845H7.0293V66.0461C7.0293 66.6124 7.4884 67.0715 8.0547 67.0715C8.62099 67.0715 9.08009 66.6124 9.08009 66.0461V48.3655C9.08009 47.4662 8.81636 46.5953 8.31761 45.8472L6.56486 43.218C6.25068 42.7468 5.61398 42.6196 5.14298 42.9335C4.67171 43.2476 4.54442 43.8843 4.8586 44.3555L6.61135 46.9848C6.88479 47.395 7.02944 47.8724 7.02944 48.3655V52.1337H2.19695H2.05079V41.7155C2.05079 40.6077 2.76365 39.6497 3.82487 39.3312L7.34498 38.2752L9.31388 37.6846L11.8472 36.9246C12.4721 40.0812 15.2613 42.469 18.5986 42.469C21.2487 42.469 23.5521 40.9627 24.7019 38.7622C24.6362 39.2602 24.6024 39.7644 24.6024 40.272V41.2459C23.8682 41.8798 23.4309 42.8076 23.4309 43.7865C23.4309 43.7865 23.3598 44.2831 23.4868 44.6711C23.6139 45.0591 24.0816 45.7736 24.0816 45.7736C24.6951 46.6105 25.6845 47.1552 26.7994 47.1552H26.9455V47.3013C26.9455 50.7388 28.8366 53.7412 31.6317 55.3284V57.0009C31.6317 57.0638 31.5915 57.1196 31.5318 57.1395L27.7068 58.4146C25.85 59.0335 24.6024 60.7644 24.6024 62.7216V66.0461C24.6024 66.6124 25.0615 67.0715 25.6278 67.0715C26.1941 67.0715 26.6532 66.6124 26.6532 66.0461V62.7216C26.6532 61.6485 27.3372 60.6994 28.3552 60.3602L29.48 59.9852C30.9681 62.2044 33.4707 63.557 36.1716 63.557C38.8754 63.557 41.3757 62.2052 42.8635 59.9853L43.988 60.3602C45.006 60.6996 45.69 61.6485 45.69 62.7216V66.0461C45.69 66.6124 46.1491 67.0715 46.7154 67.0715C47.2817 67.0715 47.7408 66.6124 47.7408 66.0461V62.7216C47.7408 60.7644 46.4933 59.0335 44.6365 58.4147L40.8115 57.1397C40.7517 57.1197 40.7115 57.064 40.7115 57.001V55.3285C42.8043 54.1402 44.3883 52.1583 45.0528 49.794C46.9905 51.8215 49.6969 53.0132 52.573 53.0132C57.1138 53.0132 61.0979 50.0779 62.4703 45.8042L66.3845 47.3698C67.3351 47.75 67.9492 48.6573 67.9492 49.6809V54.4769H67.8031H64.1423V53.1592C64.1423 52.5929 63.6831 52.1338 63.1169 52.1338C62.5506 52.1338 62.0915 52.5929 62.0915 53.1592V66.0462C62.0915 66.6125 62.5506 67.0716 63.1169 67.0716C63.6831 67.0716 64.1423 66.6125 64.1423 66.0462V56.5277H66.7777V66.0462C66.7777 66.6125 67.2368 67.0716 67.8031 67.0716C68.3693 67.0716 68.8284 66.6125 68.8284 66.0462V56.5277H68.9746C69.2465 56.5277 69.5073 56.4197 69.6996 56.2275C69.892 56.0351 70 55.7744 70 55.5023V49.6809C70.0004 47.8136 68.8803 46.159 67.1465 45.4656ZM52.5735 9.6657C46.0329 9.6657 40.7118 14.9868 40.7118 21.5274C40.7118 23.4094 40.65 25.4397 40.5286 27.5751L42.7425 26.4683C43.0605 26.3093 43.4379 26.3263 43.7401 26.5131C44.0424 26.6999 44.2264 27.0299 44.2264 27.3854V31.9689C45.4855 33.1912 46.4397 34.6746 47.0337 36.2959C48.6552 37.4596 50.5659 38.0753 52.5735 38.0753C54.7757 38.0753 56.8432 37.3453 58.5522 35.9638C60.2132 34.6213 61.3864 32.7425 61.856 30.6733C62.0126 29.9835 62.092 29.2714 62.092 28.5569C62.092 24.6279 59.8311 23.9961 55.4986 23.136L55.4976 23.1358C53.2562 22.6908 50.7657 22.1964 48.5424 20.8789C48.0043 22.2423 46.6847 24.0569 43.4499 24.8656C42.9005 25.0028 42.3437 24.669 42.2064 24.1196C42.069 23.5701 42.403 23.0134 42.9525 22.876C46.8173 21.9098 46.862 19.2117 46.862 19.1845C46.862 18.7902 47.0878 18.4311 47.4432 18.2603C47.7985 18.0895 48.2202 18.1375 48.5279 18.3838C50.6517 20.0828 53.3187 20.6123 55.8979 21.1243C59.9514 21.929 64.1428 22.7611 64.1428 28.5568C64.1428 29.4237 64.0463 30.2885 63.856 31.127C63.285 33.6434 61.8592 35.9276 59.8415 37.5585C59.3512 37.9548 58.8297 38.3071 58.285 38.6158V40.2475C62.2621 39.3775 64.6148 38.0535 65.5336 37.4523C65.2642 35.3735 64.435 28.413 64.435 21.5274C64.435 14.9868 59.114 9.6657 52.5735 9.6657ZM42.1757 32.7552V29.0442L38.4645 30.8998L42.1757 32.7552ZM33.8788 30.8998L30.1679 29.0442V32.7552L33.8788 30.8998ZM13.7663 33.2089V35.5842L13.7666 35.5988C13.7738 38.2573 15.9385 40.418 18.5986 40.418C21.2633 40.418 23.431 38.2502 23.431 35.5857V33.2091C21.9596 33.8883 20.3227 34.2681 18.5986 34.2681C16.8745 34.2681 15.2377 33.8884 13.7663 33.2089ZM9.08009 22.6989C9.08009 27.9474 13.35 32.2173 18.5986 32.2173C23.8473 32.2173 28.1172 27.9473 28.1172 22.6988C28.1172 22.1325 28.5763 21.6734 29.1426 21.6734C29.8693 21.6734 30.4603 21.0823 30.4603 20.3557C30.4603 19.629 29.8691 19.038 29.1426 19.038H27.971C27.4048 19.038 26.9456 18.5789 26.9456 18.0126C26.9456 17.4463 27.4048 16.9872 27.971 16.9872H29.1426C29.1917 16.9872 29.2402 16.9887 29.2887 16.9909V10.9833C29.2887 9.67883 28.5695 8.46298 27.4117 7.81001C27.1392 7.65634 26.9518 7.38672 26.9027 7.07774C26.7095 5.86203 25.6809 4.9795 24.4564 4.9795H15.084C11.1275 4.9795 7.90854 8.19843 7.90854 12.155V16.9911C7.95708 16.9891 8.00575 16.9874 8.0547 16.9874H9.65869L10.5964 14.174C10.7359 13.7553 11.1277 13.4729 11.5691 13.4728C11.6604 13.4728 20.7558 13.4446 25.1692 11.238C25.6759 10.9846 26.2917 11.19 26.5449 11.6965C26.7983 12.2031 26.5929 12.8189 26.0864 13.0722C21.9729 15.129 14.6681 15.4603 12.3117 15.5135L11.3706 18.337C11.231 18.7558 10.8391 19.0381 10.3978 19.0381H8.0547C7.32803 19.0381 6.73699 19.6293 6.73699 20.3558C6.73699 21.0823 7.32817 21.6735 8.0547 21.6735C8.62099 21.6735 9.08009 22.1326 9.08009 22.6989ZM25.4817 31.9889V35.586C25.4817 35.6815 25.4784 35.7764 25.4744 35.8711C26.0736 34.4154 26.9688 33.0836 28.1171 31.9688V29.2643C27.3933 30.3105 26.5017 31.231 25.4817 31.9889ZM36.1718 61.5061C37.9926 61.5061 39.6885 60.6822 40.8173 59.3031L40.1633 59.085C39.2646 58.7856 38.661 57.9479 38.6611 57.001V56.1837C37.8687 56.4062 37.0345 56.5277 36.1719 56.5277C35.3093 56.5277 34.4751 56.4062 33.6826 56.1837V57.001C33.6826 57.9481 33.0789 58.7858 32.1804 59.0852L31.5268 59.303C32.6561 60.6816 34.3531 61.5061 36.1718 61.5061ZM43.3473 46.1298C43.3473 45.5635 43.8064 45.1044 44.3727 45.1044H45.5443C46.2708 45.1044 46.862 44.5132 46.862 43.7867C46.862 43.3191 46.6145 42.8961 46.2 42.6548C45.8843 42.4711 45.6903 42.1336 45.6903 41.7685V40.272C45.6903 38.3649 45.1128 36.518 44.0664 34.9609C43.9845 35.0905 43.8749 35.2033 43.7403 35.2865C43.5757 35.3883 43.3888 35.4397 43.2012 35.4397C43.0445 35.4397 42.8874 35.4037 42.7426 35.3314L36.1719 32.046L29.6011 35.3314C29.4564 35.4037 29.2993 35.4397 29.1426 35.4397C28.9552 35.4397 28.7683 35.3883 28.6035 35.2865C28.4687 35.2033 28.3592 35.0906 28.2773 34.9609C27.2308 36.518 26.6533 38.3649 26.6533 40.272V40.3912C29.3563 40.2831 36.79 39.7418 41.5208 37.0386C42.0123 36.7576 42.6389 36.9284 42.9198 37.4202C43.2008 37.912 43.0299 38.5383 42.5382 38.8192C37.138 41.9051 28.9212 42.3821 26.3865 42.4556C26.3167 42.5327 26.2362 42.6009 26.1436 42.6548C25.7292 42.8959 25.4818 43.3191 25.4818 43.7867C25.4818 44.5133 26.073 45.1044 26.7995 45.1044H27.971C28.5373 45.1044 28.9964 45.5635 28.9964 46.1298V47.3013C28.9964 51.2578 32.2152 54.4768 36.1718 54.4768C40.1283 54.4768 43.3472 51.2578 43.3473 47.3013V47.1759C43.3472 47.1671 43.3473 47.1582 43.3473 47.1493V46.1298ZM45.5677 47.1546C47.1008 49.5168 49.7346 50.9621 52.5735 50.9621C56.2669 50.9621 59.5031 48.5446 60.5628 45.0408L58.3516 44.1563C57.0654 43.6419 56.2343 42.4141 56.2343 41.0288V39.5272C55.0602 39.9187 53.8237 40.1259 52.5735 40.1259C50.8557 40.1259 49.1957 39.7552 47.6752 39.0424C47.7188 39.449 47.7411 39.8594 47.7411 40.2721V41.246C48.4753 41.88 48.9126 42.8079 48.9126 43.7868C48.9126 45.6362 47.4142 47.1419 45.5677 47.1546Z" fill="#E9500E"/>
</svg>
