<svg width="24" height="24" fill="none" xmlns="http://www.w3.org/2000/svg"><g clip-path="url(#clip0)"><path fill-rule="evenodd" clip-rule="evenodd" d="M21 9c0 6.471-9 15-9 15S3 15.471 3 9a9 9 0 1118 0zM9.879 11.121a3 3 0 104.242-4.243 3 3 0 00-4.242 4.243zm5.303 1.061a4.5 4.5 0 11-6.364-6.364 4.5 4.5 0 016.364 6.364z" fill="#E9500E"/><path fill-rule="evenodd" clip-rule="evenodd" d="M12 13.5a4.5 4.5 0 100-9 4.5 4.5 0 000 9zm-2.121-2.379a3 3 0 104.242-4.243 3 3 0 00-4.242 4.243z" fill="#E9500E"/><path d="M12 12a3 3 0 110-6 3 3 0 010 6zm0 1.5a4.5 4.5 0 100-9 4.5 4.5 0 000 9z" fill="#fff"/></g><defs><clipPath id="clip0"><path fill="#fff" d="M0 0h24v24H0z"/></clipPath></defs></svg>