<svg width="50" height="50" fill="none" xmlns="http://www.w3.org/2000/svg"><path d="M21.426 37.7a3.9 3.9 0 00-3.895 3.894 3.9 3.9 0 003.895 3.895 3.9 3.9 0 003.895-3.895 3.9 3.9 0 00-3.895-3.894zm0 5.614c-.948 0-1.72-.771-1.72-1.72 0-.948.772-1.72 1.72-1.72a1.721 1.721 0 010 3.44zM35.088 37.7a3.9 3.9 0 00-3.895 3.894 3.9 3.9 0 003.895 3.895 3.9 3.9 0 003.895-3.895 3.9 3.9 0 00-3.895-3.894zm0 5.614c-.948 0-1.72-.771-1.72-1.72 0-.948.772-1.72 1.72-1.72a1.721 1.721 0 010 3.44zm.958-26.12H20.464a1.087 1.087 0 000 2.175h15.582a1.087 1.087 0 100-2.175zm-.848 5.646H21.312a1.087 1.087 0 000 2.175h13.886a1.087 1.087 0 000-2.174z" fill="#E9500E"/><path d="M46.654 12.35a2.166 2.166 0 00-1.686-.8h-33.87l-.683-3.321A2.177 2.177 0 009.15 6.673L4.378 4.6a1.087 1.087 0 10-.866 1.995l4.773 2.071 5.26 25.54a2.183 2.183 0 002.13 1.735h26.05a1.087 1.087 0 100-2.175h-26.05l-.64-3.106h26.892c1.026 0 1.922-.73 2.13-1.736l3.04-14.763a2.166 2.166 0 00-.443-1.812zm-4.727 16.136h-27.34l-3.04-14.762h33.42l-3.04 14.762z" fill="#E9500E"/></svg>