<svg width="50" height="50" fill="none" xmlns="http://www.w3.org/2000/svg"><g clip-path="url(#clip0)" fill="#E9500E"><path d="M25.653 27.288a.781.781 0 00-.281-.01 1.865 1.865 0 01-1.65-1.849.82.82 0 00-1.64 0 3.508 3.508 0 002.58 3.379v.82a.82.82 0 001.64 0v-.77a3.502 3.502 0 00-.718-6.93 1.862 1.862 0 111.863-1.863.82.82 0 001.64 0 3.509 3.509 0 00-2.785-3.428v-.747a.82.82 0 10-1.64 0v.797a3.502 3.502 0 00.922 6.88 1.86 1.86 0 01.069 3.721z"/><path d="M13.691 22.81c0 6.569 5.325 11.893 11.893 11.893 6.569 0 11.893-5.324 11.893-11.893 0-6.568-5.324-11.892-11.893-11.892-6.565.007-11.885 5.327-11.893 11.892zm11.893-10.252c5.663 0 10.253 4.59 10.253 10.252 0 5.663-4.59 10.253-10.253 10.253-5.662 0-10.252-4.59-10.252-10.253.006-5.66 4.593-10.246 10.252-10.252z"/><path d="M41.52 36.725l-6.424 3.036a5.233 5.233 0 00-4.461-2.753l-5.93-.163a6.263 6.263 0 01-2.696-.696l-.604-.313a10.644 10.644 0 00-9.86.01l.038-1.367a.82.82 0 00-.797-.842l-6.504-.18a.82.82 0 00-.842.798l-.393 14.272a.82.82 0 00.798.842l6.503.18h.022a.82.82 0 00.82-.798l.02-.683 1.689-.905a2.898 2.898 0 012.163-.236l10.089 2.831c.018.005.035.01.053.013a10.942 10.942 0 006.789-.769.756.756 0 00.102-.055l14.628-9.463a.82.82 0 00.269-1.092 4.143 4.143 0 00-5.471-1.667zM4.71 47.752l.347-12.632 4.864.134-.348 12.632-4.864-.134zm26.544-.214a9.299 9.299 0 01-5.687.634l-10.062-2.824a4.535 4.535 0 00-3.38.37l-.864.462.232-8.399a9.015 9.015 0 019.158-.488l.604.312a7.92 7.92 0 003.404.88l5.931.163a3.597 3.597 0 013.42 2.866l-8.835-.244a.82.82 0 00-.046 1.64l9.75.269h.023a.82.82 0 00.82-.798 5.204 5.204 0 00-.08-1.064l6.59-3.114a2.506 2.506 0 012.853.388l-13.83 8.947zm-4.85-38.926V.82a.82.82 0 00-1.64 0v7.792a.82.82 0 001.64 0zm6.152-.001v-3.69a.82.82 0 00-1.64 0v3.69a.82.82 0 001.64 0zm-12.302 0v-3.69a.82.82 0 00-1.64 0v3.69a.82.82 0 001.64 0z"/></g><defs><clipPath id="clip0"><path fill="#fff" d="M0 0h50v50H0z"/></clipPath></defs></svg>