<svg width="70" height="70" fill="none" xmlns="http://www.w3.org/2000/svg"><path fill-rule="evenodd" clip-rule="evenodd" d="M67.147 45.466l-8.034-3.214c-.043-.017-.083-.04-.124-.06 5.548-1.263 8.176-3.374 8.293-3.47.277-.227.416-.583.365-.938-.012-.081-1.161-8.222-1.161-16.256 0-7.672-6.242-13.913-13.913-13.913s-13.912 6.241-13.912 13.912c0 2.102-.096 4.673-.25 7.107l-2.24 1.12-6.57-3.286c-.019-.01-.039-.016-.058-.024a11.49 11.49 0 00.592-2.869 3.375 3.375 0 002.376-3.22 3.362 3.362 0 00-1.172-2.55v-6.822a5.707 5.707 0 00-2.514-4.707 4.508 4.508 0 00-4.369-3.347h-9.372c-5.088 0-9.227 4.139-9.227 9.226v5.65a3.361 3.361 0 00-1.171 2.55 3.375 3.375 0 002.376 3.22 11.565 11.565 0 004.653 8.414v2.834l-8.48 2.544A4.512 4.512 0 000 41.716v11.443c0 .566.46 1.026 1.025 1.026h.147v11.861a1.025 1.025 0 002.05 0V54.184H7.03v11.862a1.025 1.025 0 002.051 0v-17.68c0-.9-.264-1.77-.762-2.519l-1.753-2.629a1.026 1.026 0 00-1.706 1.137l1.752 2.63c.274.41.418.887.418 1.38v3.769H2.051V41.715c0-1.107.713-2.065 1.774-2.384l3.52-1.056 1.969-.59 2.533-.76c.625 3.156 3.414 5.544 6.752 5.544a6.888 6.888 0 006.103-3.707c-.066.498-.1 1.002-.1 1.51v.974a3.368 3.368 0 00-1.171 2.54s-.071.497.056.885.595 1.103.595 1.103a3.365 3.365 0 002.717 1.381h.146v.146c0 3.438 1.892 6.44 4.687 8.027v1.673c0 .063-.04.119-.1.139l-3.825 1.275a4.534 4.534 0 00-3.105 4.307v3.324a1.025 1.025 0 002.051 0v-3.324c0-1.074.684-2.023 1.702-2.362l1.125-.375a8.052 8.052 0 0013.384 0l1.124.375a2.486 2.486 0 011.702 2.362v3.324a1.025 1.025 0 002.05 0v-3.324a4.534 4.534 0 00-3.104-4.307l-3.825-1.275a.146.146 0 01-.1-.139v-1.672a9.263 9.263 0 004.342-5.535 10.407 10.407 0 007.52 3.22c4.54 0 8.525-2.936 9.897-7.21l3.915 1.566a2.477 2.477 0 011.564 2.31v4.797h-3.806v-1.318a1.025 1.025 0 00-2.051 0v12.887a1.025 1.025 0 002.05 0v-9.518h2.636v9.518a1.025 1.025 0 002.05 0v-9.518h.147A1.026 1.026 0 0070 55.502v-5.821a4.517 4.517 0 00-2.853-4.215zm-14.574-35.8c-6.54 0-11.861 5.32-11.861 11.861 0 1.882-.062 3.913-.183 6.048l2.213-1.107a1.025 1.025 0 011.484.917v4.584a11.586 11.586 0 012.808 4.327 9.435 9.435 0 005.54 1.78 9.41 9.41 0 005.978-2.112 9.555 9.555 0 003.304-5.29 9.56 9.56 0 00.236-2.117c0-3.93-2.26-4.56-6.593-5.421h-.001c-2.242-.445-4.732-.94-6.956-2.257-.538 1.363-1.857 3.178-5.092 3.987a1.025 1.025 0 01-.498-1.99c3.865-.966 3.91-3.664 3.91-3.692a1.025 1.025 0 011.666-.8c2.124 1.699 4.79 2.228 7.37 2.74 4.053.805 8.245 1.637 8.245 7.433 0 .867-.097 1.732-.287 2.57a11.614 11.614 0 01-4.014 6.432c-.49.396-1.012.748-1.557 1.057v1.632c3.977-.87 6.33-2.194 7.249-2.796-.27-2.078-1.099-9.039-1.099-15.925 0-6.54-5.321-11.861-11.861-11.861zm-10.397 23.09v-3.712L38.464 30.9l3.712 1.855zM33.879 30.9l-3.711-1.856v3.711l3.71-1.855zm-20.113 2.309v2.39a4.838 4.838 0 004.833 4.819 4.838 4.838 0 004.832-4.832v-2.377a11.501 11.501 0 01-4.832 1.06c-1.724 0-3.361-.38-4.833-1.06zM9.08 22.699c0 5.248 4.27 9.518 9.519 9.518 5.248 0 9.518-4.27 9.518-9.518 0-.567.46-1.026 1.026-1.026a1.32 1.32 0 001.317-1.317 1.32 1.32 0 00-1.317-1.318H27.97a1.025 1.025 0 010-2.05h1.172c.049 0 .097 0 .146.003v-6.008a3.66 3.66 0 00-1.877-3.173 1.025 1.025 0 01-.51-.732 2.47 2.47 0 00-2.446-2.099h-9.372c-3.957 0-7.175 3.22-7.175 7.176v4.836c.048-.002.097-.004.146-.004h1.604l.937-2.813c.14-.419.532-.701.973-.701.091 0 9.187-.028 13.6-2.235a1.025 1.025 0 11.917 1.834c-4.113 2.057-11.418 2.388-13.774 2.442l-.941 2.823c-.14.419-.532.701-.973.701H8.055a1.32 1.32 0 00-1.318 1.318 1.32 1.32 0 001.318 1.317c.566 0 1.025.46 1.025 1.026zm16.402 9.29v3.597c0 .096-.004.19-.008.285a11.586 11.586 0 012.643-3.902v-2.705a11.665 11.665 0 01-2.635 2.725zm10.69 29.517a6 6 0 004.645-2.203l-.654-.218a2.194 2.194 0 01-1.502-2.084v-.817a9.193 9.193 0 01-4.978 0V57c0 .947-.604 1.785-1.503 2.084l-.653.218a6.006 6.006 0 004.645 2.203zm7.175-15.376c0-.567.46-1.026 1.026-1.026h1.171a1.32 1.32 0 001.318-1.317c0-.468-.248-.89-.662-1.132a1.025 1.025 0 01-.51-.886v-1.497a9.528 9.528 0 00-1.624-5.311 1.023 1.023 0 01-1.323.37l-6.571-3.285-6.57 3.285a1.025 1.025 0 01-1.325-.37 9.527 9.527 0 00-1.624 5.311v.12c2.703-.109 10.137-.65 14.868-3.353a1.025 1.025 0 111.017 1.78c-5.4 3.086-13.617 3.563-16.151 3.637-.07.077-.15.145-.243.199a1.302 1.302 0 00-.662 1.132 1.32 1.32 0 001.317 1.317h1.172c.566 0 1.025.46 1.025 1.026v1.17c0 3.957 3.22 7.176 7.176 7.176s7.175-3.22 7.175-7.176v-1.172zm2.22 1.025a8.358 8.358 0 007.007 3.807 8.342 8.342 0 007.989-5.921l-2.211-.885a3.352 3.352 0 01-2.118-3.127v-1.502a11.58 11.58 0 01-3.66.599c-1.718 0-3.378-.37-4.899-1.084.044.407.066.817.066 1.23v.974a3.369 3.369 0 011.172 2.54 3.372 3.372 0 01-3.345 3.369z" fill="#E9500E"/></svg>