<svg width="70" height="70" fill="none" xmlns="http://www.w3.org/2000/svg"><path fill-rule="evenodd" clip-rule="evenodd" d="M35 5c-6.627 0-12 5.373-12 12 0 .37.017.735.05 1.096l.027.003a25.92 25.92 0 001.961.11c1.59.029 3.366-.105 4.563-.626 1.133-.493 2.39-1.613 3.42-2.704a25.669 25.669 0 001.648-1.938l.021-.028.005-.006v-.001l.813-1.1.802 1.107v.002l.005.006.021.028.087.117a24.468 24.468 0 001.55 1.836c1.027 1.096 2.279 2.207 3.409 2.674 1.044.431 2.586.56 3.969.558a25.6 25.6 0 001.602-.058c.03-.355.047-.713.047-1.076 0-6.627-5.373-12-12-12zm11.596 15.1c-.366.02-.788.033-1.241.034-1.421.003-3.303-.118-4.737-.71-1.553-.641-3.051-2.03-4.104-3.156a26.16 26.16 0 01-1.02-1.16c-.282.335-.628.73-1.018 1.144-1.056 1.119-2.548 2.5-4.077 3.165-1.618.704-3.766.821-5.396.792-.59-.01-1.133-.04-1.59-.075C24.791 25.242 29.457 29 35 29c5.479 0 10.102-3.673 11.539-8.692l.057-.207zm-25.283-.145A13.945 13.945 0 0121 17c0-7.732 6.268-14 14-14s14 6.268 14 14a14.105 14.105 0 01-.313 2.955 28.55 28.55 0 00-.207 1.47c-.148 1.296-.217 2.79 0 3.879.158.785.689 1.774 1.254 2.637a18.278 18.278 0 00.956 1.322l.06.076.015.017.003.004L50 30l-.769.64v-.001l-.002-.003-.007-.007-.02-.025a15.08 15.08 0 01-.333-.425 20.373 20.373 0 01-.808-1.142c-.586-.894-1.304-2.155-1.542-3.34a8.046 8.046 0 01-.095-.602A13.981 13.981 0 0135 31a13.981 13.981 0 01-11.424-5.905 8.052 8.052 0 01-.095.601c-.238 1.186-.956 2.447-1.542 3.341a20.373 20.373 0 01-1.14 1.567l-.021.025-.007.007-.002.003L20 30l-.769-.64.004-.004.014-.017.061-.076a18.278 18.278 0 00.956-1.322c.565-.863 1.096-1.852 1.253-2.637.218-1.089.149-2.583.001-3.878a28.222 28.222 0 00-.207-1.471zM35 35c-10.174 0-18 6.475-18 14h-2c0-9.044 9.188-16 20-16 10.813 0 20 6.956 20 16h-2c0-7.525-7.826-14-18-14zM2 58a6 6 0 016-6h54a6 6 0 016 6v10h-2V58a4 4 0 00-4-4H8a4 4 0 00-4 4v10H2V58z" fill="#E9500E"/></svg>