<svg width="9" height="16" viewBox="0 0 9 16" fill="none" xmlns="http://www.w3.org/2000/svg">
<path d="M7.9375 5.28125L7.75 7.73438H5.34375V16H2.1875V7.73438H0.578125V5.26562H2.1875V2.89062C2.1875 2.89062 2.19792 2.74479 2.21875 2.45312C2.23958 2.17188 2.34375 1.85938 2.53125 1.51562C2.72917 1.16146 3.04167 0.828125 3.46875 0.515625C3.90625 0.213542 4.53125 0.046875 5.34375 0.015625C6.14583 -0.0260417 6.83333 0.0104167 7.40625 0.125C7.97917 0.239583 8.26562 0.296875 8.26562 0.296875L7.92188 2.71875C7.92188 2.71875 7.79167 2.6875 7.53125 2.625C7.26042 2.55208 6.96354 2.51562 6.64062 2.51562C6.31771 2.51562 6.02083 2.57812 5.75 2.70312C5.47917 2.82812 5.34375 3.08854 5.34375 3.48438V5.26562H7.9375V5.28125Z" fill="#282828"/>
</svg>
