<svg width="16" height="16" viewBox="0 0 16 16" fill="none" xmlns="http://www.w3.org/2000/svg">
<path d="M15.5469 2.78125C15.4531 2.51042 15.3281 2.26042 15.1719 2.03125C15.026 1.80208 14.8438 1.57812 14.625 1.35938C14.3958 1.13021 14.1667 0.942708 13.9375 0.796875C13.7083 0.651042 13.4635 0.526042 13.2031 0.421875C12.9427 0.317708 12.6615 0.239583 12.3594 0.1875C12.0573 0.125 11.6927 0.0833333 11.2656 0.0625C10.8385 0.0416667 10.4531 0.03125 10.1094 0.03125C9.76562 0.0208333 9.05729 0.015625 7.98438 0.015625C6.89062 0.015625 6.17188 0.0208333 5.82812 0.03125C5.49479 0.03125 5.10417 0.0416667 4.65625 0.0625C4.22917 0.0833333 3.86458 0.125 3.5625 0.1875C3.27083 0.239583 3 0.317708 2.75 0.421875C2.48958 0.526042 2.24479 0.651042 2.01562 0.796875C1.78646 0.942708 1.5625 1.13021 1.34375 1.35938C1.11458 1.57812 0.927083 1.80208 0.78125 2.03125C0.635417 2.26042 0.510417 2.51042 0.40625 2.78125C0.302083 3.04167 0.21875 3.32292 0.15625 3.625C0.104167 3.92708 0.0677083 4.29167 0.046875 4.71875C0.0260417 5.14583 0.0104167 5.53125 0 5.875C0 6.21875 0 6.92708 0 8C0 9.07292 0 9.78125 0 10.125C0.0104167 10.4688 0.0260417 10.8542 0.046875 11.2812C0.0677083 11.7083 0.104167 12.0729 0.15625 12.375C0.21875 12.6771 0.302083 12.9583 0.40625 13.2188C0.510417 13.4896 0.635417 13.7396 0.78125 13.9688C0.927083 14.1979 1.11458 14.4219 1.34375 14.6406C1.5625 14.8698 1.78646 15.0573 2.01562 15.2031C2.24479 15.349 2.48958 15.474 2.75 15.5781C3.02083 15.6823 3.30729 15.7604 3.60938 15.8125C3.91146 15.875 4.27604 15.9167 4.70312 15.9375C5.13021 15.9583 5.51562 15.9688 5.85938 15.9688C6.20312 15.9792 6.92188 15.9844 8.01562 15.9844C9.10938 15.9844 9.82292 15.9792 10.1562 15.9688C10.4896 15.9688 10.8698 15.9583 11.2969 15.9375C11.724 15.9167 12.0885 15.875 12.3906 15.8125C12.6927 15.7604 12.9792 15.6823 13.25 15.5781C13.5104 15.474 13.7552 15.349 13.9844 15.2031C14.2135 15.0573 14.4375 14.8698 14.6562 14.6406C14.8854 14.4219 15.0729 14.1979 15.2188 13.9688C15.3646 13.7396 15.4896 13.4896 15.5938 13.2188C15.6979 12.9583 15.776 12.6771 15.8281 12.375C15.8906 12.0729 15.9323 11.7083 15.9531 11.2812C15.974 10.8542 15.9844 10.4688 15.9844 10.125C15.9948 9.78125 16 9.07292 16 8C16 6.92708 15.9948 6.21875 15.9844 5.875C15.9844 5.53125 15.974 5.14583 15.9531 4.71875C15.9219 4.29167 15.8698 3.92188 15.7969 3.60938C15.7344 3.29688 15.651 3.02083 15.5469 2.78125ZM14.5 11.2344C14.4792 11.6198 14.4427 11.9323 14.3906 12.1719C14.3385 12.4115 14.2812 12.599 14.2188 12.7344C14.1354 12.9219 14.0469 13.0885 13.9531 13.2344C13.8698 13.3802 13.7552 13.526 13.6094 13.6719C13.4635 13.8177 13.3177 13.9375 13.1719 14.0312C13.026 14.1146 12.8594 14.1979 12.6719 14.2812C12.5365 14.3438 12.3542 14.401 12.125 14.4531C11.8958 14.5052 11.5833 14.5417 11.1875 14.5625C10.7604 14.5833 10.3802 14.599 10.0469 14.6094C9.71354 14.6094 9.01042 14.6094 7.9375 14.6094C6.86458 14.6094 6.16146 14.6094 5.82812 14.6094C5.50521 14.599 5.13021 14.5833 4.70312 14.5625C4.31771 14.5417 4.00521 14.5052 3.76562 14.4531C3.52604 14.401 3.33854 14.3438 3.20312 14.2812C3.01562 14.1979 2.84896 14.1146 2.70312 14.0312C2.55729 13.9375 2.41146 13.8177 2.26562 13.6719C2.13021 13.526 2.01562 13.3802 1.92188 13.2344C1.82812 13.0885 1.73958 12.9219 1.65625 12.7344C1.59375 12.599 1.53646 12.4167 1.48438 12.1875C1.43229 11.9583 1.39583 11.6406 1.375 11.2344C1.35417 10.8177 1.34375 10.4427 1.34375 10.1094C1.34375 9.77604 1.34375 9.07292 1.34375 8C1.34375 6.92708 1.34375 6.22396 1.34375 5.89062C1.34375 5.55729 1.35417 5.18229 1.375 4.76562C1.39583 4.38021 1.43229 4.06771 1.48438 3.82812C1.53646 3.58854 1.59375 3.40104 1.65625 3.26562C1.73958 3.07812 1.82812 2.91146 1.92188 2.76562C2.01562 2.61979 2.13021 2.47396 2.26562 2.32812C2.41146 2.18229 2.55729 2.06771 2.70312 1.98438C2.84896 1.89062 3.01562 1.80208 3.20312 1.71875C3.33854 1.65625 3.52083 1.59896 3.75 1.54688C3.97917 1.49479 4.29688 1.45833 4.70312 1.4375C5.13021 1.41667 5.50521 1.40625 5.82812 1.40625C6.16146 1.39583 6.86458 1.39062 7.9375 1.39062C9.01042 1.39062 9.71354 1.39583 10.0469 1.40625C10.3802 1.40625 10.7604 1.41667 11.1875 1.4375C11.5625 1.45833 11.8698 1.49479 12.1094 1.54688C12.349 1.59896 12.5365 1.65625 12.6719 1.71875C12.8594 1.80208 13.026 1.89062 13.1719 1.98438C13.3177 2.06771 13.4635 2.18229 13.6094 2.32812C13.7552 2.47396 13.8698 2.61979 13.9531 2.76562C14.0469 2.91146 14.1354 3.07812 14.2188 3.26562C14.2812 3.40104 14.3385 3.58333 14.3906 3.8125C14.4427 4.04167 14.4792 4.35938 14.5 4.76562C14.5208 5.18229 14.5312 5.55729 14.5312 5.89062C14.5417 6.22396 14.5469 6.92708 14.5469 8C14.5469 9.07292 14.5417 9.77604 14.5312 10.1094C14.5312 10.4427 14.5208 10.8177 14.5 11.2344ZM7.98438 3.90625C7.41146 3.90625 6.88021 4.01562 6.39062 4.23438C5.89062 4.44271 5.45312 4.73438 5.07812 5.10938C4.71354 5.47396 4.42188 5.90625 4.20312 6.40625C3.99479 6.90625 3.89062 7.4375 3.89062 8C3.89062 8.5625 3.99479 9.09375 4.20312 9.59375C4.42188 10.0938 4.71354 10.5312 5.07812 10.9062C5.45312 11.2708 5.89062 11.5573 6.39062 11.7656C6.88021 11.9844 7.41146 12.0938 7.98438 12.0938C8.54688 12.0938 9.07812 11.9844 9.57812 11.7656C10.0781 11.5573 10.5104 11.2708 10.875 10.9062C11.25 10.5312 11.5417 10.0938 11.75 9.59375C11.9688 9.09375 12.0781 8.5625 12.0781 8C12.0781 7.4375 11.9688 6.90625 11.75 6.40625C11.5417 5.90625 11.25 5.47396 10.875 5.10938C10.5104 4.73438 10.0781 4.44271 9.57812 4.23438C9.07812 4.01562 8.54688 3.90625 7.98438 3.90625ZM7.98438 10.6719C7.25521 10.6719 6.625 10.4115 6.09375 9.89062C5.57292 9.35938 5.3125 8.72917 5.3125 8C5.3125 7.27083 5.57292 6.64583 6.09375 6.125C6.625 5.59375 7.25521 5.32812 7.98438 5.32812C8.71354 5.32812 9.33854 5.59375 9.85938 6.125C10.3906 6.64583 10.6562 7.27083 10.6562 8C10.6562 8.72917 10.3906 9.35938 9.85938 9.89062C9.33854 10.4115 8.71354 10.6719 7.98438 10.6719ZM12.2344 2.78125C11.974 2.78125 11.7448 2.88021 11.5469 3.07812C11.3594 3.26562 11.2656 3.48958 11.2656 3.75C11.2656 4.01042 11.3594 4.23958 11.5469 4.4375C11.7448 4.625 11.974 4.71875 12.2344 4.71875C12.4948 4.71875 12.7188 4.625 12.9062 4.4375C13.1042 4.23958 13.2031 4.01042 13.2031 3.75C13.2031 3.48958 13.1094 3.26562 12.9219 3.07812C12.7448 2.88021 12.5156 2.78125 12.2344 2.78125Z" fill="#282828"/>
</svg>
