<svg width="113" height="38" viewBox="0 0 113 38" fill="none" xmlns="http://www.w3.org/2000/svg">
<path d="M0.158105 18.8512V18.7484C0.113484 16.2783 0.575783 13.825 1.51713 11.5362C2.45848 9.24735 3.85937 7.17052 5.63536 5.43089C7.41134 3.69126 9.52563 2.32486 11.8507 1.41407C14.1759 0.503285 16.6636 0.0669725 19.1641 0.131442C21.8211 0.000605009 24.4759 0.428018 26.9533 1.38545C29.4307 2.34288 31.6742 3.80855 33.5356 5.68563L28.4326 11.497C25.9853 8.98813 22.638 7.52909 19.112 7.43423C12.9676 7.43423 8.54157 12.4742 8.54157 18.6455V18.7484C8.54157 24.9197 12.8634 30.0626 19.112 30.0626C23.2777 30.0626 25.8292 28.4169 28.693 25.8455L33.796 30.9368C31.9611 33.0569 29.6623 34.7372 27.0734 35.8509C24.4844 36.9646 21.673 37.4825 18.8516 37.3654C16.3813 37.405 13.9282 36.9527 11.6387 36.0357C9.34916 35.1186 7.2701 33.7555 5.52551 32.0276C3.78093 30.2998 2.40657 28.2426 1.48441 25.9788C0.562246 23.715 0.111176 21.2909 0.158105 18.8512Z" fill="#222222"/>
<path d="M39.5409 18.8512V18.7484C39.4963 16.2783 39.9586 13.825 40.8999 11.5362C41.8413 9.24735 43.2422 7.17053 45.0182 5.4309C46.7941 3.69127 48.9084 2.32486 51.2335 1.41408C53.5587 0.503286 56.0464 0.0669733 58.5469 0.131443C61.2039 0.000603229 63.8587 0.428015 66.3361 1.38545C68.8135 2.34288 71.057 3.80854 72.9184 5.68563L67.8155 11.497C65.3681 8.98812 62.0209 7.52907 58.4948 7.43423C52.3504 7.43423 47.9244 12.4742 47.9244 18.6455V18.7484C47.9244 24.9197 52.2462 30.0626 58.4948 30.0626C62.6605 30.0626 65.212 28.4169 68.0758 25.8455L73.1787 30.9368C71.3439 33.0568 69.0451 34.7372 66.4562 35.8509C63.8673 36.9646 61.0559 37.4825 58.2345 37.3654C55.7642 37.405 53.3111 36.9527 51.0215 36.0357C48.732 35.1186 46.6529 33.7555 44.9083 32.0276C43.1638 30.2998 41.7894 28.2426 40.8672 25.9788C39.9451 23.715 39.494 21.2909 39.5409 18.8512Z" fill="#222222"/>
<path d="M78.8454 18.8512V18.7484C78.8007 16.2783 79.263 13.825 80.2044 11.5362C81.1457 9.24735 82.5466 7.17052 84.3226 5.43089C86.0986 3.69126 88.2129 2.32486 90.538 1.41407C92.8631 0.503286 95.3509 0.066973 97.8513 0.131443C100.508 0.000603952 103.163 0.428016 105.641 1.38545C108.118 2.34288 110.361 3.80855 112.223 5.68563L107.12 11.497C104.672 8.98815 101.325 7.52911 97.7992 7.43423C91.6549 7.43423 87.2288 12.4742 87.2288 18.6455V18.7484C87.2288 24.9197 91.5506 30.0626 97.7992 30.0626C101.965 30.0626 104.516 28.4169 107.38 25.8455L112.483 30.9368C110.648 33.0569 108.35 34.7372 105.761 35.8509C103.172 36.9646 100.36 37.4825 97.5389 37.3654C95.0686 37.405 92.6155 36.9527 90.3259 36.0357C88.0364 35.1186 85.9574 33.7555 84.2128 32.0276C82.4682 30.2998 81.0938 28.2426 80.1717 25.9788C79.2495 23.715 78.7984 21.2909 78.8454 18.8512Z" fill="#222222"/>
</svg>
