<svg width="16" height="16" viewBox="0 0 16 16" fill="none" xmlns="http://www.w3.org/2000/svg">
<path d="M4.90321 11.0968C7.32459 13.518 10.6146 15.9998 12.7942 15.9995C13.1523 16.0074 13.5066 15.9247 13.8241 15.7589C14.7162 15.2723 15.4024 14.3388 15.8638 12.9841C16.0328 12.4882 16.1738 11.7682 15.4509 11.2435L12.9691 9.44251C12.2206 8.89986 11.5545 9.64108 11.0678 10.1822C10.5088 10.8042 10.3011 10.9479 10.1426 10.8212C8.82701 9.77088 6.22885 7.17296 5.17862 5.85723C5.0522 5.69878 5.19547 5.49127 5.81748 4.93213C6.35875 4.44549 7.10023 3.77903 6.55723 3.03088L4.75613 0.549298C4.2317 -0.173845 3.5114 -0.0327583 3.01547 0.136107C1.66065 0.597659 0.727111 1.284 0.240534 2.17594C-0.868565 4.20986 2.05917 8.25268 4.90321 11.0968ZM1.02109 2.60154C1.39757 1.91147 2.16492 1.36509 3.30216 0.977691C3.43738 0.925273 3.58002 0.894507 3.72483 0.886527C3.78896 0.884652 3.8523 0.90103 3.90748 0.933754C3.96266 0.966479 4.00741 1.0142 4.03652 1.07137L5.83762 3.55303C5.84596 3.5645 5.84926 3.5711 5.84926 3.5711C5.84683 3.71019 5.44118 4.07485 5.22308 4.27098C4.65542 4.78124 3.79758 5.55232 4.48367 6.41187C5.56378 7.76475 8.23504 10.436 9.58794 11.516C10.4477 12.2019 11.2187 11.3442 11.729 10.7766C11.9254 10.5581 12.2912 10.1513 12.4263 10.15C12.4336 10.153 12.4405 10.1571 12.4467 10.1621L14.9285 11.9631C15.0826 12.0748 15.2043 12.1631 15.0223 12.6974C14.6351 13.8345 14.0886 14.6019 13.3984 14.9784C12.139 15.6643 8.83169 13.7676 5.53183 10.4681C2.23196 7.16827 0.335005 3.85996 1.02109 2.60154Z" fill="#222222"/>
</svg>
