<svg dispaly="none" xmlns="http://www.w3.org/2000/svg">
    <symbol id="search" viewBox="0 0 21 21">
        <path
            d="M15.7544 15.4925L20.5 20M17.8461 9.77628C17.8461 14.6233 13.9631 18.5526 9.17307 18.5526C4.38306 18.5526 0.5 14.6233 0.5 9.77628C0.5 4.92927 4.38306 1 9.17307 1C13.9631 1 17.8461 4.92927 17.8461 9.77628Z" />
    </symbol>
    <symbol id="autorization" viewBox="0 0 21 21">
        <path
            d="M9.5 13C12.8137 13 15.5 10.3137 15.5 7C15.5 3.68629 12.8137 1 9.5 1C6.18629 1 3.5 3.68629 3.5 7C3.5 10.3137 6.18629 13 9.5 13ZM9.5 13C4.52944 13 0.5 16.5817 0.5 21M9.5 13C14.4706 13 18.5 16.5817 18.5 21" />
    </symbol>
    <symbol id="favorit" viewBox="0 0 21 20">
        <path
            d="M10.4992 5.69565C10.4992 2.67009 8.26049 1 5.49886 1C2.16529 1 0.53581 3.34783 0.5 6.47826C0.5 10.7826 5.49887 14.3043 10.4992 19C15.5004 14.3043 20.5 10.7826 20.5 6.47826C20.4642 3.34783 18.8345 1 15.5004 1C12.7383 1 10.4992 2.67009 10.4992 5.69565Z" />
    </symbol>
    <symbol id="basket" viewBox="0 0 21 22">
        <path
            d="M13.7222 8.90278V4.11111C13.7222 2.39289 12.3293 1 10.6111 1C8.89289 1 7.5 2.39289 7.5 4.11111V9M1.5 5H19.5L20.5 21H0.5L1.5 5Z" />
    </symbol>
    <symbol id="facebook" viewBox="0 0 24 24">
        <path fill="" stroke="none"
            d="M9.5 14.5V23H12.5V14.5H16V11.5H12.5003C12.5133 9.95468 12.8829 9.69055 12.915 9.66757L12.9156 9.66718C12.9655 9.63135 13.0729 9.5766 13.3222 9.54085C13.5879 9.50276 13.8942 9.50003 14.3333 9.50003H16V6.50003H14.3333C14.2933 6.50003 14.2512 6.49986 14.207 6.49967C13.4761 6.49668 12.1966 6.49145 11.1678 7.22888C9.96399 8.09175 9.51299 9.58589 9.50028 11.5H7V14.5H9.5Z" />
        <path fill="none"
            d="M11.9956 1C9.00992 1 8.63452 1.0131 7.46032 1.06548C6.29048 1.11786 5.49167 1.30556 4.79325 1.57619C4.06865 1.85556 3.45754 2.23532 2.84643 2.84643C2.23532 3.45754 1.85992 4.07302 1.57619 4.79325C1.30556 5.49167 1.11786 6.29048 1.06548 7.46468C1.0131 8.63452 1 9.00992 1 11.9956C1 14.9813 1.0131 15.3567 1.06548 16.531C1.11786 17.7008 1.30556 18.4996 1.57619 19.2024C1.85556 19.927 2.23532 20.5381 2.84643 21.1492C3.45754 21.7603 4.07302 22.1357 4.79325 22.4194C5.49167 22.6901 6.29048 22.8778 7.46468 22.9302C8.63889 22.9825 9.00992 22.9956 12 22.9956C14.9901 22.9956 15.3611 22.9825 16.5353 22.9302C17.7052 22.8778 18.504 22.6901 19.2067 22.4194C19.9314 22.1401 20.5425 21.7603 21.1536 21.1492C21.7647 20.5381 22.1401 19.9226 22.4238 19.2024C22.6944 18.504 22.8821 17.7052 22.9345 16.531C22.9869 15.3567 23 14.9857 23 11.9956C23 9.00555 22.9869 8.63452 22.9345 7.46032C22.8821 6.29048 22.6944 5.49167 22.4238 4.78889C22.1444 4.06429 21.7647 3.45317 21.1536 2.84206C20.5425 2.23095 19.927 1.85556 19.2067 1.57183C18.5083 1.30119 17.7095 1.11349 16.5353 1.06111C15.3567 1.0131 14.9813 1 11.9956 1Z" />
    </symbol>
    <symbol id="instagram" viewBox="0 0 24 24">
        <path fill="none"
            d="M11.9956 1C9.00992 1 8.63452 1.0131 7.46032 1.06548C6.29048 1.11786 5.49167 1.30556 4.79325 1.57619C4.06865 1.85556 3.45754 2.23532 2.84643 2.84643C2.23532 3.45754 1.85992 4.07302 1.57619 4.79325C1.30556 5.49167 1.11786 6.29048 1.06548 7.46468C1.0131 8.63452 1 9.00992 1 11.9956C1 14.9813 1.0131 15.3567 1.06548 16.531C1.11786 17.7008 1.30556 18.4996 1.57619 19.2024C1.85556 19.927 2.23532 20.5381 2.84643 21.1492C3.45754 21.7603 4.07302 22.1357 4.79325 22.4194C5.49167 22.6901 6.29048 22.8778 7.46468 22.9302C8.63889 22.9825 9.00992 22.9956 12 22.9956C14.9901 22.9956 15.3611 22.9825 16.5353 22.9302C17.7052 22.8778 18.504 22.6901 19.2067 22.4194C19.9314 22.1401 20.5425 21.7603 21.1536 21.1492C21.7647 20.5381 22.1401 19.9226 22.4238 19.2024C22.6944 18.504 22.8821 17.7052 22.9345 16.531C22.9869 15.3567 23 14.9857 23 11.9956C23 9.00555 22.9869 8.63452 22.9345 7.46032C22.8821 6.29048 22.6944 5.49167 22.4238 4.78889C22.1444 4.06429 21.7647 3.45317 21.1536 2.84206C20.5425 2.23095 19.927 1.85556 19.2067 1.57183C18.5083 1.30119 17.7095 1.11349 16.5353 1.06111C15.3567 1.0131 14.9813 1 11.9956 1Z" />
        <path fill="none"
            d="M11.5 7C8.46522 7 6 9.46097 6 12.5C6 15.539 8.46522 18 11.5 18C14.5348 18 17 15.5348 17 12.5C17 9.46522 14.5348 7 11.5 7Z" />
        <path
            d="M17.5 7C18.3284 7 19 6.32843 19 5.5C19 4.67157 18.3284 4 17.5 4C16.6716 4 16 4.67157 16 5.5C16 6.32843 16.6716 7 17.5 7Z" />
    </symbol>
    <symbol id="vk" viewBox="0 0 24 24">
        <path stroke="none"
            d="M19.633 7.67714C19.7437 7.28714 19.633 7 19.103 7H17.3531C16.9077 7 16.7024 7.24786 16.5911 7.52143C16.5911 7.52143 15.7011 9.80429 14.4404 11.2871C14.0325 11.7171 13.8471 11.8536 13.6245 11.8536C13.5131 11.8536 13.3458 11.7171 13.3458 11.3264V7.67714C13.3458 7.20857 13.2231 7 12.8525 7H10.1005C9.82254 7 9.65521 7.21714 9.65521 7.42357C9.65521 7.86714 10.2859 7.97 10.3505 9.21857V11.9314C10.3505 12.5264 10.2485 12.6343 10.0259 12.6343C9.43255 12.6343 7.98925 10.3407 7.1326 7.71643C6.9666 7.20571 6.79861 7 6.35128 7H4.59999C4.1 7 4 7.24786 4 7.52143C4 8.00857 4.59332 10.4286 6.76328 13.6293C8.20991 15.815 10.2465 17 12.1018 17C13.2145 17 13.3518 16.7371 13.3518 16.2836V14.6314C13.3518 14.105 13.4571 14 13.8098 14C14.0698 14 14.5144 14.1371 15.5531 15.1907C16.7397 16.44 16.9351 17 17.603 17H19.353C19.853 17 20.1037 16.7371 19.9597 16.2171C19.801 15.7 19.2343 14.9493 18.483 14.0586C18.075 13.5514 17.4631 13.005 17.2771 12.7314C17.0177 12.3807 17.0917 12.2243 17.2771 11.9121C17.2771 11.9121 19.4103 8.75071 19.6323 7.67714H19.633Z" />
        <path fill="none"
            d="M11.9956 1C9.00992 1 8.63452 1.0131 7.46032 1.06548C6.29048 1.11786 5.49167 1.30556 4.79325 1.57619C4.06865 1.85556 3.45754 2.23532 2.84643 2.84643C2.23532 3.45754 1.85992 4.07302 1.57619 4.79325C1.30556 5.49167 1.11786 6.29048 1.06548 7.46468C1.0131 8.63452 1 9.00992 1 11.9956C1 14.9813 1.0131 15.3567 1.06548 16.531C1.11786 17.7008 1.30556 18.4996 1.57619 19.2024C1.85556 19.927 2.23532 20.5381 2.84643 21.1492C3.45754 21.7603 4.07302 22.1357 4.79325 22.4194C5.49167 22.6901 6.29048 22.8778 7.46468 22.9302C8.63889 22.9825 9.00992 22.9956 12 22.9956C14.9901 22.9956 15.3611 22.9825 16.5353 22.9302C17.7052 22.8778 18.504 22.6901 19.2067 22.4194C19.9314 22.1401 20.5425 21.7603 21.1536 21.1492C21.7647 20.5381 22.1401 19.9226 22.4238 19.2024C22.6944 18.504 22.8821 17.7052 22.9345 16.531C22.9869 15.3567 23 14.9857 23 11.9956C23 9.00555 22.9869 8.63452 22.9345 7.46032C22.8821 6.29048 22.6944 5.49167 22.4238 4.78889C22.1444 4.06429 21.7647 3.45317 21.1536 2.84206C20.5425 2.23095 19.927 1.85556 19.2067 1.57183C18.5083 1.30119 17.7095 1.11349 16.5353 1.06111C15.3567 1.0131 14.9813 1 11.9956 1Z" />
    </symbol>
    <symbol id="close" viewBox="0 0 24 24">
        <path d="M18 6L12 12M12 12L6 18M12 12L6 6M12 12L18 18" stroke-linecap="round" stroke-linejoin="round" />
    </symbol>
    <symbol id="arrow_r" viewBox="0 0 14 12">
        <path d="M7.66667 11L13 6M13 6L7.66667 1M13 6L1 6" stroke-linecap="round" stroke-linejoin="round" />
    </symbol>
    <symbol id="logo" viewBox="0 0 200 66">
        <path
            d="M0.280289 33.0315V32.8513C0.201314 28.5233 1.01954 24.2244 2.68564 20.2139C4.35174 16.2034 6.83121 12.5644 9.97454 9.51621C13.1179 6.468 16.86 4.07378 20.9752 2.47788C25.0905 0.881989 29.4936 0.117476 33.9192 0.230441C38.6218 0.0011865 43.3207 0.750105 47.7054 2.42773C52.0901 4.10535 56.061 6.67351 59.3556 9.96256L50.3236 20.1454C45.9921 15.7492 40.0678 13.1927 33.827 13.0265C22.952 13.0265 15.1183 21.8575 15.1183 32.6711V32.8512C15.1183 43.6648 22.7675 52.6762 33.827 52.6762C41.1999 52.6762 45.7158 49.7926 50.7845 45.287L59.8163 54.208C56.5688 57.9227 52.5002 60.8671 47.918 62.8185C43.3357 64.7699 38.3598 65.6774 33.3662 65.4723C28.9939 65.5416 24.6522 64.7492 20.5999 63.1423C16.5476 61.5354 12.8679 59.1469 9.78013 56.1193C6.69237 53.0918 4.25987 49.4872 2.62773 45.5205C0.995583 41.5538 0.19723 37.3064 0.280289 33.0315Z" />
        <path
            d="M69.9839 33.0315V32.8513C69.9049 28.5232 70.7231 24.2244 72.3892 20.2139C74.0553 16.2034 76.5348 12.5644 79.6781 9.51621C82.8215 6.46801 86.5636 4.07378 90.6788 2.47789C94.7941 0.88199 99.1972 0.117478 103.623 0.230443C108.325 0.00118338 113.024 0.7501 117.409 2.42772C121.794 4.10535 125.765 6.6735 129.059 9.96256L120.027 20.1454C115.696 15.7492 109.771 13.1927 103.531 13.0265C92.6556 13.0265 84.8219 21.8575 84.8219 32.6711V32.8512C84.8219 43.6648 92.4711 52.6762 103.531 52.6762C110.903 52.6762 115.419 49.7925 120.488 45.2869L129.52 54.208C126.272 57.9227 122.204 60.8671 117.622 62.8185C113.039 64.7699 108.063 65.6774 103.07 65.4723C98.6976 65.5416 94.3559 64.7492 90.3036 63.1423C86.2513 61.5354 82.5715 59.1469 79.4838 56.1194C76.396 53.0918 73.9635 49.4872 72.3313 45.5205C70.6992 41.5538 69.9008 37.3064 69.9839 33.0315Z" />
        <path
            d="M139.549 33.0315V32.8513C139.47 28.5233 140.289 24.2244 141.955 20.2139C143.621 16.2034 146.1 12.5644 149.244 9.51621C152.387 6.46801 156.129 4.07378 160.244 2.47789C164.359 0.88199 168.763 0.117477 173.188 0.230442C177.891 0.00118464 182.59 0.750102 186.974 2.42773C191.359 4.10535 195.33 6.67351 198.625 9.96256L189.593 20.1454C185.261 15.7493 179.337 13.1927 173.096 13.0265C162.221 13.0265 154.387 21.8575 154.387 32.6711V32.8512C154.387 43.6648 162.037 52.6762 173.096 52.6762C180.469 52.6762 184.985 49.7926 190.054 45.287L199.085 54.208C195.838 57.9227 191.769 60.8671 187.187 62.8185C182.605 64.7699 177.629 65.6774 172.635 65.4723C168.263 65.5416 163.921 64.7492 159.869 63.1423C155.817 61.5354 152.137 59.1469 149.049 56.1193C145.961 53.0918 143.529 49.4872 141.897 45.5205C140.265 41.5538 139.466 37.3064 139.549 33.0315Z" />
    </symbol>
    <symbol id="free_shipping" viewBox="0 0 79 56">
        <path fill-rule="evenodd" clip-rule="evenodd"
            d="M6.40541 0H7.11712H46.973H47.6847V0.717949V7.89744H64.7658H64.9929L65.178 8.03013L78.7005 17.7224L79 17.9371V18.3077V43.7949V44.5128H78.2883H71.8829C71.8829 50.857 66.7846 56 60.4955 56C54.2064 56 49.1081 50.857 49.1081 44.5128H47.6847H46.973H46.2613H35.5856C35.5856 50.857 30.4873 56 24.1982 56C17.9091 56 12.8108 50.857 12.8108 44.5128H7.11712H6.40541V43.7949V30.8718H0V29.4359H6.40541V22.9744H0V21.5385H6.40541V0.717949V0ZM50.5315 44.5128C50.5315 50.064 54.9925 54.5641 60.4955 54.5641C65.9984 54.5641 70.4595 50.064 70.4595 44.5128C70.4595 38.9617 65.9984 34.4615 60.4955 34.4615C54.9925 34.4615 50.5315 38.9617 50.5315 44.5128ZM49.1962 43.0769H47.6847V9.33333H64.5387L77.5766 18.6783V43.0769H71.7948C71.0943 37.4104 66.3025 33.0256 60.4955 33.0256C54.6885 33.0256 49.8967 37.4104 49.1962 43.0769ZM46.2613 43.0769H35.4975C34.797 37.4104 30.0052 33.0256 24.1982 33.0256C18.3912 33.0256 13.5994 37.4104 12.8989 43.0769H7.82883V30.8718H11.3874V29.4359H7.82883V22.9744H26.3333V21.5385H7.82883V1.4359H46.2613V7.89744V8.61539V43.0769ZM0 10.7692H3.55856V9.33333H0V10.7692ZM24.1982 54.5641C29.7011 54.5641 34.1622 50.064 34.1622 44.5128C34.1622 38.9617 29.7011 34.4615 24.1982 34.4615C18.6953 34.4615 14.2342 38.9617 14.2342 44.5128C14.2342 50.064 18.6953 54.5641 24.1982 54.5641Z" />
    </symbol>
    <symbol id="high_quality" viewBox="0 0 46 46">
        <path
            d="M12.851 18.7241C33.3097 -17.115 66.392 9.00258 26.9254 32.7986L25.9098 33.2339L12.4157 19.7398L12.851 18.7241ZM1.53333 39.328C0.517644 34.83 2.69411 29.4614 7.91763 24.2378L20.6862 37.0065C11.9804 48.6143 3.1294 46.1476 1.53333 39.328Z" />
    </symbol>
    <symbol id="100" viewBox="0 0 53 56">
        <path
            d="M47.3036 10.1658C42.4328 5.1017 35.5537 1.94521 27.9273 1.94521C13.1578 1.94521 1.1924 13.784 1.1924 28.3786C1.1924 42.9732 13.1578 54.812 27.9273 54.812C38.4639 54.812 47.5758 48.7858 51.9316 40.0301L53 40.5577C48.449 49.7056 38.9307 56 27.9273 56C12.5077 56 0 43.6377 0 28.3786C0 13.1195 12.5077 0.757195 27.9273 0.757195C35.2985 0.757195 42.0041 3.58242 46.9953 8.19748L44.7381 0.326373L45.8846 0L49.0401 11.0034L38.8806 13.2177L38.6258 12.0571L47.3036 10.1658Z" />
        <path d="M17.2541 34.0216H15.8948V22.4741L12.7468 24.3274L12.1387 23.2938L15.9305 21.0307H17.2541V34.0216Z" />
        <path
            d="M25.4354 34.1642C24.0642 34.1642 22.9135 33.7009 21.9834 32.7742C21.5542 32.299 21.1964 31.8001 20.9103 31.2773C20.326 30.1606 20.0338 28.925 20.0338 27.5707C20.0219 26.5965 20.1889 25.6402 20.5347 24.7016C20.8924 23.7512 21.3872 22.9553 22.0192 22.3137C22.9374 21.3752 24.094 20.9059 25.4891 20.9059C26.8842 20.9059 28.0349 21.3693 28.9411 22.2959C29.3465 22.7117 29.7042 23.2047 30.0143 23.775C30.5866 24.8799 30.8728 26.1213 30.8728 27.4994C30.8967 28.4855 30.7297 29.4478 30.372 30.3863C30.0262 31.3248 29.5373 32.1089 28.9053 32.7386C27.9872 33.689 26.8306 34.1642 25.4354 34.1642ZM26.9379 22.4919C26.4967 22.2662 26.0018 22.1534 25.4533 22.1534C24.9048 22.1534 24.41 22.2662 23.9688 22.4919C23.5037 22.7058 23.1222 22.9968 22.8241 23.3651C22.1921 24.1017 21.7807 24.9987 21.5899 26.056C21.2799 27.5885 21.4349 29.0379 22.055 30.4041C22.5081 31.4377 23.146 32.1565 23.9688 32.5604C24.4219 32.7861 24.9227 32.899 25.4712 32.899C26.0078 32.899 26.5026 32.792 26.9558 32.5782C27.4327 32.3287 27.8143 32.0377 28.1005 31.705C28.7086 30.9803 29.12 30.0893 29.3346 29.032C29.6446 27.4875 29.4896 26.0322 28.8696 24.666C28.4165 23.6324 27.7726 22.9077 26.9379 22.4919Z" />
        <path
            d="M38.2212 34.1642C36.8499 34.1642 35.6992 33.7009 34.7692 32.7742C34.3399 32.299 33.9822 31.8001 33.696 31.2773C33.1117 30.1606 32.8196 28.925 32.8196 27.5707C32.8077 26.5965 32.9746 25.6402 33.3204 24.7016C33.6781 23.7512 34.173 22.9553 34.8049 22.3137C35.7231 21.3752 36.8797 20.9059 38.2748 20.9059C39.67 20.9059 40.8206 21.3693 41.7269 22.2959C42.1323 22.7117 42.49 23.2047 42.8 23.775C43.3724 24.8799 43.6586 26.1213 43.6586 27.4994C43.6824 28.4855 43.5155 29.4478 43.1577 30.3863C42.8119 31.3248 42.3231 32.1089 41.6911 32.7386C40.7729 33.689 39.6163 34.1642 38.2212 34.1642ZM39.7236 22.4919C39.2824 22.2662 38.7876 22.1534 38.2391 22.1534C37.6906 22.1534 37.1957 22.2662 36.7545 22.4919C36.2895 22.7058 35.9079 22.9968 35.6098 23.3651C34.9778 24.1017 34.5665 24.9987 34.3757 26.056C34.0657 27.5885 34.2207 29.0379 34.8407 30.4041C35.2938 31.4377 35.9318 32.1565 36.7545 32.5604C37.2076 32.7861 37.7085 32.899 38.257 32.899C38.7935 32.899 39.2884 32.792 39.7415 32.5782C40.2185 32.3287 40.6 32.0377 40.8862 31.705C41.4943 30.9803 41.9057 30.0893 42.1204 29.032C42.4304 27.4875 42.2754 26.0322 41.6553 24.666C41.2022 23.6324 40.5583 22.9077 39.7236 22.4919Z" />
    </symbol>
    <symbol id="return" viewBox="0 0 42 56">
        <path fill-rule="evenodd" clip-rule="evenodd"
            d="M27.4773 18.24C27.4773 21.9514 24.4629 24.96 20.7444 24.96C17.0259 24.96 14.0115 21.9514 14.0115 18.24C14.0115 14.5286 17.0259 11.52 20.7444 11.52C24.4629 11.52 27.4773 14.5286 27.4773 18.24ZM26.1948 18.24C26.1948 21.2444 23.7546 23.68 20.7444 23.68C17.7342 23.68 15.294 21.2444 15.294 18.24C15.294 15.2356 17.7342 12.8 20.7444 12.8C23.7546 12.8 26.1948 15.2356 26.1948 18.24Z" />
        <path fill-rule="evenodd" clip-rule="evenodd"
            d="M41.905 22.08C41.0621 31.8942 25.6947 50.5538 21.9046 55.0213C21.3694 55.6521 21.0651 56 21.0651 56C21.0651 56 20.7493 55.6634 20.1951 55.0476C16.4605 50.8972 1.90025 34.0621 0.225148 22.08C-1.90204 6.86407 11.5033 0 21.0651 0C30.6269 0 43.2193 6.77612 41.905 22.08ZM40.6272 21.9707C40.4103 24.497 39.0959 27.8242 37.1138 31.4982C35.1511 35.1362 32.6106 38.9769 30.0823 42.4938C27.5568 46.0069 25.0589 49.1757 23.1912 51.4673C22.31 52.5485 21.5701 53.4332 21.0351 54.0653C20.5327 53.5051 19.8555 52.7386 19.054 51.8031C17.2651 49.7151 14.8615 46.7906 12.4005 43.4428C9.9373 40.0922 7.42998 36.3357 5.4245 32.5826C3.41082 28.8142 1.94612 25.1278 1.4953 21.9031C0.495974 14.7549 3.1256 9.66198 7.09051 6.31084C11.1123 2.91163 16.5499 1.28 21.0651 1.28C25.5754 1.28 30.8056 2.88656 34.7247 6.26923C38.5973 9.61175 41.2488 14.733 40.6272 21.9707Z" />
    </symbol>
    <symbol id="face-sign" viewBox="0 0 10 20">
        <path fill-rule="evenodd" clip-rule="evenodd"
            d="M2.77778 9.69745V20H6.11111V9.69745H10V6.06125H6.11145C6.12589 4.18819 6.53656 3.86805 6.57222 3.84019L6.57289 3.83972C6.62833 3.79629 6.74767 3.72993 7.02467 3.6866C7.31989 3.64043 7.66022 3.63712 8.14811 3.63712H10V0.000929867H8.14811C8.10367 0.000929867 8.05689 0.000723802 8.00778 0.000493509C7.19567 -0.00313056 5.774 -0.00946976 4.63089 0.884343C3.29332 1.9302 2.79221 3.74119 2.77809 6.06125H0V9.69745H2.77778Z" />
    </symbol>
    <symbol id="vk-sign" viewBox="0 0 23 13">
        <path
            d="M11.2539 12.9451H12.6283C12.6283 12.9451 13.0436 12.8998 13.2551 12.6733C13.4508 12.4655 13.4433 12.075 13.4433 12.075C13.4433 12.075 13.4162 10.248 14.273 9.97871C15.1169 9.71385 16.2007 11.745 17.3494 12.5266C18.2177 13.1174 18.8777 12.988 18.8777 12.988L21.9498 12.9452C21.9498 12.9452 23.5569 12.847 22.795 11.5952C22.7333 11.4929 22.3508 10.6696 20.5107 8.97765C18.5843 7.20601 18.8428 7.49363 21.1632 4.43036C22.5764 2.56486 23.1416 1.42551 22.9646 0.938456C22.7964 0.474212 21.7572 0.596785 21.7572 0.596785L18.301 0.616832C18.301 0.616832 18.045 0.582498 17.854 0.695071C17.6683 0.806025 17.549 1.0625 17.549 1.0625C17.549 1.0625 17.0014 2.50638 16.2711 3.73435C14.7313 6.32457 14.1148 6.46138 13.863 6.30028C13.2778 5.9259 13.4247 4.7935 13.4247 3.99035C13.4247 1.47956 13.8086 0.432973 12.6757 0.162446C12.2989 0.0726827 12.023 0.0128248 11.0614 0.00301517C9.82772 -0.00993737 8.78259 0.00720571 8.19194 0.293352C7.79794 0.484259 7.49447 0.910169 7.67995 0.934264C7.90856 0.964217 8.42605 1.07236 8.70074 1.44279C9.05593 1.9198 9.04287 2.99372 9.04287 2.99372C9.04287 2.99372 9.24686 5.94842 8.56689 6.31614C8.09958 6.56814 7.4601 6.0538 6.08705 3.70263C5.38414 2.49943 4.85225 1.1677 4.85225 1.1677C4.85225 1.1677 4.75021 0.920217 4.56762 0.787692C4.34619 0.62669 4.03553 0.575641 4.03553 0.575641L0.749444 0.595308C0.749444 0.595308 0.256157 0.609832 0.0750184 0.821692C-0.0858758 1.01141 0.0621006 1.40151 0.0621006 1.40151C0.0621006 1.40151 2.6354 7.36415 5.54827 10.3703C8.22066 13.126 11.2539 12.9451 11.2539 12.9451Z" />
    </symbol>
    <symbol id="phone-icon" viewBox="0 0 16 16">
        <path
            d="M4.90321 11.0968C7.32459 13.518 10.6146 15.9998 12.7942 15.9995C13.1523 16.0074 13.5066 15.9247 13.8241 15.7589C14.7162 15.2723 15.4024 14.3388 15.8638 12.9841C16.0328 12.4882 16.1738 11.7682 15.4509 11.2435L12.9691 9.44251C12.2206 8.89986 11.5545 9.64108 11.0678 10.1822C10.5088 10.8042 10.3011 10.9479 10.1426 10.8212C8.82701 9.77088 6.22885 7.17296 5.17862 5.85723C5.0522 5.69878 5.19547 5.49127 5.81748 4.93213C6.35875 4.44549 7.10023 3.77903 6.55723 3.03088L4.75613 0.549298C4.2317 -0.173845 3.5114 -0.0327583 3.01547 0.136107C1.66065 0.597659 0.727111 1.284 0.240534 2.17594C-0.868565 4.20986 2.05917 8.25268 4.90321 11.0968ZM1.02109 2.60154C1.39757 1.91147 2.16492 1.36509 3.30216 0.977691C3.43738 0.925273 3.58002 0.894507 3.72483 0.886527C3.78896 0.884652 3.8523 0.90103 3.90748 0.933754C3.96266 0.966479 4.00741 1.0142 4.03652 1.07137L5.83762 3.55303C5.84596 3.5645 5.84926 3.5711 5.84926 3.5711C5.84683 3.71019 5.44118 4.07485 5.22308 4.27098C4.65542 4.78124 3.79758 5.55232 4.48367 6.41187C5.56378 7.76475 8.23504 10.436 9.58794 11.516C10.4477 12.2019 11.2187 11.3442 11.729 10.7766C11.9254 10.5581 12.2912 10.1513 12.4263 10.15C12.4336 10.153 12.4405 10.1571 12.4467 10.1621L14.9285 11.9631C15.0826 12.0748 15.2043 12.1631 15.0223 12.6974C14.6351 13.8345 14.0886 14.6019 13.3984 14.9784C12.139 15.6643 8.83169 13.7676 5.53183 10.4681C2.23196 7.16827 0.335005 3.85996 1.02109 2.60154Z" />
    </symbol>
    <symbol id="email-icon" viewBox="0 0 16 12">
        <path d="M3.33333 3.77778L8.1052 7.11111L12.6667 3.77778M1 1L15 1L15 11L1 11L1 1Z" stroke-linecap="round"
            stroke-linejoin="round" />
    </symbol>
    <symbol id="arrow-slid" viewBox="0 0 20 18">
        <path d="M11 17L19 9M19 9L11 1M19 9L1 9" stroke-linecap="round" stroke-linejoin="round" />
    </symbol>
    <symbol id="arrow-select" viewBox="0 0 16 9">
        <path d="M1 1L8 8L15 1" stroke-linecap="round" stroke-linejoin="round" />
    </symbol>
    <symbol id="burger-menu" viewBox="0 0 22 13">
        <path d="M1 0.5H21M1 6.5H21M1 12.5H21" stroke-linecap="round" stroke-linejoin="round"/>
    </symbol>
    <symbol id="safety_family_icon" viewBox="0 0 70 70">
        <path fill-rule="evenodd" clip-rule="evenodd" d="M67.1465 45.4656L59.1133 42.2523C59.0698 42.2349 59.0296 42.2127 58.9889 42.1914C64.5374 40.9289 67.1651 38.8177 67.2817 38.7222C67.5591 38.4948 67.6976 38.1391 67.6469 37.784C67.6353 37.7028 66.4856 29.5624 66.4856 21.5275C66.4856 13.8562 60.2445 7.61505 52.5732 7.61505C44.9018 7.61505 38.6609 13.856 38.6609 21.5275C38.6609 23.6294 38.5654 26.2003 38.4101 28.634L36.1716 29.7534L29.6009 26.4681C29.582 26.4587 29.5622 26.4519 29.5429 26.4437C29.8554 25.5327 30.0598 24.5721 30.1349 23.5753C31.5093 23.1506 32.5108 21.8681 32.5108 20.3559C32.5108 19.3375 32.0558 18.424 31.3393 17.8057V10.9834C31.3393 9.09873 30.387 7.33532 28.8254 6.27574C28.2963 4.30972 26.5299 2.92871 24.4561 2.92871H15.0837C9.99639 2.92871 5.85748 7.06762 5.85748 12.155V17.8056C5.14093 18.4237 4.68593 19.3374 4.68593 20.3558C4.68593 21.8679 5.6874 23.1505 7.06184 23.5751C7.32079 27.0176 9.09486 30.0422 11.7152 31.9889V34.8231L3.23533 37.367C1.3002 37.9476 0 39.6951 0 41.7155V53.1591C0 53.7253 0.459104 54.1845 1.0254 54.1845H1.17155V66.0461C1.17155 66.6124 1.63065 67.0715 2.19695 67.0715C2.76324 67.0715 3.22234 66.6124 3.22234 66.0461V54.1845H7.0293V66.0461C7.0293 66.6124 7.4884 67.0715 8.0547 67.0715C8.62099 67.0715 9.08009 66.6124 9.08009 66.0461V48.3655C9.08009 47.4662 8.81636 46.5953 8.31761 45.8472L6.56486 43.218C6.25068 42.7468 5.61398 42.6196 5.14298 42.9335C4.67171 43.2476 4.54442 43.8843 4.8586 44.3555L6.61135 46.9848C6.88479 47.395 7.02944 47.8724 7.02944 48.3655V52.1337H2.19695H2.05079V41.7155C2.05079 40.6077 2.76365 39.6497 3.82487 39.3312L7.34498 38.2752L9.31388 37.6846L11.8472 36.9246C12.4721 40.0812 15.2613 42.469 18.5986 42.469C21.2487 42.469 23.5521 40.9627 24.7019 38.7622C24.6362 39.2602 24.6024 39.7644 24.6024 40.272V41.2459C23.8682 41.8798 23.4309 42.8076 23.4309 43.7865C23.4309 43.7865 23.3598 44.2831 23.4868 44.6711C23.6139 45.0591 24.0816 45.7736 24.0816 45.7736C24.6951 46.6105 25.6845 47.1552 26.7994 47.1552H26.9455V47.3013C26.9455 50.7388 28.8366 53.7412 31.6317 55.3284V57.0009C31.6317 57.0638 31.5915 57.1196 31.5318 57.1395L27.7068 58.4146C25.85 59.0335 24.6024 60.7644 24.6024 62.7216V66.0461C24.6024 66.6124 25.0615 67.0715 25.6278 67.0715C26.1941 67.0715 26.6532 66.6124 26.6532 66.0461V62.7216C26.6532 61.6485 27.3372 60.6994 28.3552 60.3602L29.48 59.9852C30.9681 62.2044 33.4707 63.557 36.1716 63.557C38.8754 63.557 41.3757 62.2052 42.8635 59.9853L43.988 60.3602C45.006 60.6996 45.69 61.6485 45.69 62.7216V66.0461C45.69 66.6124 46.1491 67.0715 46.7154 67.0715C47.2817 67.0715 47.7408 66.6124 47.7408 66.0461V62.7216C47.7408 60.7644 46.4933 59.0335 44.6365 58.4147L40.8115 57.1397C40.7517 57.1197 40.7115 57.064 40.7115 57.001V55.3285C42.8043 54.1402 44.3883 52.1583 45.0528 49.794C46.9905 51.8215 49.6969 53.0132 52.573 53.0132C57.1138 53.0132 61.0979 50.0779 62.4703 45.8042L66.3845 47.3698C67.3351 47.75 67.9492 48.6573 67.9492 49.6809V54.4769H67.8031H64.1423V53.1592C64.1423 52.5929 63.6831 52.1338 63.1169 52.1338C62.5506 52.1338 62.0915 52.5929 62.0915 53.1592V66.0462C62.0915 66.6125 62.5506 67.0716 63.1169 67.0716C63.6831 67.0716 64.1423 66.6125 64.1423 66.0462V56.5277H66.7777V66.0462C66.7777 66.6125 67.2368 67.0716 67.8031 67.0716C68.3693 67.0716 68.8284 66.6125 68.8284 66.0462V56.5277H68.9746C69.2465 56.5277 69.5073 56.4197 69.6996 56.2275C69.892 56.0351 70 55.7744 70 55.5023V49.6809C70.0004 47.8136 68.8803 46.159 67.1465 45.4656ZM52.5735 9.6657C46.0329 9.6657 40.7118 14.9868 40.7118 21.5274C40.7118 23.4094 40.65 25.4397 40.5286 27.5751L42.7425 26.4683C43.0605 26.3093 43.4379 26.3263 43.7401 26.5131C44.0424 26.6999 44.2264 27.0299 44.2264 27.3854V31.9689C45.4855 33.1912 46.4397 34.6746 47.0337 36.2959C48.6552 37.4596 50.5659 38.0753 52.5735 38.0753C54.7757 38.0753 56.8432 37.3453 58.5522 35.9638C60.2132 34.6213 61.3864 32.7425 61.856 30.6733C62.0126 29.9835 62.092 29.2714 62.092 28.5569C62.092 24.6279 59.8311 23.9961 55.4986 23.136L55.4976 23.1358C53.2562 22.6908 50.7657 22.1964 48.5424 20.8789C48.0043 22.2423 46.6847 24.0569 43.4499 24.8656C42.9005 25.0028 42.3437 24.669 42.2064 24.1196C42.069 23.5701 42.403 23.0134 42.9525 22.876C46.8173 21.9098 46.862 19.2117 46.862 19.1845C46.862 18.7902 47.0878 18.4311 47.4432 18.2603C47.7985 18.0895 48.2202 18.1375 48.5279 18.3838C50.6517 20.0828 53.3187 20.6123 55.8979 21.1243C59.9514 21.929 64.1428 22.7611 64.1428 28.5568C64.1428 29.4237 64.0463 30.2885 63.856 31.127C63.285 33.6434 61.8592 35.9276 59.8415 37.5585C59.3512 37.9548 58.8297 38.3071 58.285 38.6158V40.2475C62.2621 39.3775 64.6148 38.0535 65.5336 37.4523C65.2642 35.3735 64.435 28.413 64.435 21.5274C64.435 14.9868 59.114 9.6657 52.5735 9.6657ZM42.1757 32.7552V29.0442L38.4645 30.8998L42.1757 32.7552ZM33.8788 30.8998L30.1679 29.0442V32.7552L33.8788 30.8998ZM13.7663 33.2089V35.5842L13.7666 35.5988C13.7738 38.2573 15.9385 40.418 18.5986 40.418C21.2633 40.418 23.431 38.2502 23.431 35.5857V33.2091C21.9596 33.8883 20.3227 34.2681 18.5986 34.2681C16.8745 34.2681 15.2377 33.8884 13.7663 33.2089ZM9.08009 22.6989C9.08009 27.9474 13.35 32.2173 18.5986 32.2173C23.8473 32.2173 28.1172 27.9473 28.1172 22.6988C28.1172 22.1325 28.5763 21.6734 29.1426 21.6734C29.8693 21.6734 30.4603 21.0823 30.4603 20.3557C30.4603 19.629 29.8691 19.038 29.1426 19.038H27.971C27.4048 19.038 26.9456 18.5789 26.9456 18.0126C26.9456 17.4463 27.4048 16.9872 27.971 16.9872H29.1426C29.1917 16.9872 29.2402 16.9887 29.2887 16.9909V10.9833C29.2887 9.67883 28.5695 8.46298 27.4117 7.81001C27.1392 7.65634 26.9518 7.38672 26.9027 7.07774C26.7095 5.86203 25.6809 4.9795 24.4564 4.9795H15.084C11.1275 4.9795 7.90854 8.19843 7.90854 12.155V16.9911C7.95708 16.9891 8.00575 16.9874 8.0547 16.9874H9.65869L10.5964 14.174C10.7359 13.7553 11.1277 13.4729 11.5691 13.4728C11.6604 13.4728 20.7558 13.4446 25.1692 11.238C25.6759 10.9846 26.2917 11.19 26.5449 11.6965C26.7983 12.2031 26.5929 12.8189 26.0864 13.0722C21.9729 15.129 14.6681 15.4603 12.3117 15.5135L11.3706 18.337C11.231 18.7558 10.8391 19.0381 10.3978 19.0381H8.0547C7.32803 19.0381 6.73699 19.6293 6.73699 20.3558C6.73699 21.0823 7.32817 21.6735 8.0547 21.6735C8.62099 21.6735 9.08009 22.1326 9.08009 22.6989ZM25.4817 31.9889V35.586C25.4817 35.6815 25.4784 35.7764 25.4744 35.8711C26.0736 34.4154 26.9688 33.0836 28.1171 31.9688V29.2643C27.3933 30.3105 26.5017 31.231 25.4817 31.9889ZM36.1718 61.5061C37.9926 61.5061 39.6885 60.6822 40.8173 59.3031L40.1633 59.085C39.2646 58.7856 38.661 57.9479 38.6611 57.001V56.1837C37.8687 56.4062 37.0345 56.5277 36.1719 56.5277C35.3093 56.5277 34.4751 56.4062 33.6826 56.1837V57.001C33.6826 57.9481 33.0789 58.7858 32.1804 59.0852L31.5268 59.303C32.6561 60.6816 34.3531 61.5061 36.1718 61.5061ZM43.3473 46.1298C43.3473 45.5635 43.8064 45.1044 44.3727 45.1044H45.5443C46.2708 45.1044 46.862 44.5132 46.862 43.7867C46.862 43.3191 46.6145 42.8961 46.2 42.6548C45.8843 42.4711 45.6903 42.1336 45.6903 41.7685V40.272C45.6903 38.3649 45.1128 36.518 44.0664 34.9609C43.9845 35.0905 43.8749 35.2033 43.7403 35.2865C43.5757 35.3883 43.3888 35.4397 43.2012 35.4397C43.0445 35.4397 42.8874 35.4037 42.7426 35.3314L36.1719 32.046L29.6011 35.3314C29.4564 35.4037 29.2993 35.4397 29.1426 35.4397C28.9552 35.4397 28.7683 35.3883 28.6035 35.2865C28.4687 35.2033 28.3592 35.0906 28.2773 34.9609C27.2308 36.518 26.6533 38.3649 26.6533 40.272V40.3912C29.3563 40.2831 36.79 39.7418 41.5208 37.0386C42.0123 36.7576 42.6389 36.9284 42.9198 37.4202C43.2008 37.912 43.0299 38.5383 42.5382 38.8192C37.138 41.9051 28.9212 42.3821 26.3865 42.4556C26.3167 42.5327 26.2362 42.6009 26.1436 42.6548C25.7292 42.8959 25.4818 43.3191 25.4818 43.7867C25.4818 44.5133 26.073 45.1044 26.7995 45.1044H27.971C28.5373 45.1044 28.9964 45.5635 28.9964 46.1298V47.3013C28.9964 51.2578 32.2152 54.4768 36.1718 54.4768C40.1283 54.4768 43.3472 51.2578 43.3473 47.3013V47.1759C43.3472 47.1671 43.3473 47.1582 43.3473 47.1493V46.1298ZM45.5677 47.1546C47.1008 49.5168 49.7346 50.9621 52.5735 50.9621C56.2669 50.9621 59.5031 48.5446 60.5628 45.0408L58.3516 44.1563C57.0654 43.6419 56.2343 42.4141 56.2343 41.0288V39.5272C55.0602 39.9187 53.8237 40.1259 52.5735 40.1259C50.8557 40.1259 49.1957 39.7552 47.6752 39.0424C47.7188 39.449 47.7411 39.8594 47.7411 40.2721V41.246C48.4753 41.88 48.9126 42.8079 48.9126 43.7868C48.9126 45.6362 47.4142 47.1419 45.5677 47.1546Z"/>
    </symbol>
    <symbol id="safety_insurence_icon" viewBox="0 0 70 70">
        <path fill-rule="evenodd" clip-rule="evenodd" d="M35 5C28.3726 5 23 10.3726 23 17C23 17.3697 23.0167 17.7353 23.0493 18.096C23.0586 18.0969 23.068 18.0978 23.0774 18.0987C23.5744 18.1458 24.2649 18.1962 25.0382 18.2098C26.6281 18.2376 28.4035 18.1043 29.6009 17.5831C30.7335 17.0901 31.9917 15.9704 33.0206 14.8794C33.5211 14.3487 33.9428 13.8516 34.2392 13.4873C34.3871 13.3055 34.503 13.1576 34.5812 13.0563C34.6203 13.0057 34.6498 12.9668 34.6692 12.9412L34.6904 12.9129L34.6951 12.9066L34.6957 12.9057L35.5083 11.806L36.3098 12.9133L36.3106 12.9145L36.3153 12.9208L36.3362 12.9493C36.3554 12.9751 36.3846 13.0144 36.4234 13.0655C36.5008 13.1678 36.6158 13.317 36.7627 13.5004C37.057 13.8679 37.476 14.3688 37.9742 14.9014C39.0002 15.9983 40.2518 17.1091 41.3817 17.5757C42.4263 18.0071 43.968 18.1367 45.3507 18.1338C45.972 18.1325 46.5312 18.1049 46.9525 18.0756C46.9839 17.7215 47 17.3627 47 17C47 10.3726 41.6274 5 35 5ZM46.5959 20.1005C46.2298 20.1191 45.8082 20.1328 45.3549 20.1338C43.9336 20.1367 42.0517 20.0163 40.6183 19.4243C39.0652 18.7829 37.5668 17.3936 36.5136 16.2676C36.121 15.8479 35.7751 15.448 35.4934 15.1085C35.2116 15.4432 34.8664 15.8373 34.4756 16.2516C33.4199 17.371 31.928 18.7513 30.3991 19.4169C28.781 20.1213 26.6329 20.238 25.0031 20.2095C24.4133 20.1991 23.8698 20.169 23.4132 20.1345C24.7912 25.2416 29.4575 29 35 29C40.4788 29 45.1025 25.3274 46.5386 20.3078C46.5583 20.239 46.5774 20.1699 46.5959 20.1005ZM21.3126 19.9548C21.2557 19.6901 21.2063 19.4226 21.1646 19.1526C21.0562 18.4503 21 17.7314 21 17C21 9.26801 27.268 3 35 3C42.732 3 49 9.26801 49 17C49 17.7314 48.9438 18.4503 48.8354 19.1526C48.7937 19.4226 48.7443 19.69 48.6874 19.9547C48.6221 20.3429 48.5447 20.8539 48.4796 21.4255C48.3323 22.7209 48.2629 24.2153 48.4806 25.3039C48.6377 26.0893 49.169 27.0785 49.7343 27.9412C50.0064 28.3565 50.2678 28.7148 50.461 28.969C50.5573 29.0958 50.6361 29.1958 50.6899 29.2631C50.7167 29.2967 50.7374 29.3221 50.7508 29.3386L50.7654 29.3564L50.7684 29.36C50.7683 29.3599 50.7684 29.3601 50 30C49.2316 30.6399 49.2315 30.6398 49.2313 30.6397L49.2304 30.6386L49.2286 30.6363L49.2225 30.629L49.2017 30.6037C49.1841 30.5821 49.1591 30.5512 49.1276 30.5119C49.0647 30.4332 48.9759 30.3203 48.8686 30.1792C48.6547 29.8976 48.365 29.5006 48.0614 29.0373C47.4753 28.1428 46.7566 26.882 46.5194 25.6961C46.4805 25.5015 46.4489 25.3003 46.4238 25.0946C43.8875 28.6679 39.7168 31 35 31C30.2836 31 26.1127 28.6683 23.5762 25.0947C23.5511 25.3003 23.5195 25.5015 23.4806 25.6961C23.2434 26.882 22.5247 28.1428 21.9386 29.0373C21.635 29.5006 21.3453 29.8976 21.1314 30.1792C21.0241 30.3203 20.9353 30.4332 20.8724 30.5119C20.8409 30.5512 20.8159 30.5821 20.7983 30.6037L20.7775 30.629L20.7714 30.6363L20.7689 30.6394C20.7688 30.6395 20.7684 30.6399 20 30C19.2316 29.3601 19.2315 29.3602 19.2314 29.3603L19.2346 29.3564L19.2492 29.3386C19.2626 29.3221 19.2833 29.2967 19.3101 29.2631C19.3639 29.1958 19.4427 29.0958 19.539 28.969C19.7322 28.7148 19.9936 28.3565 20.2657 27.9412C20.831 27.0785 21.3623 26.0893 21.5194 25.3039C21.7371 24.2153 21.6677 22.7209 21.5204 21.4255C21.4553 20.854 21.3779 20.343 21.3126 19.9548ZM35 35C24.8256 35 17 41.4754 17 49H15C15 39.956 24.1875 33 35 33C45.8125 33 55 39.956 55 49H53C53 41.4754 45.1744 35 35 35ZM2 58C2 54.6863 4.68629 52 8 52H62C65.3137 52 68 54.6863 68 58V68H66V58C66 55.7909 64.2091 54 62 54H8C5.79086 54 4 55.7909 4 58V68H2V58Z"/>
    </symbol>
    <symbol id="safety-play-btn_1" viewBox="0 0 100 100">
       <circle cx="50" cy="50" r="48" stroke-width="4"/>
    </symbol>
    <symbol id="safety-play-btn_2" viewBox="0 0 38 44">
       <path d="M38 22L0.500002 43.6506L0.500004 0.349364L38 22Z"/>
    </symbol>
    <symbol id="safety-save-money" viewBox="0 0 50 50">
       <path d="M25.6526 27.288C25.5601 27.268 25.4652 27.2644 25.3715 27.2784C24.4324 27.1691 23.724 26.3745 23.7224 25.4294C23.7224 24.9765 23.3552 24.6093 22.9023 24.6093C22.4493 24.6093 22.0821 24.9765 22.0821 25.4294C22.0845 27.0077 23.1401 28.3901 24.6619 28.8077V29.6279C24.6619 30.0808 25.0291 30.448 25.482 30.448C25.935 30.448 26.3022 30.0808 26.3022 29.6279V28.8574C28.0586 28.4898 29.2524 26.8539 29.0678 25.069C28.8827 23.2842 27.379 21.9278 25.5845 21.9274C24.5562 21.9274 23.7224 21.0937 23.7224 20.0653C23.7224 19.0369 24.5562 18.2031 25.5845 18.2031C26.6129 18.2031 27.4467 19.0369 27.4467 20.0653C27.4467 20.5182 27.8139 20.8854 28.2668 20.8854C28.7198 20.8854 29.087 20.5182 29.087 20.0653C29.0846 18.4082 27.9236 16.9789 26.3022 16.6369V15.8905C26.3022 15.4375 25.935 15.0703 25.482 15.0703C25.0291 15.0703 24.6619 15.4375 24.6619 15.8905V16.687C22.9695 17.1491 21.8803 18.7922 22.1134 20.531C22.3464 22.2698 23.8301 23.5677 25.5845 23.5673C26.5993 23.5673 27.4271 24.3798 27.4455 25.3942C27.4643 26.4086 26.6666 27.2511 25.6526 27.288Z"/>
       <path d="M13.6914 22.8104C13.6914 29.3787 19.0159 34.7033 25.5843 34.7033C32.1527 34.7033 37.4772 29.3787 37.4772 22.8104C37.4772 16.242 32.1527 10.9175 25.5843 10.9175C19.0191 10.9247 13.699 16.2452 13.6914 22.8104ZM25.5843 12.5578C31.2468 12.5578 35.8369 17.1479 35.8369 22.8104C35.8369 28.4729 31.2468 33.063 25.5843 33.063C19.9218 33.063 15.3317 28.4729 15.3317 22.8104C15.3381 17.1507 19.9246 12.5642 25.5843 12.5578Z"/>
       <path d="M41.5207 36.7252L35.0961 39.7607C34.2091 38.1108 32.5075 37.0608 30.6349 37.0079L24.7041 36.8449C23.765 36.8181 22.8436 36.5802 22.0086 36.1489L21.4051 35.8362C18.3152 34.2255 14.6321 34.2295 11.5454 35.8466L11.583 34.4794C11.5954 34.0265 11.2386 33.6493 10.7857 33.6368L4.28221 33.4578C3.82929 33.4454 3.45246 33.8022 3.44004 34.2552L3.04719 48.5268C3.03478 48.9797 3.39159 49.3569 3.84451 49.3694L10.348 49.5484H10.3704C10.8149 49.5484 11.1786 49.1948 11.1906 48.7506L11.2094 48.0679L12.8989 47.1632C13.5621 46.8064 14.3374 46.7215 15.0618 46.9265L25.151 49.7582C25.1687 49.7634 25.1863 49.7674 25.2043 49.7714C25.9335 49.924 26.6768 50.0005 27.4216 50.0001C28.9995 50.0009 30.5589 49.6609 31.9929 49.0025C32.0282 48.9865 32.0622 48.9677 32.0946 48.9465L46.7231 39.4844C47.0875 39.2485 47.2052 38.7699 46.9918 38.3919C45.9057 36.4649 43.497 35.7309 41.5207 36.7252ZM4.7095 47.7523L5.0571 35.1201L9.9207 35.2539L9.5731 47.8864L4.7095 47.7523ZM31.2541 47.5376C29.4724 48.3418 27.4825 48.5636 25.5675 48.1724L15.5055 45.3479C14.373 45.028 13.1608 45.1605 12.1248 45.7175L11.2614 46.1801L11.4925 37.7812C14.2285 35.9615 17.7373 35.7745 20.6511 37.2926L21.2546 37.6054C22.3094 38.15 23.4727 38.4504 24.6593 38.4848L30.5905 38.6478C32.2564 38.6959 33.6712 39.882 34.0092 41.5143L25.1747 41.2704C24.7217 41.258 24.3449 41.6152 24.3321 42.0677C24.3197 42.5207 24.6769 42.8979 25.1294 42.9103L34.879 43.1786H34.9019C35.346 43.1782 35.7092 42.8246 35.7212 42.3809C35.7312 42.0245 35.7048 41.6677 35.6419 41.3169L42.2315 38.2033C42.2379 38.2005 42.2443 38.1973 42.2507 38.1941C43.1854 37.7211 44.3155 37.8793 45.0844 38.5909L31.2541 47.5376Z"/>
       <path d="M26.404 8.61152V0.820144C26.404 0.367223 26.0367 0 25.5838 0C25.1309 0 24.7637 0.367223 24.7637 0.820144V8.61152C24.7637 9.06444 25.1309 9.43166 25.5838 9.43166C26.0367 9.43166 26.404 9.06444 26.404 8.61152Z"/>
       <path d="M32.5563 8.61138V4.92073C32.5563 4.46781 32.1891 4.10059 31.7362 4.10059C31.2832 4.10059 30.916 4.46781 30.916 4.92073V8.61138C30.916 9.0643 31.2832 9.43152 31.7362 9.43152C32.1891 9.43152 32.5563 9.0643 32.5563 8.61138Z"/>
       <path d="M20.2536 8.61138V4.92073C20.2536 4.46781 19.8863 4.10059 19.4334 4.10059C18.9805 4.10059 18.6133 4.46781 18.6133 4.92073V8.61138C18.6133 9.0643 18.9805 9.43152 19.4334 9.43152C19.8863 9.43152 20.2536 9.0643 20.2536 8.61138Z"/>
       <defs>
       <clipPath>
       <rect width="50" height="50" fill="white"/>
       </clipPath>
       </defs>
    </symbol>
    <symbol id="safety-shopping-cart" viewBox="0 0 50 50">
        <path d="M21.4261 37.6997C19.2785 37.6997 17.5312 39.4469 17.5312 41.5945C17.5312 43.7421 19.2785 45.4893 21.4261 45.4893C23.5737 45.4893 25.3209 43.7421 25.3209 41.5945C25.3208 39.4469 23.5736 37.6997 21.4261 37.6997ZM21.4261 43.3145C20.4775 43.3145 19.7059 42.5428 19.7059 41.5943C19.7059 40.6458 20.4776 39.8742 21.4261 39.8742C22.3745 39.8742 23.1462 40.6459 23.1462 41.5943C23.1462 42.5429 22.3745 43.3145 21.4261 43.3145Z"/>
        <path d="M35.0882 37.6997C32.9406 37.6997 31.1934 39.4469 31.1934 41.5945C31.1934 43.7421 32.9406 45.4893 35.0882 45.4893C37.2358 45.4893 38.983 43.7421 38.983 41.5945C38.9829 39.4469 37.2357 37.6997 35.0882 37.6997ZM35.0882 43.3145C34.1397 43.3145 33.368 42.5428 33.368 41.5943C33.368 40.6458 34.1397 39.8742 35.0882 39.8742C36.0367 39.8742 36.8083 40.6459 36.8083 41.5943C36.8083 42.5429 36.0366 43.3145 35.0882 43.3145Z"/>
        <path d="M36.0464 17.1943H20.4643C19.8638 17.1943 19.377 17.6811 19.377 18.2817C19.377 18.8822 19.8638 19.369 20.4643 19.369H36.0464C36.6469 19.369 37.1337 18.8822 37.1337 18.2817C37.1337 17.681 36.6469 17.1943 36.0464 17.1943Z"/>
        <path d="M35.1978 22.8408H21.3119C20.7114 22.8408 20.2246 23.3276 20.2246 23.9282C20.2246 24.5287 20.7114 25.0155 21.3119 25.0155H35.1977C35.7982 25.0155 36.285 24.5287 36.285 23.9282C36.285 23.3277 35.7982 22.8408 35.1978 22.8408Z"/>
        <path d="M46.6537 12.3498C46.239 11.8409 45.6246 11.5491 44.968 11.5491H11.0986L10.4146 8.22858C10.2718 7.53593 9.79933 6.95433 9.15053 6.67262L4.37797 4.60105C3.82699 4.36171 3.18666 4.61454 2.94768 5.16534C2.70843 5.71632 2.96126 6.35673 3.51197 6.59572L8.28462 8.66738L13.5458 34.2062C13.753 35.2119 14.6488 35.9419 15.6758 35.9419H41.7253C42.3258 35.9419 42.8126 35.4551 42.8126 34.8546C42.8126 34.2541 42.3258 33.7673 41.7253 33.7673H15.6758L15.0359 30.6607H41.9266C42.9535 30.6607 43.8493 29.9307 44.0565 28.9249L47.0979 14.1623C47.2304 13.5194 47.0684 12.8587 46.6537 12.3498ZM41.9266 28.4862H14.5879L11.5466 13.7236L44.9679 13.7237L41.9266 28.4862Z"/>
    </symbol>
    <symbol id="safety-truck" viewBox="0 0 50 50">
       <path d="M11.666 32.917C8.9085 32.917 6.66602 35.1595 6.66602 37.917C6.66602 40.6745 8.9085 42.917 11.666 42.917C14.4235 42.917 16.666 40.6745 16.666 37.917C16.666 35.1595 14.4234 32.917 11.666 32.917ZM11.666 41.2503C9.82764 41.2503 8.33271 39.7553 8.33271 37.917C8.33271 36.0786 9.82773 34.5837 11.666 34.5837C13.5043 34.5837 14.9993 36.0787 14.9993 37.917C14.9993 39.7553 13.5043 41.2503 11.666 41.2503Z" />
       <path d="M40 32.917C37.2425 32.917 35 35.1595 35 37.917C35 40.6745 37.2425 42.917 40 42.917C42.7575 42.917 45 40.6745 45 37.917C45 35.1595 42.7575 32.917 40 32.917ZM40 41.2503C38.1616 41.2503 36.6667 39.7553 36.6667 37.917C36.6667 36.0786 38.1617 34.5837 40 34.5837C41.8384 34.5837 43.3333 36.0787 43.3333 37.917C43.3333 39.7553 41.8384 41.2503 40 41.2503Z" />
       <path d="M49.8668 28.2992L42.3668 16.6325C42.2135 16.3941 41.9493 16.25 41.6659 16.25H32.4993C32.0385 16.25 31.666 16.6233 31.666 17.0833V37.9166C31.666 38.3774 32.0385 38.7499 32.4993 38.7499H35.8326V37.0832H33.3326V17.9167H41.2109L48.3326 28.995V37.0834H44.1659V38.75H49.1659C49.6268 38.75 49.9992 38.3775 49.9992 37.9167V28.75C49.9993 28.5908 49.9535 28.4333 49.8668 28.2992Z" />
       <path d="M36.6666 27.0835V21.2502H43.3333V19.5835H35.8333C35.3725 19.5835 35 19.9568 35 20.4168V27.9168C35 28.3776 35.3725 28.7501 35.8333 28.7501H48.3333V27.0834H36.6666V27.0835Z" />
       <path d="M32.5 10.417H0.833301C0.37334 10.417 0 10.7903 0 11.2503V37.917C0 38.3778 0.37334 38.7503 0.833301 38.7503H7.5V37.0836H1.6667V12.0836H31.6667V37.0836H15.8333V38.7503H32.5C32.9608 38.7503 33.3333 38.3778 33.3333 37.917V11.2503C33.3333 10.7903 32.9608 10.417 32.5 10.417Z" />
       <path d="M5.83398 33.75H0.833984V35.4167H5.83398V33.75Z" />
       <path d="M31.6667 33.75H17.5V35.4167H31.6667V33.75Z" />
       <path d="M49.1673 33.75H45.834V35.4167H49.1673V33.75Z" />
       <path d="M32.5007 13.75H3.33398V15.4167H32.5007V13.75Z" />
       <path d="M12.5007 37.0835H10.834V38.7502H12.5007V37.0835Z" />
       <path d="M40.8327 37.0835H39.166V38.7502H40.8327V37.0835Z" />
       <path d="M15.0007 7.08301H3.33398V8.74971H15.0007V7.08301Z" />
       <path d="M1.6667 7.08301H0V8.74971H1.6667V7.08301Z" />
    </symbol>
</svg>