<svg dispaly="none" xmlns="http://www.w3.org/2000/svg">
    <symbol id="search" viewBox="0 0 21 21">
        <path
            d="M15.7544 15.4925L20.5 20M17.8461 9.77628C17.8461 14.6233 13.9631 18.5526 9.17307 18.5526C4.38306 18.5526 0.5 14.6233 0.5 9.77628C0.5 4.92927 4.38306 1 9.17307 1C13.9631 1 17.8461 4.92927 17.8461 9.77628Z" />
    </symbol>
    <symbol id="autorization" viewBox="0 0 21 21">
        <path
            d="M9.5 13C12.8137 13 15.5 10.3137 15.5 7C15.5 3.68629 12.8137 1 9.5 1C6.18629 1 3.5 3.68629 3.5 7C3.5 10.3137 6.18629 13 9.5 13ZM9.5 13C4.52944 13 0.5 16.5817 0.5 21M9.5 13C14.4706 13 18.5 16.5817 18.5 21" />
    </symbol>
    <symbol id="favorit" viewBox="0 0 21 20">
        <path
            d="M10.4992 5.69565C10.4992 2.67009 8.26049 1 5.49886 1C2.16529 1 0.53581 3.34783 0.5 6.47826C0.5 10.7826 5.49887 14.3043 10.4992 19C15.5004 14.3043 20.5 10.7826 20.5 6.47826C20.4642 3.34783 18.8345 1 15.5004 1C12.7383 1 10.4992 2.67009 10.4992 5.69565Z" />
    </symbol>
    <symbol id="basket" viewBox="0 0 21 22">
        <path
            d="M13.7222 8.90278V4.11111C13.7222 2.39289 12.3293 1 10.6111 1C8.89289 1 7.5 2.39289 7.5 4.11111V9M1.5 5H19.5L20.5 21H0.5L1.5 5Z" />
    </symbol>
    <symbol id="facebook" viewBox="0 0 24 24">
        <path
            d="M9.5 14.5V23H12.5V14.5H16V11.5H12.5003C12.5133 9.95468 12.8829 9.69055 12.915 9.66757L12.9156 9.66718C12.9655 9.63135 13.0729 9.5766 13.3222 9.54085C13.5879 9.50276 13.8942 9.50003 14.3333 9.50003H16V6.50003H14.3333C14.2933 6.50003 14.2512 6.49986 14.207 6.49967C13.4761 6.49668 12.1966 6.49145 11.1678 7.22888C9.96399 8.09175 9.51299 9.58589 9.50028 11.5H7V14.5H9.5Z" />
        <path fill="none"
            d="M11.9956 1C9.00992 1 8.63452 1.0131 7.46032 1.06548C6.29048 1.11786 5.49167 1.30556 4.79325 1.57619C4.06865 1.85556 3.45754 2.23532 2.84643 2.84643C2.23532 3.45754 1.85992 4.07302 1.57619 4.79325C1.30556 5.49167 1.11786 6.29048 1.06548 7.46468C1.0131 8.63452 1 9.00992 1 11.9956C1 14.9813 1.0131 15.3567 1.06548 16.531C1.11786 17.7008 1.30556 18.4996 1.57619 19.2024C1.85556 19.927 2.23532 20.5381 2.84643 21.1492C3.45754 21.7603 4.07302 22.1357 4.79325 22.4194C5.49167 22.6901 6.29048 22.8778 7.46468 22.9302C8.63889 22.9825 9.00992 22.9956 12 22.9956C14.9901 22.9956 15.3611 22.9825 16.5353 22.9302C17.7052 22.8778 18.504 22.6901 19.2067 22.4194C19.9314 22.1401 20.5425 21.7603 21.1536 21.1492C21.7647 20.5381 22.1401 19.9226 22.4238 19.2024C22.6944 18.504 22.8821 17.7052 22.9345 16.531C22.9869 15.3567 23 14.9857 23 11.9956C23 9.00555 22.9869 8.63452 22.9345 7.46032C22.8821 6.29048 22.6944 5.49167 22.4238 4.78889C22.1444 4.06429 21.7647 3.45317 21.1536 2.84206C20.5425 2.23095 19.927 1.85556 19.2067 1.57183C18.5083 1.30119 17.7095 1.11349 16.5353 1.06111C15.3567 1.0131 14.9813 1 11.9956 1Z" />
    </symbol>
    <symbol id="instagram" viewBox="0 0 24 24">
        <path fill="none"
            d="M11.9956 1C9.00992 1 8.63452 1.0131 7.46032 1.06548C6.29048 1.11786 5.49167 1.30556 4.79325 1.57619C4.06865 1.85556 3.45754 2.23532 2.84643 2.84643C2.23532 3.45754 1.85992 4.07302 1.57619 4.79325C1.30556 5.49167 1.11786 6.29048 1.06548 7.46468C1.0131 8.63452 1 9.00992 1 11.9956C1 14.9813 1.0131 15.3567 1.06548 16.531C1.11786 17.7008 1.30556 18.4996 1.57619 19.2024C1.85556 19.927 2.23532 20.5381 2.84643 21.1492C3.45754 21.7603 4.07302 22.1357 4.79325 22.4194C5.49167 22.6901 6.29048 22.8778 7.46468 22.9302C8.63889 22.9825 9.00992 22.9956 12 22.9956C14.9901 22.9956 15.3611 22.9825 16.5353 22.9302C17.7052 22.8778 18.504 22.6901 19.2067 22.4194C19.9314 22.1401 20.5425 21.7603 21.1536 21.1492C21.7647 20.5381 22.1401 19.9226 22.4238 19.2024C22.6944 18.504 22.8821 17.7052 22.9345 16.531C22.9869 15.3567 23 14.9857 23 11.9956C23 9.00555 22.9869 8.63452 22.9345 7.46032C22.8821 6.29048 22.6944 5.49167 22.4238 4.78889C22.1444 4.06429 21.7647 3.45317 21.1536 2.84206C20.5425 2.23095 19.927 1.85556 19.2067 1.57183C18.5083 1.30119 17.7095 1.11349 16.5353 1.06111C15.3567 1.0131 14.9813 1 11.9956 1Z" />
        <path fill="none"
            d="M11.5 7C8.46522 7 6 9.46097 6 12.5C6 15.539 8.46522 18 11.5 18C14.5348 18 17 15.5348 17 12.5C17 9.46522 14.5348 7 11.5 7Z" />
        <path fill="none"
            d="M17.5 7C18.3284 7 19 6.32843 19 5.5C19 4.67157 18.3284 4 17.5 4C16.6716 4 16 4.67157 16 5.5C16 6.32843 16.6716 7 17.5 7Z" />
    </symbol>
    <symbol id="vk" viewBox="0 0 24 24">
        <path
            d="M19.633 7.67714C19.7437 7.28714 19.633 7 19.103 7H17.3531C16.9077 7 16.7024 7.24786 16.5911 7.52143C16.5911 7.52143 15.7011 9.80429 14.4404 11.2871C14.0325 11.7171 13.8471 11.8536 13.6245 11.8536C13.5131 11.8536 13.3458 11.7171 13.3458 11.3264V7.67714C13.3458 7.20857 13.2231 7 12.8525 7H10.1005C9.82254 7 9.65521 7.21714 9.65521 7.42357C9.65521 7.86714 10.2859 7.97 10.3505 9.21857V11.9314C10.3505 12.5264 10.2485 12.6343 10.0259 12.6343C9.43255 12.6343 7.98925 10.3407 7.1326 7.71643C6.9666 7.20571 6.79861 7 6.35128 7H4.59999C4.1 7 4 7.24786 4 7.52143C4 8.00857 4.59332 10.4286 6.76328 13.6293C8.20991 15.815 10.2465 17 12.1018 17C13.2145 17 13.3518 16.7371 13.3518 16.2836V14.6314C13.3518 14.105 13.4571 14 13.8098 14C14.0698 14 14.5144 14.1371 15.5531 15.1907C16.7397 16.44 16.9351 17 17.603 17H19.353C19.853 17 20.1037 16.7371 19.9597 16.2171C19.801 15.7 19.2343 14.9493 18.483 14.0586C18.075 13.5514 17.4631 13.005 17.2771 12.7314C17.0177 12.3807 17.0917 12.2243 17.2771 11.9121C17.2771 11.9121 19.4103 8.75071 19.6323 7.67714H19.633Z" />
        <path fill="none"
            d="M11.9956 1C9.00992 1 8.63452 1.0131 7.46032 1.06548C6.29048 1.11786 5.49167 1.30556 4.79325 1.57619C4.06865 1.85556 3.45754 2.23532 2.84643 2.84643C2.23532 3.45754 1.85992 4.07302 1.57619 4.79325C1.30556 5.49167 1.11786 6.29048 1.06548 7.46468C1.0131 8.63452 1 9.00992 1 11.9956C1 14.9813 1.0131 15.3567 1.06548 16.531C1.11786 17.7008 1.30556 18.4996 1.57619 19.2024C1.85556 19.927 2.23532 20.5381 2.84643 21.1492C3.45754 21.7603 4.07302 22.1357 4.79325 22.4194C5.49167 22.6901 6.29048 22.8778 7.46468 22.9302C8.63889 22.9825 9.00992 22.9956 12 22.9956C14.9901 22.9956 15.3611 22.9825 16.5353 22.9302C17.7052 22.8778 18.504 22.6901 19.2067 22.4194C19.9314 22.1401 20.5425 21.7603 21.1536 21.1492C21.7647 20.5381 22.1401 19.9226 22.4238 19.2024C22.6944 18.504 22.8821 17.7052 22.9345 16.531C22.9869 15.3567 23 14.9857 23 11.9956C23 9.00555 22.9869 8.63452 22.9345 7.46032C22.8821 6.29048 22.6944 5.49167 22.4238 4.78889C22.1444 4.06429 21.7647 3.45317 21.1536 2.84206C20.5425 2.23095 19.927 1.85556 19.2067 1.57183C18.5083 1.30119 17.7095 1.11349 16.5353 1.06111C15.3567 1.0131 14.9813 1 11.9956 1Z" />
    </symbol>
    <symbol id="close" viewBox="0 0 24 24">
        <path d="M18 6L12 12M12 12L6 18M12 12L6 6M12 12L18 18" stroke-linecap="round" stroke-linejoin="round" />
    </symbol>
    <symbol id="arrow_r" viewBox="0 0 14 12">
        <path d="M7.66667 11L13 6M13 6L7.66667 1M13 6L1 6" stroke-linecap="round" stroke-linejoin="round" />
    </symbol>
    <symbol id="logo" viewBox="0 0 200 66">
        <path
            d="M0.280289 33.0315V32.8513C0.201314 28.5233 1.01954 24.2244 2.68564 20.2139C4.35174 16.2034 6.83121 12.5644 9.97454 9.51621C13.1179 6.468 16.86 4.07378 20.9752 2.47788C25.0905 0.881989 29.4936 0.117476 33.9192 0.230441C38.6218 0.0011865 43.3207 0.750105 47.7054 2.42773C52.0901 4.10535 56.061 6.67351 59.3556 9.96256L50.3236 20.1454C45.9921 15.7492 40.0678 13.1927 33.827 13.0265C22.952 13.0265 15.1183 21.8575 15.1183 32.6711V32.8512C15.1183 43.6648 22.7675 52.6762 33.827 52.6762C41.1999 52.6762 45.7158 49.7926 50.7845 45.287L59.8163 54.208C56.5688 57.9227 52.5002 60.8671 47.918 62.8185C43.3357 64.7699 38.3598 65.6774 33.3662 65.4723C28.9939 65.5416 24.6522 64.7492 20.5999 63.1423C16.5476 61.5354 12.8679 59.1469 9.78013 56.1193C6.69237 53.0918 4.25987 49.4872 2.62773 45.5205C0.995583 41.5538 0.19723 37.3064 0.280289 33.0315Z" />
        <path
            d="M69.9839 33.0315V32.8513C69.9049 28.5232 70.7231 24.2244 72.3892 20.2139C74.0553 16.2034 76.5348 12.5644 79.6781 9.51621C82.8215 6.46801 86.5636 4.07378 90.6788 2.47789C94.7941 0.88199 99.1972 0.117478 103.623 0.230443C108.325 0.00118338 113.024 0.7501 117.409 2.42772C121.794 4.10535 125.765 6.6735 129.059 9.96256L120.027 20.1454C115.696 15.7492 109.771 13.1927 103.531 13.0265C92.6556 13.0265 84.8219 21.8575 84.8219 32.6711V32.8512C84.8219 43.6648 92.4711 52.6762 103.531 52.6762C110.903 52.6762 115.419 49.7925 120.488 45.2869L129.52 54.208C126.272 57.9227 122.204 60.8671 117.622 62.8185C113.039 64.7699 108.063 65.6774 103.07 65.4723C98.6976 65.5416 94.3559 64.7492 90.3036 63.1423C86.2513 61.5354 82.5715 59.1469 79.4838 56.1194C76.396 53.0918 73.9635 49.4872 72.3313 45.5205C70.6992 41.5538 69.9008 37.3064 69.9839 33.0315Z" />
        <path
            d="M139.549 33.0315V32.8513C139.47 28.5233 140.289 24.2244 141.955 20.2139C143.621 16.2034 146.1 12.5644 149.244 9.51621C152.387 6.46801 156.129 4.07378 160.244 2.47789C164.359 0.88199 168.763 0.117477 173.188 0.230442C177.891 0.00118464 182.59 0.750102 186.974 2.42773C191.359 4.10535 195.33 6.67351 198.625 9.96256L189.593 20.1454C185.261 15.7493 179.337 13.1927 173.096 13.0265C162.221 13.0265 154.387 21.8575 154.387 32.6711V32.8512C154.387 43.6648 162.037 52.6762 173.096 52.6762C180.469 52.6762 184.985 49.7926 190.054 45.287L199.085 54.208C195.838 57.9227 191.769 60.8671 187.187 62.8185C182.605 64.7699 177.629 65.6774 172.635 65.4723C168.263 65.5416 163.921 64.7492 159.869 63.1423C155.817 61.5354 152.137 59.1469 149.049 56.1193C145.961 53.0918 143.529 49.4872 141.897 45.5205C140.265 41.5538 139.466 37.3064 139.549 33.0315Z" />

    </symbol>


</svg>