<svg dispaly="none" xmlns="http://www.w3.org/2000/svg">
    <symbol id="search" viewBox="0 0 21 21">
        <path
            d="M15.7544 15.4925L20.5 20M17.8461 9.77628C17.8461 14.6233 13.9631 18.5526 9.17307 18.5526C4.38306 18.5526 0.5 14.6233 0.5 9.77628C0.5 4.92927 4.38306 1 9.17307 1C13.9631 1 17.8461 4.92927 17.8461 9.77628Z" />
    </symbol>
    <symbol id="autorization" viewBox="0 0 21 21">
        <path
            d="M9.5 13C12.8137 13 15.5 10.3137 15.5 7C15.5 3.68629 12.8137 1 9.5 1C6.18629 1 3.5 3.68629 3.5 7C3.5 10.3137 6.18629 13 9.5 13ZM9.5 13C4.52944 13 0.5 16.5817 0.5 21M9.5 13C14.4706 13 18.5 16.5817 18.5 21" />
    </symbol>
    <symbol id="favorit" viewBox="0 0 21 20">
        <path
            d="M10.4992 5.69565C10.4992 2.67009 8.26049 1 5.49886 1C2.16529 1 0.53581 3.34783 0.5 6.47826C0.5 10.7826 5.49887 14.3043 10.4992 19C15.5004 14.3043 20.5 10.7826 20.5 6.47826C20.4642 3.34783 18.8345 1 15.5004 1C12.7383 1 10.4992 2.67009 10.4992 5.69565Z" />
    </symbol>
    <symbol id="basket" viewBox="0 0 21 22">
        <path
            d="M13.7222 8.90278V4.11111C13.7222 2.39289 12.3293 1 10.6111 1C8.89289 1 7.5 2.39289 7.5 4.11111V9M1.5 5H19.5L20.5 21H0.5L1.5 5Z" />
    </symbol>
    <symbol id="facebook" viewBox="0 0 24 24">
        <path
            d="M9.5 14.5V23H12.5V14.5H16V11.5H12.5003C12.5133 9.95468 12.8829 9.69055 12.915 9.66757L12.9156 9.66718C12.9655 9.63135 13.0729 9.5766 13.3222 9.54085C13.5879 9.50276 13.8942 9.50003 14.3333 9.50003H16V6.50003H14.3333C14.2933 6.50003 14.2512 6.49986 14.207 6.49967C13.4761 6.49668 12.1966 6.49145 11.1678 7.22888C9.96399 8.09175 9.51299 9.58589 9.50028 11.5H7V14.5H9.5Z" />
        <path fill="none"
            d="M11.9956 1C9.00992 1 8.63452 1.0131 7.46032 1.06548C6.29048 1.11786 5.49167 1.30556 4.79325 1.57619C4.06865 1.85556 3.45754 2.23532 2.84643 2.84643C2.23532 3.45754 1.85992 4.07302 1.57619 4.79325C1.30556 5.49167 1.11786 6.29048 1.06548 7.46468C1.0131 8.63452 1 9.00992 1 11.9956C1 14.9813 1.0131 15.3567 1.06548 16.531C1.11786 17.7008 1.30556 18.4996 1.57619 19.2024C1.85556 19.927 2.23532 20.5381 2.84643 21.1492C3.45754 21.7603 4.07302 22.1357 4.79325 22.4194C5.49167 22.6901 6.29048 22.8778 7.46468 22.9302C8.63889 22.9825 9.00992 22.9956 12 22.9956C14.9901 22.9956 15.3611 22.9825 16.5353 22.9302C17.7052 22.8778 18.504 22.6901 19.2067 22.4194C19.9314 22.1401 20.5425 21.7603 21.1536 21.1492C21.7647 20.5381 22.1401 19.9226 22.4238 19.2024C22.6944 18.504 22.8821 17.7052 22.9345 16.531C22.9869 15.3567 23 14.9857 23 11.9956C23 9.00555 22.9869 8.63452 22.9345 7.46032C22.8821 6.29048 22.6944 5.49167 22.4238 4.78889C22.1444 4.06429 21.7647 3.45317 21.1536 2.84206C20.5425 2.23095 19.927 1.85556 19.2067 1.57183C18.5083 1.30119 17.7095 1.11349 16.5353 1.06111C15.3567 1.0131 14.9813 1 11.9956 1Z" />
    </symbol>
    <symbol id="instagram" viewBox="0 0 24 24">
        <path fill="none"
            d="M11.9956 1C9.00992 1 8.63452 1.0131 7.46032 1.06548C6.29048 1.11786 5.49167 1.30556 4.79325 1.57619C4.06865 1.85556 3.45754 2.23532 2.84643 2.84643C2.23532 3.45754 1.85992 4.07302 1.57619 4.79325C1.30556 5.49167 1.11786 6.29048 1.06548 7.46468C1.0131 8.63452 1 9.00992 1 11.9956C1 14.9813 1.0131 15.3567 1.06548 16.531C1.11786 17.7008 1.30556 18.4996 1.57619 19.2024C1.85556 19.927 2.23532 20.5381 2.84643 21.1492C3.45754 21.7603 4.07302 22.1357 4.79325 22.4194C5.49167 22.6901 6.29048 22.8778 7.46468 22.9302C8.63889 22.9825 9.00992 22.9956 12 22.9956C14.9901 22.9956 15.3611 22.9825 16.5353 22.9302C17.7052 22.8778 18.504 22.6901 19.2067 22.4194C19.9314 22.1401 20.5425 21.7603 21.1536 21.1492C21.7647 20.5381 22.1401 19.9226 22.4238 19.2024C22.6944 18.504 22.8821 17.7052 22.9345 16.531C22.9869 15.3567 23 14.9857 23 11.9956C23 9.00555 22.9869 8.63452 22.9345 7.46032C22.8821 6.29048 22.6944 5.49167 22.4238 4.78889C22.1444 4.06429 21.7647 3.45317 21.1536 2.84206C20.5425 2.23095 19.927 1.85556 19.2067 1.57183C18.5083 1.30119 17.7095 1.11349 16.5353 1.06111C15.3567 1.0131 14.9813 1 11.9956 1Z" />
        <path fill="none"
            d="M11.5 7C8.46522 7 6 9.46097 6 12.5C6 15.539 8.46522 18 11.5 18C14.5348 18 17 15.5348 17 12.5C17 9.46522 14.5348 7 11.5 7Z" />
        <path fill="none"
            d="M17.5 7C18.3284 7 19 6.32843 19 5.5C19 4.67157 18.3284 4 17.5 4C16.6716 4 16 4.67157 16 5.5C16 6.32843 16.6716 7 17.5 7Z" />
    </symbol>
    <symbol id="vk" viewBox="0 0 24 24">
        <path
            d="M19.633 7.67714C19.7437 7.28714 19.633 7 19.103 7H17.3531C16.9077 7 16.7024 7.24786 16.5911 7.52143C16.5911 7.52143 15.7011 9.80429 14.4404 11.2871C14.0325 11.7171 13.8471 11.8536 13.6245 11.8536C13.5131 11.8536 13.3458 11.7171 13.3458 11.3264V7.67714C13.3458 7.20857 13.2231 7 12.8525 7H10.1005C9.82254 7 9.65521 7.21714 9.65521 7.42357C9.65521 7.86714 10.2859 7.97 10.3505 9.21857V11.9314C10.3505 12.5264 10.2485 12.6343 10.0259 12.6343C9.43255 12.6343 7.98925 10.3407 7.1326 7.71643C6.9666 7.20571 6.79861 7 6.35128 7H4.59999C4.1 7 4 7.24786 4 7.52143C4 8.00857 4.59332 10.4286 6.76328 13.6293C8.20991 15.815 10.2465 17 12.1018 17C13.2145 17 13.3518 16.7371 13.3518 16.2836V14.6314C13.3518 14.105 13.4571 14 13.8098 14C14.0698 14 14.5144 14.1371 15.5531 15.1907C16.7397 16.44 16.9351 17 17.603 17H19.353C19.853 17 20.1037 16.7371 19.9597 16.2171C19.801 15.7 19.2343 14.9493 18.483 14.0586C18.075 13.5514 17.4631 13.005 17.2771 12.7314C17.0177 12.3807 17.0917 12.2243 17.2771 11.9121C17.2771 11.9121 19.4103 8.75071 19.6323 7.67714H19.633Z" />
        <path fill="none"
            d="M11.9956 1C9.00992 1 8.63452 1.0131 7.46032 1.06548C6.29048 1.11786 5.49167 1.30556 4.79325 1.57619C4.06865 1.85556 3.45754 2.23532 2.84643 2.84643C2.23532 3.45754 1.85992 4.07302 1.57619 4.79325C1.30556 5.49167 1.11786 6.29048 1.06548 7.46468C1.0131 8.63452 1 9.00992 1 11.9956C1 14.9813 1.0131 15.3567 1.06548 16.531C1.11786 17.7008 1.30556 18.4996 1.57619 19.2024C1.85556 19.927 2.23532 20.5381 2.84643 21.1492C3.45754 21.7603 4.07302 22.1357 4.79325 22.4194C5.49167 22.6901 6.29048 22.8778 7.46468 22.9302C8.63889 22.9825 9.00992 22.9956 12 22.9956C14.9901 22.9956 15.3611 22.9825 16.5353 22.9302C17.7052 22.8778 18.504 22.6901 19.2067 22.4194C19.9314 22.1401 20.5425 21.7603 21.1536 21.1492C21.7647 20.5381 22.1401 19.9226 22.4238 19.2024C22.6944 18.504 22.8821 17.7052 22.9345 16.531C22.9869 15.3567 23 14.9857 23 11.9956C23 9.00555 22.9869 8.63452 22.9345 7.46032C22.8821 6.29048 22.6944 5.49167 22.4238 4.78889C22.1444 4.06429 21.7647 3.45317 21.1536 2.84206C20.5425 2.23095 19.927 1.85556 19.2067 1.57183C18.5083 1.30119 17.7095 1.11349 16.5353 1.06111C15.3567 1.0131 14.9813 1 11.9956 1Z" />
    </symbol>
    <symbol id="close" viewBox="0 0 24 24">
        <path d="M18 6L12 12M12 12L6 18M12 12L6 6M12 12L18 18" stroke-linecap="round" stroke-linejoin="round" />
    </symbol>
    <symbol id="arrow_r" viewBox="0 0 14 12">
        <path d="M7.66667 11L13 6M13 6L7.66667 1M13 6L1 6" stroke-linecap="round" stroke-linejoin="round" />
    </symbol>
</svg>