<svg dispaly="none" xmlns="http://www.w3.org/2000/svg">
    <symbol id="search" viewBox="0 0 21 21">
        <path
            d="M15.7544 15.4925L20.5 20M17.8461 9.77628C17.8461 14.6233 13.9631 18.5526 9.17307 18.5526C4.38306 18.5526 0.5 14.6233 0.5 9.77628C0.5 4.92927 4.38306 1 9.17307 1C13.9631 1 17.8461 4.92927 17.8461 9.77628Z" />
    </symbol>
    <symbol id="autorization" viewBox="0 0 21 21">
        <path
            d="M9.5 13C12.8137 13 15.5 10.3137 15.5 7C15.5 3.68629 12.8137 1 9.5 1C6.18629 1 3.5 3.68629 3.5 7C3.5 10.3137 6.18629 13 9.5 13ZM9.5 13C4.52944 13 0.5 16.5817 0.5 21M9.5 13C14.4706 13 18.5 16.5817 18.5 21" />
    </symbol>
    <symbol id="favorit" viewBox="0 0 21 20">
        <path
            d="M10.4992 5.69565C10.4992 2.67009 8.26049 1 5.49886 1C2.16529 1 0.53581 3.34783 0.5 6.47826C0.5 10.7826 5.49887 14.3043 10.4992 19C15.5004 14.3043 20.5 10.7826 20.5 6.47826C20.4642 3.34783 18.8345 1 15.5004 1C12.7383 1 10.4992 2.67009 10.4992 5.69565Z" />
    </symbol>
    <symbol id="basket" viewBox="0 0 21 22">
        <path
            d="M13.7222 8.90278V4.11111C13.7222 2.39289 12.3293 1 10.6111 1C8.89289 1 7.5 2.39289 7.5 4.11111V9M1.5 5H19.5L20.5 21H0.5L1.5 5Z" />
    </symbol>
    <symbol id="facebook" viewBox="0 0 24 24">
        <path fill="" stroke="none"
            d="M9.5 14.5V23H12.5V14.5H16V11.5H12.5003C12.5133 9.95468 12.8829 9.69055 12.915 9.66757L12.9156 9.66718C12.9655 9.63135 13.0729 9.5766 13.3222 9.54085C13.5879 9.50276 13.8942 9.50003 14.3333 9.50003H16V6.50003H14.3333C14.2933 6.50003 14.2512 6.49986 14.207 6.49967C13.4761 6.49668 12.1966 6.49145 11.1678 7.22888C9.96399 8.09175 9.51299 9.58589 9.50028 11.5H7V14.5H9.5Z" />
        <path fill="none"
            d="M11.9956 1C9.00992 1 8.63452 1.0131 7.46032 1.06548C6.29048 1.11786 5.49167 1.30556 4.79325 1.57619C4.06865 1.85556 3.45754 2.23532 2.84643 2.84643C2.23532 3.45754 1.85992 4.07302 1.57619 4.79325C1.30556 5.49167 1.11786 6.29048 1.06548 7.46468C1.0131 8.63452 1 9.00992 1 11.9956C1 14.9813 1.0131 15.3567 1.06548 16.531C1.11786 17.7008 1.30556 18.4996 1.57619 19.2024C1.85556 19.927 2.23532 20.5381 2.84643 21.1492C3.45754 21.7603 4.07302 22.1357 4.79325 22.4194C5.49167 22.6901 6.29048 22.8778 7.46468 22.9302C8.63889 22.9825 9.00992 22.9956 12 22.9956C14.9901 22.9956 15.3611 22.9825 16.5353 22.9302C17.7052 22.8778 18.504 22.6901 19.2067 22.4194C19.9314 22.1401 20.5425 21.7603 21.1536 21.1492C21.7647 20.5381 22.1401 19.9226 22.4238 19.2024C22.6944 18.504 22.8821 17.7052 22.9345 16.531C22.9869 15.3567 23 14.9857 23 11.9956C23 9.00555 22.9869 8.63452 22.9345 7.46032C22.8821 6.29048 22.6944 5.49167 22.4238 4.78889C22.1444 4.06429 21.7647 3.45317 21.1536 2.84206C20.5425 2.23095 19.927 1.85556 19.2067 1.57183C18.5083 1.30119 17.7095 1.11349 16.5353 1.06111C15.3567 1.0131 14.9813 1 11.9956 1Z" />
    </symbol>
    <symbol id="instagram" viewBox="0 0 24 24">
        <path fill="none"
            d="M11.9956 1C9.00992 1 8.63452 1.0131 7.46032 1.06548C6.29048 1.11786 5.49167 1.30556 4.79325 1.57619C4.06865 1.85556 3.45754 2.23532 2.84643 2.84643C2.23532 3.45754 1.85992 4.07302 1.57619 4.79325C1.30556 5.49167 1.11786 6.29048 1.06548 7.46468C1.0131 8.63452 1 9.00992 1 11.9956C1 14.9813 1.0131 15.3567 1.06548 16.531C1.11786 17.7008 1.30556 18.4996 1.57619 19.2024C1.85556 19.927 2.23532 20.5381 2.84643 21.1492C3.45754 21.7603 4.07302 22.1357 4.79325 22.4194C5.49167 22.6901 6.29048 22.8778 7.46468 22.9302C8.63889 22.9825 9.00992 22.9956 12 22.9956C14.9901 22.9956 15.3611 22.9825 16.5353 22.9302C17.7052 22.8778 18.504 22.6901 19.2067 22.4194C19.9314 22.1401 20.5425 21.7603 21.1536 21.1492C21.7647 20.5381 22.1401 19.9226 22.4238 19.2024C22.6944 18.504 22.8821 17.7052 22.9345 16.531C22.9869 15.3567 23 14.9857 23 11.9956C23 9.00555 22.9869 8.63452 22.9345 7.46032C22.8821 6.29048 22.6944 5.49167 22.4238 4.78889C22.1444 4.06429 21.7647 3.45317 21.1536 2.84206C20.5425 2.23095 19.927 1.85556 19.2067 1.57183C18.5083 1.30119 17.7095 1.11349 16.5353 1.06111C15.3567 1.0131 14.9813 1 11.9956 1Z" />
        <path fill="none"
            d="M11.5 7C8.46522 7 6 9.46097 6 12.5C6 15.539 8.46522 18 11.5 18C14.5348 18 17 15.5348 17 12.5C17 9.46522 14.5348 7 11.5 7Z" />
        <path
            d="M17.5 7C18.3284 7 19 6.32843 19 5.5C19 4.67157 18.3284 4 17.5 4C16.6716 4 16 4.67157 16 5.5C16 6.32843 16.6716 7 17.5 7Z" />
    </symbol>
    <symbol id="vk" viewBox="0 0 24 24">
        <path stroke="none"
            d="M19.633 7.67714C19.7437 7.28714 19.633 7 19.103 7H17.3531C16.9077 7 16.7024 7.24786 16.5911 7.52143C16.5911 7.52143 15.7011 9.80429 14.4404 11.2871C14.0325 11.7171 13.8471 11.8536 13.6245 11.8536C13.5131 11.8536 13.3458 11.7171 13.3458 11.3264V7.67714C13.3458 7.20857 13.2231 7 12.8525 7H10.1005C9.82254 7 9.65521 7.21714 9.65521 7.42357C9.65521 7.86714 10.2859 7.97 10.3505 9.21857V11.9314C10.3505 12.5264 10.2485 12.6343 10.0259 12.6343C9.43255 12.6343 7.98925 10.3407 7.1326 7.71643C6.9666 7.20571 6.79861 7 6.35128 7H4.59999C4.1 7 4 7.24786 4 7.52143C4 8.00857 4.59332 10.4286 6.76328 13.6293C8.20991 15.815 10.2465 17 12.1018 17C13.2145 17 13.3518 16.7371 13.3518 16.2836V14.6314C13.3518 14.105 13.4571 14 13.8098 14C14.0698 14 14.5144 14.1371 15.5531 15.1907C16.7397 16.44 16.9351 17 17.603 17H19.353C19.853 17 20.1037 16.7371 19.9597 16.2171C19.801 15.7 19.2343 14.9493 18.483 14.0586C18.075 13.5514 17.4631 13.005 17.2771 12.7314C17.0177 12.3807 17.0917 12.2243 17.2771 11.9121C17.2771 11.9121 19.4103 8.75071 19.6323 7.67714H19.633Z" />
        <path fill="none"
            d="M11.9956 1C9.00992 1 8.63452 1.0131 7.46032 1.06548C6.29048 1.11786 5.49167 1.30556 4.79325 1.57619C4.06865 1.85556 3.45754 2.23532 2.84643 2.84643C2.23532 3.45754 1.85992 4.07302 1.57619 4.79325C1.30556 5.49167 1.11786 6.29048 1.06548 7.46468C1.0131 8.63452 1 9.00992 1 11.9956C1 14.9813 1.0131 15.3567 1.06548 16.531C1.11786 17.7008 1.30556 18.4996 1.57619 19.2024C1.85556 19.927 2.23532 20.5381 2.84643 21.1492C3.45754 21.7603 4.07302 22.1357 4.79325 22.4194C5.49167 22.6901 6.29048 22.8778 7.46468 22.9302C8.63889 22.9825 9.00992 22.9956 12 22.9956C14.9901 22.9956 15.3611 22.9825 16.5353 22.9302C17.7052 22.8778 18.504 22.6901 19.2067 22.4194C19.9314 22.1401 20.5425 21.7603 21.1536 21.1492C21.7647 20.5381 22.1401 19.9226 22.4238 19.2024C22.6944 18.504 22.8821 17.7052 22.9345 16.531C22.9869 15.3567 23 14.9857 23 11.9956C23 9.00555 22.9869 8.63452 22.9345 7.46032C22.8821 6.29048 22.6944 5.49167 22.4238 4.78889C22.1444 4.06429 21.7647 3.45317 21.1536 2.84206C20.5425 2.23095 19.927 1.85556 19.2067 1.57183C18.5083 1.30119 17.7095 1.11349 16.5353 1.06111C15.3567 1.0131 14.9813 1 11.9956 1Z" />
    </symbol>
    <symbol id="close" viewBox="0 0 24 24">
        <path d="M18 6L12 12M12 12L6 18M12 12L6 6M12 12L18 18" stroke-linecap="round" stroke-linejoin="round" />
    </symbol>
    <symbol id="arrow_r" viewBox="0 0 14 12">
        <path d="M7.66667 11L13 6M13 6L7.66667 1M13 6L1 6" stroke-linecap="round" stroke-linejoin="round" />
    </symbol>
    <symbol id="logo" viewBox="0 0 200 66">
        <path
            d="M0.280289 33.0315V32.8513C0.201314 28.5233 1.01954 24.2244 2.68564 20.2139C4.35174 16.2034 6.83121 12.5644 9.97454 9.51621C13.1179 6.468 16.86 4.07378 20.9752 2.47788C25.0905 0.881989 29.4936 0.117476 33.9192 0.230441C38.6218 0.0011865 43.3207 0.750105 47.7054 2.42773C52.0901 4.10535 56.061 6.67351 59.3556 9.96256L50.3236 20.1454C45.9921 15.7492 40.0678 13.1927 33.827 13.0265C22.952 13.0265 15.1183 21.8575 15.1183 32.6711V32.8512C15.1183 43.6648 22.7675 52.6762 33.827 52.6762C41.1999 52.6762 45.7158 49.7926 50.7845 45.287L59.8163 54.208C56.5688 57.9227 52.5002 60.8671 47.918 62.8185C43.3357 64.7699 38.3598 65.6774 33.3662 65.4723C28.9939 65.5416 24.6522 64.7492 20.5999 63.1423C16.5476 61.5354 12.8679 59.1469 9.78013 56.1193C6.69237 53.0918 4.25987 49.4872 2.62773 45.5205C0.995583 41.5538 0.19723 37.3064 0.280289 33.0315Z" />
        <path
            d="M69.9839 33.0315V32.8513C69.9049 28.5232 70.7231 24.2244 72.3892 20.2139C74.0553 16.2034 76.5348 12.5644 79.6781 9.51621C82.8215 6.46801 86.5636 4.07378 90.6788 2.47789C94.7941 0.88199 99.1972 0.117478 103.623 0.230443C108.325 0.00118338 113.024 0.7501 117.409 2.42772C121.794 4.10535 125.765 6.6735 129.059 9.96256L120.027 20.1454C115.696 15.7492 109.771 13.1927 103.531 13.0265C92.6556 13.0265 84.8219 21.8575 84.8219 32.6711V32.8512C84.8219 43.6648 92.4711 52.6762 103.531 52.6762C110.903 52.6762 115.419 49.7925 120.488 45.2869L129.52 54.208C126.272 57.9227 122.204 60.8671 117.622 62.8185C113.039 64.7699 108.063 65.6774 103.07 65.4723C98.6976 65.5416 94.3559 64.7492 90.3036 63.1423C86.2513 61.5354 82.5715 59.1469 79.4838 56.1194C76.396 53.0918 73.9635 49.4872 72.3313 45.5205C70.6992 41.5538 69.9008 37.3064 69.9839 33.0315Z" />
        <path
            d="M139.549 33.0315V32.8513C139.47 28.5233 140.289 24.2244 141.955 20.2139C143.621 16.2034 146.1 12.5644 149.244 9.51621C152.387 6.46801 156.129 4.07378 160.244 2.47789C164.359 0.88199 168.763 0.117477 173.188 0.230442C177.891 0.00118464 182.59 0.750102 186.974 2.42773C191.359 4.10535 195.33 6.67351 198.625 9.96256L189.593 20.1454C185.261 15.7493 179.337 13.1927 173.096 13.0265C162.221 13.0265 154.387 21.8575 154.387 32.6711V32.8512C154.387 43.6648 162.037 52.6762 173.096 52.6762C180.469 52.6762 184.985 49.7926 190.054 45.287L199.085 54.208C195.838 57.9227 191.769 60.8671 187.187 62.8185C182.605 64.7699 177.629 65.6774 172.635 65.4723C168.263 65.5416 163.921 64.7492 159.869 63.1423C155.817 61.5354 152.137 59.1469 149.049 56.1193C145.961 53.0918 143.529 49.4872 141.897 45.5205C140.265 41.5538 139.466 37.3064 139.549 33.0315Z" />
    </symbol>
    <symbol id="free_shipping" viewBox="0 0 79 56">
        <path fill-rule="evenodd" clip-rule="evenodd"
            d="M6.40541 0H7.11712H46.973H47.6847V0.717949V7.89744H64.7658H64.9929L65.178 8.03013L78.7005 17.7224L79 17.9371V18.3077V43.7949V44.5128H78.2883H71.8829C71.8829 50.857 66.7846 56 60.4955 56C54.2064 56 49.1081 50.857 49.1081 44.5128H47.6847H46.973H46.2613H35.5856C35.5856 50.857 30.4873 56 24.1982 56C17.9091 56 12.8108 50.857 12.8108 44.5128H7.11712H6.40541V43.7949V30.8718H0V29.4359H6.40541V22.9744H0V21.5385H6.40541V0.717949V0ZM50.5315 44.5128C50.5315 50.064 54.9925 54.5641 60.4955 54.5641C65.9984 54.5641 70.4595 50.064 70.4595 44.5128C70.4595 38.9617 65.9984 34.4615 60.4955 34.4615C54.9925 34.4615 50.5315 38.9617 50.5315 44.5128ZM49.1962 43.0769H47.6847V9.33333H64.5387L77.5766 18.6783V43.0769H71.7948C71.0943 37.4104 66.3025 33.0256 60.4955 33.0256C54.6885 33.0256 49.8967 37.4104 49.1962 43.0769ZM46.2613 43.0769H35.4975C34.797 37.4104 30.0052 33.0256 24.1982 33.0256C18.3912 33.0256 13.5994 37.4104 12.8989 43.0769H7.82883V30.8718H11.3874V29.4359H7.82883V22.9744H26.3333V21.5385H7.82883V1.4359H46.2613V7.89744V8.61539V43.0769ZM0 10.7692H3.55856V9.33333H0V10.7692ZM24.1982 54.5641C29.7011 54.5641 34.1622 50.064 34.1622 44.5128C34.1622 38.9617 29.7011 34.4615 24.1982 34.4615C18.6953 34.4615 14.2342 38.9617 14.2342 44.5128C14.2342 50.064 18.6953 54.5641 24.1982 54.5641Z" />
    </symbol>
    <symbol id="high_quality" viewBox="0 0 46 46">
        <path
            d="M12.851 18.7241C33.3097 -17.115 66.392 9.00258 26.9254 32.7986L25.9098 33.2339L12.4157 19.7398L12.851 18.7241ZM1.53333 39.328C0.517644 34.83 2.69411 29.4614 7.91763 24.2378L20.6862 37.0065C11.9804 48.6143 3.1294 46.1476 1.53333 39.328Z" />
    </symbol>
    <symbol id="100" viewBox="0 0 53 56">
        <path
            d="M47.3036 10.1658C42.4328 5.1017 35.5537 1.94521 27.9273 1.94521C13.1578 1.94521 1.1924 13.784 1.1924 28.3786C1.1924 42.9732 13.1578 54.812 27.9273 54.812C38.4639 54.812 47.5758 48.7858 51.9316 40.0301L53 40.5577C48.449 49.7056 38.9307 56 27.9273 56C12.5077 56 0 43.6377 0 28.3786C0 13.1195 12.5077 0.757195 27.9273 0.757195C35.2985 0.757195 42.0041 3.58242 46.9953 8.19748L44.7381 0.326373L45.8846 0L49.0401 11.0034L38.8806 13.2177L38.6258 12.0571L47.3036 10.1658Z" />
        <path d="M17.2541 34.0216H15.8948V22.4741L12.7468 24.3274L12.1387 23.2938L15.9305 21.0307H17.2541V34.0216Z" />
        <path
            d="M25.4354 34.1642C24.0642 34.1642 22.9135 33.7009 21.9834 32.7742C21.5542 32.299 21.1964 31.8001 20.9103 31.2773C20.326 30.1606 20.0338 28.925 20.0338 27.5707C20.0219 26.5965 20.1889 25.6402 20.5347 24.7016C20.8924 23.7512 21.3872 22.9553 22.0192 22.3137C22.9374 21.3752 24.094 20.9059 25.4891 20.9059C26.8842 20.9059 28.0349 21.3693 28.9411 22.2959C29.3465 22.7117 29.7042 23.2047 30.0143 23.775C30.5866 24.8799 30.8728 26.1213 30.8728 27.4994C30.8967 28.4855 30.7297 29.4478 30.372 30.3863C30.0262 31.3248 29.5373 32.1089 28.9053 32.7386C27.9872 33.689 26.8306 34.1642 25.4354 34.1642ZM26.9379 22.4919C26.4967 22.2662 26.0018 22.1534 25.4533 22.1534C24.9048 22.1534 24.41 22.2662 23.9688 22.4919C23.5037 22.7058 23.1222 22.9968 22.8241 23.3651C22.1921 24.1017 21.7807 24.9987 21.5899 26.056C21.2799 27.5885 21.4349 29.0379 22.055 30.4041C22.5081 31.4377 23.146 32.1565 23.9688 32.5604C24.4219 32.7861 24.9227 32.899 25.4712 32.899C26.0078 32.899 26.5026 32.792 26.9558 32.5782C27.4327 32.3287 27.8143 32.0377 28.1005 31.705C28.7086 30.9803 29.12 30.0893 29.3346 29.032C29.6446 27.4875 29.4896 26.0322 28.8696 24.666C28.4165 23.6324 27.7726 22.9077 26.9379 22.4919Z" />
        <path
            d="M38.2212 34.1642C36.8499 34.1642 35.6992 33.7009 34.7692 32.7742C34.3399 32.299 33.9822 31.8001 33.696 31.2773C33.1117 30.1606 32.8196 28.925 32.8196 27.5707C32.8077 26.5965 32.9746 25.6402 33.3204 24.7016C33.6781 23.7512 34.173 22.9553 34.8049 22.3137C35.7231 21.3752 36.8797 20.9059 38.2748 20.9059C39.67 20.9059 40.8206 21.3693 41.7269 22.2959C42.1323 22.7117 42.49 23.2047 42.8 23.775C43.3724 24.8799 43.6586 26.1213 43.6586 27.4994C43.6824 28.4855 43.5155 29.4478 43.1577 30.3863C42.8119 31.3248 42.3231 32.1089 41.6911 32.7386C40.7729 33.689 39.6163 34.1642 38.2212 34.1642ZM39.7236 22.4919C39.2824 22.2662 38.7876 22.1534 38.2391 22.1534C37.6906 22.1534 37.1957 22.2662 36.7545 22.4919C36.2895 22.7058 35.9079 22.9968 35.6098 23.3651C34.9778 24.1017 34.5665 24.9987 34.3757 26.056C34.0657 27.5885 34.2207 29.0379 34.8407 30.4041C35.2938 31.4377 35.9318 32.1565 36.7545 32.5604C37.2076 32.7861 37.7085 32.899 38.257 32.899C38.7935 32.899 39.2884 32.792 39.7415 32.5782C40.2185 32.3287 40.6 32.0377 40.8862 31.705C41.4943 30.9803 41.9057 30.0893 42.1204 29.032C42.4304 27.4875 42.2754 26.0322 41.6553 24.666C41.2022 23.6324 40.5583 22.9077 39.7236 22.4919Z" />
    </symbol>
    <symbol id="return" viewBox="0 0 42 56">
        <path fill-rule="evenodd" clip-rule="evenodd"
            d="M27.4773 18.24C27.4773 21.9514 24.4629 24.96 20.7444 24.96C17.0259 24.96 14.0115 21.9514 14.0115 18.24C14.0115 14.5286 17.0259 11.52 20.7444 11.52C24.4629 11.52 27.4773 14.5286 27.4773 18.24ZM26.1948 18.24C26.1948 21.2444 23.7546 23.68 20.7444 23.68C17.7342 23.68 15.294 21.2444 15.294 18.24C15.294 15.2356 17.7342 12.8 20.7444 12.8C23.7546 12.8 26.1948 15.2356 26.1948 18.24Z" />
        <path fill-rule="evenodd" clip-rule="evenodd"
            d="M41.905 22.08C41.0621 31.8942 25.6947 50.5538 21.9046 55.0213C21.3694 55.6521 21.0651 56 21.0651 56C21.0651 56 20.7493 55.6634 20.1951 55.0476C16.4605 50.8972 1.90025 34.0621 0.225148 22.08C-1.90204 6.86407 11.5033 0 21.0651 0C30.6269 0 43.2193 6.77612 41.905 22.08ZM40.6272 21.9707C40.4103 24.497 39.0959 27.8242 37.1138 31.4982C35.1511 35.1362 32.6106 38.9769 30.0823 42.4938C27.5568 46.0069 25.0589 49.1757 23.1912 51.4673C22.31 52.5485 21.5701 53.4332 21.0351 54.0653C20.5327 53.5051 19.8555 52.7386 19.054 51.8031C17.2651 49.7151 14.8615 46.7906 12.4005 43.4428C9.9373 40.0922 7.42998 36.3357 5.4245 32.5826C3.41082 28.8142 1.94612 25.1278 1.4953 21.9031C0.495974 14.7549 3.1256 9.66198 7.09051 6.31084C11.1123 2.91163 16.5499 1.28 21.0651 1.28C25.5754 1.28 30.8056 2.88656 34.7247 6.26923C38.5973 9.61175 41.2488 14.733 40.6272 21.9707Z" />
    </symbol>
    <symbol id="face-sign" viewBox="0 0 10 20">
        <path fill-rule="evenodd" clip-rule="evenodd"
            d="M2.77778 9.69745V20H6.11111V9.69745H10V6.06125H6.11145C6.12589 4.18819 6.53656 3.86805 6.57222 3.84019L6.57289 3.83972C6.62833 3.79629 6.74767 3.72993 7.02467 3.6866C7.31989 3.64043 7.66022 3.63712 8.14811 3.63712H10V0.000929867H8.14811C8.10367 0.000929867 8.05689 0.000723802 8.00778 0.000493509C7.19567 -0.00313056 5.774 -0.00946976 4.63089 0.884343C3.29332 1.9302 2.79221 3.74119 2.77809 6.06125H0V9.69745H2.77778Z" />
    </symbol>
    <symbol id="vk-sign" viewBox="0 0 23 13">
        <path
            d="M11.2539 12.9451H12.6283C12.6283 12.9451 13.0436 12.8998 13.2551 12.6733C13.4508 12.4655 13.4433 12.075 13.4433 12.075C13.4433 12.075 13.4162 10.248 14.273 9.97871C15.1169 9.71385 16.2007 11.745 17.3494 12.5266C18.2177 13.1174 18.8777 12.988 18.8777 12.988L21.9498 12.9452C21.9498 12.9452 23.5569 12.847 22.795 11.5952C22.7333 11.4929 22.3508 10.6696 20.5107 8.97765C18.5843 7.20601 18.8428 7.49363 21.1632 4.43036C22.5764 2.56486 23.1416 1.42551 22.9646 0.938456C22.7964 0.474212 21.7572 0.596785 21.7572 0.596785L18.301 0.616832C18.301 0.616832 18.045 0.582498 17.854 0.695071C17.6683 0.806025 17.549 1.0625 17.549 1.0625C17.549 1.0625 17.0014 2.50638 16.2711 3.73435C14.7313 6.32457 14.1148 6.46138 13.863 6.30028C13.2778 5.9259 13.4247 4.7935 13.4247 3.99035C13.4247 1.47956 13.8086 0.432973 12.6757 0.162446C12.2989 0.0726827 12.023 0.0128248 11.0614 0.00301517C9.82772 -0.00993737 8.78259 0.00720571 8.19194 0.293352C7.79794 0.484259 7.49447 0.910169 7.67995 0.934264C7.90856 0.964217 8.42605 1.07236 8.70074 1.44279C9.05593 1.9198 9.04287 2.99372 9.04287 2.99372C9.04287 2.99372 9.24686 5.94842 8.56689 6.31614C8.09958 6.56814 7.4601 6.0538 6.08705 3.70263C5.38414 2.49943 4.85225 1.1677 4.85225 1.1677C4.85225 1.1677 4.75021 0.920217 4.56762 0.787692C4.34619 0.62669 4.03553 0.575641 4.03553 0.575641L0.749444 0.595308C0.749444 0.595308 0.256157 0.609832 0.0750184 0.821692C-0.0858758 1.01141 0.0621006 1.40151 0.0621006 1.40151C0.0621006 1.40151 2.6354 7.36415 5.54827 10.3703C8.22066 13.126 11.2539 12.9451 11.2539 12.9451Z" />
    </symbol>
    <symbol id="phone-icon" viewBox="0 0 16 16">
        <path
            d="M4.90321 11.0968C7.32459 13.518 10.6146 15.9998 12.7942 15.9995C13.1523 16.0074 13.5066 15.9247 13.8241 15.7589C14.7162 15.2723 15.4024 14.3388 15.8638 12.9841C16.0328 12.4882 16.1738 11.7682 15.4509 11.2435L12.9691 9.44251C12.2206 8.89986 11.5545 9.64108 11.0678 10.1822C10.5088 10.8042 10.3011 10.9479 10.1426 10.8212C8.82701 9.77088 6.22885 7.17296 5.17862 5.85723C5.0522 5.69878 5.19547 5.49127 5.81748 4.93213C6.35875 4.44549 7.10023 3.77903 6.55723 3.03088L4.75613 0.549298C4.2317 -0.173845 3.5114 -0.0327583 3.01547 0.136107C1.66065 0.597659 0.727111 1.284 0.240534 2.17594C-0.868565 4.20986 2.05917 8.25268 4.90321 11.0968ZM1.02109 2.60154C1.39757 1.91147 2.16492 1.36509 3.30216 0.977691C3.43738 0.925273 3.58002 0.894507 3.72483 0.886527C3.78896 0.884652 3.8523 0.90103 3.90748 0.933754C3.96266 0.966479 4.00741 1.0142 4.03652 1.07137L5.83762 3.55303C5.84596 3.5645 5.84926 3.5711 5.84926 3.5711C5.84683 3.71019 5.44118 4.07485 5.22308 4.27098C4.65542 4.78124 3.79758 5.55232 4.48367 6.41187C5.56378 7.76475 8.23504 10.436 9.58794 11.516C10.4477 12.2019 11.2187 11.3442 11.729 10.7766C11.9254 10.5581 12.2912 10.1513 12.4263 10.15C12.4336 10.153 12.4405 10.1571 12.4467 10.1621L14.9285 11.9631C15.0826 12.0748 15.2043 12.1631 15.0223 12.6974C14.6351 13.8345 14.0886 14.6019 13.3984 14.9784C12.139 15.6643 8.83169 13.7676 5.53183 10.4681C2.23196 7.16827 0.335005 3.85996 1.02109 2.60154Z" />
    </symbol>
    <symbol id="email-icon" viewBox="0 0 16 12">
        <path d="M3.33333 3.77778L8.1052 7.11111L12.6667 3.77778M1 1L15 1L15 11L1 11L1 1Z" stroke-linecap="round"
            stroke-linejoin="round" />
    </symbol>
    <symbol id="arrow-slid" viewBox="0 0 20 18">
        <path d="M11 17L19 9M19 9L11 1M19 9L1 9" stroke-linecap="round" stroke-linejoin="round" />
    </symbol>
    <symbol id="arrow-select" viewBox="0 0 16 9">
        <path d="M1 1L8 8L15 1" stroke-linecap="round" stroke-linejoin="round" />
    </symbol>
    <symbol id="burger-menu" viewBox="0 0 22 13">
        <path d="M1 0.5H21M1 6.5H21M1 12.5H21" stroke-linecap="round" stroke-linejoin="round"/>
    </symbol>
</svg>